<mxfile host="app.diagrams.net" modified="2023-12-29T12:49:05.636Z" agent="Mozilla/5.0 (Windows NT 10.0; Win64; x64) AppleWebKit/537.36 (KHTML, like Gecko) Chrome/120.0.0.0 Safari/537.36 Edg/120.0.0.0" etag="sZixSALgWxbuWo27VJaX" version="22.1.16" type="github">
  <diagram name="PÃ¡gina-1" id="CALPcioFlYGR9EmAwwZ3">
    <mxGraphModel dx="668" dy="379" grid="0" gridSize="10" guides="1" tooltips="1" connect="1" arrows="1" fold="1" page="0" pageScale="1" pageWidth="827" pageHeight="1169" math="0" shadow="0">
      <root>
        <mxCell id="0" />
        <mxCell id="1" parent="0" />
        <mxCell id="pmMBrRk4SSzDKYRyh0Tt-4" value="Before" style="swimlane;whiteSpace=wrap;html=1;rounded=1;fillColor=#f8cecc;strokeColor=#b85450;" vertex="1" parent="1">
          <mxGeometry x="80" y="56" width="621" height="389" as="geometry" />
        </mxCell>
        <mxCell id="pmMBrRk4SSzDKYRyh0Tt-6" style="edgeStyle=orthogonalEdgeStyle;rounded=0;orthogonalLoop=1;jettySize=auto;html=1;curved=1;exitX=1;exitY=0.5;exitDx=0;exitDy=0;exitPerimeter=0;" edge="1" parent="pmMBrRk4SSzDKYRyh0Tt-4" source="pmMBrRk4SSzDKYRyh0Tt-8" target="pmMBrRk4SSzDKYRyh0Tt-5">
          <mxGeometry relative="1" as="geometry">
            <mxPoint x="83" y="137" as="sourcePoint" />
          </mxGeometry>
        </mxCell>
        <mxCell id="pmMBrRk4SSzDKYRyh0Tt-10" value="Manual input" style="edgeLabel;html=1;align=center;verticalAlign=middle;resizable=0;points=[];fontSize=11;fontFamily=Helvetica;fontColor=default;" vertex="1" connectable="0" parent="pmMBrRk4SSzDKYRyh0Tt-6">
          <mxGeometry x="-0.5804" y="-3" relative="1" as="geometry">
            <mxPoint as="offset" />
          </mxGeometry>
        </mxCell>
        <mxCell id="pmMBrRk4SSzDKYRyh0Tt-14" style="edgeStyle=orthogonalEdgeStyle;shape=connector;curved=1;rounded=0;orthogonalLoop=1;jettySize=auto;html=1;entryX=0.5;entryY=0;entryDx=0;entryDy=0;labelBackgroundColor=default;strokeColor=default;align=center;verticalAlign=middle;fontFamily=Helvetica;fontSize=11;fontColor=default;endArrow=classic;" edge="1" parent="pmMBrRk4SSzDKYRyh0Tt-4" source="pmMBrRk4SSzDKYRyh0Tt-5" target="pmMBrRk4SSzDKYRyh0Tt-13">
          <mxGeometry relative="1" as="geometry" />
        </mxCell>
        <mxCell id="pmMBrRk4SSzDKYRyh0Tt-5" value="Manual mapping update" style="shape=process;whiteSpace=wrap;html=1;backgroundOutline=1;rounded=1;fillColor=#dae8fc;strokeColor=#6c8ebf;" vertex="1" parent="pmMBrRk4SSzDKYRyh0Tt-4">
          <mxGeometry x="250.5" y="177" width="120" height="60" as="geometry" />
        </mxCell>
        <mxCell id="pmMBrRk4SSzDKYRyh0Tt-9" style="edgeStyle=orthogonalEdgeStyle;shape=connector;curved=1;rounded=0;orthogonalLoop=1;jettySize=auto;html=1;labelBackgroundColor=default;strokeColor=default;align=center;verticalAlign=middle;fontFamily=Helvetica;fontSize=11;fontColor=default;endArrow=classic;entryX=0.5;entryY=0;entryDx=0;entryDy=0;" edge="1" parent="pmMBrRk4SSzDKYRyh0Tt-4" source="pmMBrRk4SSzDKYRyh0Tt-7" target="pmMBrRk4SSzDKYRyh0Tt-5">
          <mxGeometry relative="1" as="geometry">
            <mxPoint x="386" y="203.5999755859375" as="targetPoint" />
          </mxGeometry>
        </mxCell>
        <mxCell id="pmMBrRk4SSzDKYRyh0Tt-11" value="Manual update" style="edgeLabel;html=1;align=center;verticalAlign=middle;resizable=0;points=[];fontSize=11;fontFamily=Helvetica;fontColor=default;" vertex="1" connectable="0" parent="pmMBrRk4SSzDKYRyh0Tt-9">
          <mxGeometry x="-0.3665" y="8" relative="1" as="geometry">
            <mxPoint as="offset" />
          </mxGeometry>
        </mxCell>
        <mxCell id="pmMBrRk4SSzDKYRyh0Tt-15" value="Provide on-demand&lt;br&gt;data extracts" style="edgeStyle=orthogonalEdgeStyle;shape=connector;curved=1;rounded=0;orthogonalLoop=1;jettySize=auto;html=1;entryX=1;entryY=0.5;entryDx=0;entryDy=0;labelBackgroundColor=default;strokeColor=default;align=center;verticalAlign=middle;fontFamily=Helvetica;fontSize=11;fontColor=default;endArrow=classic;exitX=0.5;exitY=1;exitDx=0;exitDy=0;exitPerimeter=0;" edge="1" parent="pmMBrRk4SSzDKYRyh0Tt-4" source="pmMBrRk4SSzDKYRyh0Tt-7" target="pmMBrRk4SSzDKYRyh0Tt-13">
          <mxGeometry relative="1" as="geometry" />
        </mxCell>
        <mxCell id="pmMBrRk4SSzDKYRyh0Tt-7" value="&lt;span style=&quot;background-color: rgb(255, 255, 255);&quot;&gt;Data Team&lt;/span&gt;" style="verticalLabelPosition=bottom;sketch=0;html=1;fillColor=#A153A0;strokeColor=#ffffff;verticalAlign=top;align=center;points=[[0,0.5,0],[0.125,0.25,0],[0.25,0,0],[0.5,0,0],[0.75,0,0],[0.875,0.25,0],[1,0.5,0],[0.875,0.75,0],[0.75,1,0],[0.5,1,0],[0.125,0.75,0]];pointerEvents=1;shape=mxgraph.cisco_safe.compositeIcon;bgIcon=ellipse;resIcon=mxgraph.cisco_safe.design.users;" vertex="1" parent="pmMBrRk4SSzDKYRyh0Tt-4">
          <mxGeometry x="543" y="112" width="50" height="50" as="geometry" />
        </mxCell>
        <mxCell id="pmMBrRk4SSzDKYRyh0Tt-12" value="Back and forth communication" style="edgeStyle=orthogonalEdgeStyle;shape=connector;curved=1;rounded=0;orthogonalLoop=1;jettySize=auto;html=1;labelBackgroundColor=default;strokeColor=default;align=center;verticalAlign=middle;fontFamily=Helvetica;fontSize=11;fontColor=default;endArrow=classic;entryX=0.5;entryY=0;entryDx=0;entryDy=0;entryPerimeter=0;exitX=0.5;exitY=0;exitDx=0;exitDy=0;exitPerimeter=0;anchorPointDirection=1;startArrow=classic;startFill=1;" edge="1" parent="pmMBrRk4SSzDKYRyh0Tt-4" source="pmMBrRk4SSzDKYRyh0Tt-8" target="pmMBrRk4SSzDKYRyh0Tt-7">
          <mxGeometry relative="1" as="geometry">
            <mxPoint x="466.20001220703125" y="84.39999389648438" as="targetPoint" />
          </mxGeometry>
        </mxCell>
        <mxCell id="pmMBrRk4SSzDKYRyh0Tt-16" value="Provide sign-off based&lt;br&gt;on offline data extracts" style="edgeStyle=orthogonalEdgeStyle;shape=connector;curved=1;rounded=0;orthogonalLoop=1;jettySize=auto;html=1;entryX=0;entryY=0.5;entryDx=0;entryDy=0;labelBackgroundColor=default;strokeColor=default;align=center;verticalAlign=middle;fontFamily=Helvetica;fontSize=11;fontColor=default;endArrow=classic;exitX=0.5;exitY=1;exitDx=0;exitDy=0;exitPerimeter=0;" edge="1" parent="pmMBrRk4SSzDKYRyh0Tt-4" source="pmMBrRk4SSzDKYRyh0Tt-8" target="pmMBrRk4SSzDKYRyh0Tt-13">
          <mxGeometry relative="1" as="geometry" />
        </mxCell>
        <mxCell id="pmMBrRk4SSzDKYRyh0Tt-8" value="&lt;span style=&quot;background-color: rgb(255, 255, 255);&quot;&gt;User&lt;/span&gt;" style="verticalLabelPosition=bottom;sketch=0;html=1;fillColor=#A153A0;strokeColor=#ffffff;verticalAlign=top;align=center;points=[[0,0.5,0],[0.125,0.25,0],[0.25,0,0],[0.5,0,0],[0.75,0,0],[0.875,0.25,0],[1,0.5,0],[0.875,0.75,0],[0.75,1,0],[0.5,1,0],[0.125,0.75,0]];pointerEvents=1;shape=mxgraph.cisco_safe.compositeIcon;bgIcon=ellipse;resIcon=mxgraph.cisco_safe.design.user;" vertex="1" parent="pmMBrRk4SSzDKYRyh0Tt-4">
          <mxGeometry x="28" y="112" width="50" height="50" as="geometry" />
        </mxCell>
        <mxCell id="pmMBrRk4SSzDKYRyh0Tt-13" value="Manual data validation" style="shape=process;whiteSpace=wrap;html=1;backgroundOutline=1;rounded=1;fillColor=#dae8fc;strokeColor=#6c8ebf;" vertex="1" parent="pmMBrRk4SSzDKYRyh0Tt-4">
          <mxGeometry x="250.5" y="288" width="120" height="60" as="geometry" />
        </mxCell>
        <mxCell id="pmMBrRk4SSzDKYRyh0Tt-17" value="Now" style="swimlane;whiteSpace=wrap;html=1;rounded=1;fillColor=#f8cecc;strokeColor=#b85450;" vertex="1" parent="1">
          <mxGeometry x="80" y="476" width="621" height="389" as="geometry" />
        </mxCell>
        <mxCell id="pmMBrRk4SSzDKYRyh0Tt-18" style="edgeStyle=orthogonalEdgeStyle;rounded=0;orthogonalLoop=1;jettySize=auto;html=1;curved=1;exitX=1;exitY=0.5;exitDx=0;exitDy=0;exitPerimeter=0;" edge="1" parent="pmMBrRk4SSzDKYRyh0Tt-17" source="pmMBrRk4SSzDKYRyh0Tt-28" target="pmMBrRk4SSzDKYRyh0Tt-21">
          <mxGeometry relative="1" as="geometry">
            <mxPoint x="83" y="137" as="sourcePoint" />
          </mxGeometry>
        </mxCell>
        <mxCell id="pmMBrRk4SSzDKYRyh0Tt-19" value="Live interaction with live data" style="edgeLabel;html=1;align=center;verticalAlign=middle;resizable=0;points=[];fontSize=11;fontFamily=Helvetica;fontColor=default;" vertex="1" connectable="0" parent="pmMBrRk4SSzDKYRyh0Tt-18">
          <mxGeometry x="-0.5804" y="-3" relative="1" as="geometry">
            <mxPoint x="50" y="1" as="offset" />
          </mxGeometry>
        </mxCell>
        <mxCell id="pmMBrRk4SSzDKYRyh0Tt-61" style="edgeStyle=orthogonalEdgeStyle;shape=connector;curved=1;rounded=0;orthogonalLoop=1;jettySize=auto;html=1;entryX=0;entryY=0.5;entryDx=0;entryDy=0;labelBackgroundColor=default;strokeColor=default;align=center;verticalAlign=middle;fontFamily=Helvetica;fontSize=11;fontColor=default;endArrow=classic;startArrow=classic;startFill=1;" edge="1" parent="pmMBrRk4SSzDKYRyh0Tt-17" source="pmMBrRk4SSzDKYRyh0Tt-21" target="pmMBrRk4SSzDKYRyh0Tt-59">
          <mxGeometry relative="1" as="geometry" />
        </mxCell>
        <mxCell id="pmMBrRk4SSzDKYRyh0Tt-62" style="edgeStyle=orthogonalEdgeStyle;shape=connector;curved=1;rounded=0;orthogonalLoop=1;jettySize=auto;html=1;entryX=0;entryY=0.5;entryDx=0;entryDy=0;labelBackgroundColor=default;strokeColor=default;align=center;verticalAlign=middle;fontFamily=Helvetica;fontSize=11;fontColor=default;endArrow=classic;" edge="1" parent="pmMBrRk4SSzDKYRyh0Tt-17" source="pmMBrRk4SSzDKYRyh0Tt-21" target="pmMBrRk4SSzDKYRyh0Tt-58">
          <mxGeometry relative="1" as="geometry" />
        </mxCell>
        <mxCell id="pmMBrRk4SSzDKYRyh0Tt-21" value="Streamlit App:&lt;br&gt;- Data mapping&lt;br&gt;- Data Validation&lt;br&gt;- Back-end automation" style="shape=process;whiteSpace=wrap;html=1;backgroundOutline=1;rounded=1;fillColor=#dae8fc;strokeColor=#6c8ebf;" vertex="1" parent="pmMBrRk4SSzDKYRyh0Tt-17">
          <mxGeometry x="250.5" y="177" width="180.5" height="103" as="geometry" />
        </mxCell>
        <mxCell id="pmMBrRk4SSzDKYRyh0Tt-25" value="&lt;span style=&quot;background-color: rgb(255, 255, 255);&quot;&gt;Data Team&lt;/span&gt;" style="verticalLabelPosition=bottom;sketch=0;html=1;fillColor=#A153A0;strokeColor=#ffffff;verticalAlign=top;align=center;points=[[0,0.5,0],[0.125,0.25,0],[0.25,0,0],[0.5,0,0],[0.75,0,0],[0.875,0.25,0],[1,0.5,0],[0.875,0.75,0],[0.75,1,0],[0.5,1,0],[0.125,0.75,0]];pointerEvents=1;shape=mxgraph.cisco_safe.compositeIcon;bgIcon=ellipse;resIcon=mxgraph.cisco_safe.design.users;" vertex="1" parent="pmMBrRk4SSzDKYRyh0Tt-17">
          <mxGeometry x="544" y="43" width="50" height="50" as="geometry" />
        </mxCell>
        <mxCell id="pmMBrRk4SSzDKYRyh0Tt-28" value="&lt;span style=&quot;background-color: rgb(255, 255, 255);&quot;&gt;User&lt;/span&gt;" style="verticalLabelPosition=bottom;sketch=0;html=1;fillColor=#A153A0;strokeColor=#ffffff;verticalAlign=top;align=center;points=[[0,0.5,0],[0.125,0.25,0],[0.25,0,0],[0.5,0,0],[0.75,0,0],[0.875,0.25,0],[1,0.5,0],[0.875,0.75,0],[0.75,1,0],[0.5,1,0],[0.125,0.75,0]];pointerEvents=1;shape=mxgraph.cisco_safe.compositeIcon;bgIcon=ellipse;resIcon=mxgraph.cisco_safe.design.user;" vertex="1" parent="pmMBrRk4SSzDKYRyh0Tt-17">
          <mxGeometry x="28" y="112" width="50" height="50" as="geometry" />
        </mxCell>
        <mxCell id="pmMBrRk4SSzDKYRyh0Tt-59" value="" style="shape=image;verticalLabelPosition=bottom;labelBackgroundColor=default;verticalAlign=top;aspect=fixed;imageAspect=0;image=data:image/png,iVBORw0KGgoAAAANSUhEUgAAARoAAAEdCAMAAADkaFgwAAAACXBIWXMAAC4jAAAuIwF4pT92AAADAFBMVEVHcEwrKikrKikrKikrKikrKikrKikrKikrKikrKikrKikrKikrKikrKikrKikrKikrKikrKikrKikrKikrKikrKikrKikrKikrKikrKikrKikrKikrKikrKikrKikrKikrKikrKikrKikrKikrKikrKikrKikrKikrKikrKikrKikrKikrKikrKikrKikrKikrKikrKikrKikrKikrKikrKin+/v4rKikrKikrKikrKikrKikrKikrKin+/v7+/v7+/v7+/v4rKin+/v79/f3+/v7+/v7+/v7+/v7+/v7+/v79/f3+/v7+/v7+/v7+/v7+/v7+/v7+/v74+Pj+/v7+/v7+/v7+/v7+/v7u7u7+/v7+/v7+/v7+/v7+/v7+/v7+/v7+/v7+/v7+/v7+/v7y8vL+/v7+/v719fX+/v7+/v7+/v74+PgtLCv+/v7+/v6JiYj+/v719fX+/v7+/v719fXo6Oj+/v7+/v7+/v7+/v6zsrL+/v7+/v7l5eXT09OoqKdMS0pnZmX7+vq8vLuurq36+vrf3993d3bi4uL+/v5lZGP+/v7+/v5HRkW7u7uPjo63t7ZwcG/q6urExMTNzc3+/v7+/v7+/v7Y19fc3NxTUlHExMSFhITHx8dTUlHt7e3+/v7+/v7Z2Nj19fXk5OT+/v7w8PDIyMilpaRNTUzg4ODp6enU09OJiYjm5ubKycn+/v7o6OjW1taZmJjGxsZWVVXS0dGSkZH+/v5sa2p0dHN/fn7+/v5APz5LSkrZ2didnJz+/v4KvvULv/b2/P79/v7e9v0TwfYPwPYcw/YXwvbm+P7r+v4ixfb6/f47zPd63Pqs6fyE3/q97vzy+/5/3fpm1/nM8f03yvdZ0/hq2PlK0Pji9/6S4/ud5fvp+f5BzfhT0vgwyfeY5Pvu+v5Fzvja9f3E8Pyx6/zW9P2M4forx/de1fnS8/2m6PtP0fi47Px02vm17Pxx2fmI4Pph1vlW0/gmxvfJ8f0ox/eh5vvO8v3P8v3Q8v1u2fnh/rT9AAAAwnRSTlMABxsaBAUGAQIDCggPCQshGQwmDhINERYTFSsXGC0oEBQ4MEU8HyQgMzYyOi8pPkEdQCNHSyX8NU1VUklDUL/kFdRPChL9WPhgt4n9r/7xY6UFD+5MfHUB7K3121v64ALJLYbOUrrEgdo/b+jeWDlqLx3ptDLKyapGI5+Pml2RaIxVaPNNQeTFcLeNIbs6X5s7eFHUWK16KDa6pTCfXqdA2JcgecKHGNyFYiZ2mJBrw2GSpZ1QdWS3endbQXdeSTizhfKRIh4AACAASURBVHja5JtJTFTZGscb6ilqyyiDUKVgR6RtG0NItJe9Mr3olJu3sUhcvZCQyKLSCVtYMCTGDRpWbV58CZBW0NfGYeWiX24xz8hoMygoImALju3Yeef7zrlj1a06p+6tyf5Wwq2m6v76//9/3znn1hdfxKxSoHZA7aT1D6XYL/AivuyLv0nJTCiNbdu2bSeVhPUlKfov+B25RDn9HQgpTHYCEyRCYKSm7iKVpin4OTUVOSEiKiRK6PPUClMKCgWgECZpaZmZOTk5e0jtVgp+Ir/MzCSQgBAA2sYAUQF9dlioVLRQAEhhYW5ubjatvXvZP8ivCgsBkhEQ8Plc8GjUgljAPkiFQAEke/cWFeWTytMU/FxUBJwIIQII+KDFEI+qns+AC8oF1QJiAa0AFWSSl+d0ulwZfuVyOZ3AiBBCPqAfkA+qRyOeROdC5AJYdslYQCr5wIQwcDiSaZUpxX7hcAAiQigfBCTj2YV4mHgSk46RCzURYAGtABWEQkh0eBsbWq7XYV1vaWj0dpSUFBcXM0gAyOUE/VA8aC4DnUQUDPWRngvFQqA0t3Re9dRU10t+VV9d47na2tKcXoKECB+KR0+HOiuxpANgFMGweEEuiIWIxdvS7qmqkEJWRZWnvcVLNIR4HIhHpoPBo0gnMeCoTmJGolyoXBzJjZ2eanLXbndoMuxF1Z7WxnSGh4pHpkONlSi+0jhJw4XpxdvpOSOFVac8rc0Uj0E7KB3FVwkAZrsGDOQLcGmorZKslLuqtkGlA7mjgbM9zuH4gVEE42i42iS5T0jW2EhS01WkQ5ylSCcR4LDwVcCAk6hgvO3Vkm1V3Y7OkqUDvtLBicNAZmBYxuRQMEQwyXVtJyRb60RbXUc6SAdSh8LJ0WZOnLFBL9GuxMBkIxhv7feS214ykrun50wtkw7CydbAId0qrlylB5OpgGn0nJYiUj3u057G9HQdnMx4hCOHTFKSHL4IpqHSLUWw3JUN5SocOZBhRI4bV+kkQ9q1DKZNini16eFAK48n4SiSYV6CuZdYqVKKSlU2ynBgRtZEThwIB8gwycCEVwhzjMvrOSFFqdweGsgZLphz0FWKcGLKhppJ7UvgJde52gopauV2V9R2pJdgKwdXaYUTS1NpzITxSyTjdNU1SW4pqtVUdwjgUFdphBNDU6GZNJLJJpLxVkYbDAw6lc0YOSAcfeLEiI3GTEwyeRmdJ6WY1MnWY1Q4cuJoTBXDmFEbU2ONFLOqYcJhrYrMOLEKHCVm0Ew4y7hiJRm2JdiKiUPTuBBNFZPAYT1bYyant1KKcVV6y9NhSe7UmCrqXVwNYOhMmL8t30sxr6aWQ5o0VjtVFNkoZGjMQP62H5fioE63ZylprAucaLGRA5jGDJjpXKUUJ1V5EdKYmUoNnOg0qhSVDMYMWUs2VscLGcldfYuaiqw4WeBErVHJrYkGMI2ZU1L8lPtUizzi0MAhYRylRuVPpvO4FFf1Y2sWdip/NlHJGUaGxIyjVoq7qs06JAeOhk2E80ZDBluTM9kjxWF5Slng0EYVDTasa6tk4qc1GRsVBo6RTeTixp9MmxSn1RZdNv5kaqS4rZqLx8qjxiahyACbrKixSVEmvUQgg2xIGCc7FDZszRCR5qTMwPGdM/I5XpuWjTwXR6BNYduGFaU8z1RKcV+VBXo2ZK0ZgRZOg0Ylk3Ej/sm4e26UIpsMlY39caOQSWNk2qWEqGs6NmmRYCM3pzRYaxMydVKC1G1gg30K1uFpcpuyvzmlZe4pzC5yZjT8kChofrhC2GAPL8ou3JOZZnebAjuxtg37MxneM4lCRjr+zzuldL7JQzbYpuyzlDaCYRfi3L/s+NDra2sfR4NcH11/st5jw/v8crEU1gy4R2F7FOsiOM/lsGGx3f16xEdqYHzY5AULc4Pk+uBcr+U29aOnYP8x2KNw5emi2L5ZDyMYm1Or9aPbd+99rEbeBXzBy0F2ve+R9dHvMrJR2hRGsS3TDdpJDhpCptH6cxCTfT6lBj8GeMFal/qCccu6qbilaVM0buyxlBI0NILPVVkmMzzg09TTbr8X9PZpX2BdN1UXGRsWxTZZSmcnEjQ2TMETPl1t+L1gWXe9b8HyO97Yh21KjhubLMXsRIPG5bhuQ894r0fz1tiH1vXXfdPW3/J8QWkWrKZcLG6opWy0k9OWiWbVcOe+WcMLpg3X79kx3chRbJulSAbLdoKgsWWTfNOIxhgmS4br/TasND37CpS4USxlKYkjYCc/Ufj1oD7jC7ptYHNejhubLIWiYXYifftckx1o3hjvfE5/fcp43ffAhndt+m0fxo3cwcFSVmSjigbtdNWWZc1j452/0V8f8kOzYMfb/vwtxI1qKWuyUTMY+3ajPSe494x3/qdhqvFDM2TLQvMWxA3r4JaTGBfcaCcImjKbtsnfG+98K3jvtsdQklTzlRo3aClcglsRDbWTMyPZru2rEeOdz+uvP4sQGuk2YSN3cLRU+LJRRAN2Su5osgnNgPHOH+uvf4oUmqbfSNxAB5ctFbZsFNGQ7kTsZNtusB+aJf312Uihka6plsoutCIbWTS7c6E7eeuFP8nUX7MLYaB5x4NmtLdXfNqpv/RVAbVUXlHu7vBlIzduzODkMtHHaHo2l2BnYWBu1n40K4tj/T5f19gjUTo3v/mWDsWYxGE3cI1oSAZ7BXdphtTpZX4yRAwLolmZlve5fA8/in2qijvUUpDE4csmJYUmDRENyeAywWlvSNeht54Fbd5CaEYXtarreyI4933NBj+SxCgbkjbCI7EiGtK4HWVewWfsDRNv14sV9dpDK2hePtVfGhkW2/C7BLKBwQ8aeJiywdWTIhrBpLnrd3cjm+bT8GPuDtW75XftlWDafI3DjVY2omgwhBXRdAg+/jrv86/5dXZxLFw03RP9/n+2b0pINvWXMIk1shEOYiaaHBRNcacYmdEAt+Dz9U93B15eGqbhjyZonj8N9Fd9k2Kf7TLIBpbgIJucMGSjiCYXRJMu+DR5ry9wvb0LV7dCoPkrIJrVZZM/KrirXn34GzoTO+QmJSgbCGFVNKI7WKs+s1p6YtwU919eBlpDDY/3m/3JRdFtYpRNuUY2gmh0ohF9yqjbZ17zz/80/mo51Mr72cSg+R+8K7jd92sA2aSIdm66ekoubhb+1vZYEDa+rhD7Nf5o+oP9OdF9rhMXFNngSkqwf8udm4pG/FH7DZ9I/c5rx0D1WPjD3dTKRrh/Uz/l7EbRlIvvRkwNiNzdH3whHliCk8If7qcDSpPKz96dI+YoFsIw7mWUlbSEc6rdHx00XeGc+l6hsikpy5DHPn5HoZ9g3IMld3pYZ09PBHRj2DZf4P8vB9fC+WxnD1PZlKFsMneJOIr5CUSTXNJRH87bS0Nb3Dc4E+pEwazGVsP6aPWXvqMjcTLIRshRsp9oCId9LHe/L7Jo+jdGwz0BJ7KBPS01iHkdBX76kvmpuDz8s9yF3yOJZmk97A929sB3av+G0YbbUQQNDjUQwulh+onW84eRQjNw38JzfvUH5f6NjiKjDTca2U9ENOktkpXSbzzxoXnA0Zjmhi19rCtq/5YdlcIdNeAnCOFDVg9zh191CXao0KpZmrV6yHtADWLao/jCRvEThPAx61/hXl+2F41mVyzcqj6iBrGIo6B1g58whJvtOP+ZHLNvrumbsOGREunCAXUhBY7ibN8pWj+12nI21rM5EuRu5/izpmvGlkcDpMv+juJBQ6IG5z30k13fVe6eMJ9yXnFvaeiPJizUWb2jSPveuYM3amh/Ks+y66CbRMiMWR5PGF5p9rp7k7Z9mJ8Oqo6CHsUXNgRNUqrsJ5GoGX05PjM3MWkeBZ8e821GBR6G3m6aTjIrH94sjS2/HhIKG52jUpO40EDUyH66zf9mcpz0zZgfKa4F2vnuMp7bzgRaSG6YIh96wbzaP86f0OfRUfsVR3GFDUYNm/eybnBLRns/y6ZzR/dr/8jZ8mtoAdLX9GGJqWnNX1xa4f28/zuim/r4woZGTXY+8VN5FveDWIZnF/8wFXevcWHVNRvyGGtslnfa3uJcPhz/z0HiqH0FeP6dn03DhieFSdTg+ulQKe9DAH7HlX3my+JJfZa8DrAu1bX6gQ89/Ab9wPtgwNEjmnUUCRuOHIYUJlGD+xHHbvGK5l6AfmL+v/rD0xBfXFlVXzA4YXo8ORsg1t/zfuJ/HznMzngdziIIGw40mMIsanhTOOCeZdcL05savTtPO/RTk226KRatDxenBIeBd9w5rA0brhwmaNSo4T1LWDNZ7QTZn1x5uTix+MQ8GlbWNjY2zb9DFyjPhU7sbhrDhgcNWUCxqNnPezb3yGx8Xbb8BUGTbHtv9o683yz7VR82ZBkVEg2mMJtqSnm/FmZ+7iQ/AxC63k2Pv+TsL2azowAa9y9HdWsFzOGQaNSoKT1pVTXKMwCh6gEe997jSYoHc8F2gO7z7vQdNYZNKDQpO0gK78klUUMWUHd49f0p6D7CfOhd3I+sXfeHPFcaXRwM+mbchwwXMGxwGZWRT4a+pG0hvs3BUhgXUFlXuL0f/GRF97xawFMr9XZf9FjabZ7n/sj/PapdRtEcDokGBj4HpDD/CmpoJMQu96NgByPPtd1mJgib1VCHW/38uxbnIWzY4TcMfRxoIIXpwFd6jb9l/J+6K4mpKlnDyfNhtNu82I6RF+gHaDcIgvQlQbjXjcmLC8OKnQl7F82GBRs2DAt1I2mJC43TDnvxNHmDGtPxdeByAaGZBERELooMKqJAo7QTXdM5p6rOUFWnzoXr3ZkA95zP//++f6q/5kXl8Tl3ylliu8Cv3FAc6he1i6MKEyUX85mg7xsoUd7QAIECsTBmYZURifaHwl7jghQyra2jjtjE4j3CDsySysAEw8Pf7gQS5Q0NFihUFt52QKnE17Yq7gQsyCADoiEHwZ8VQt/6VKk4ejp/L10gRhK1SQSNEQunKk5jzYobcmM2LhhwcpIxHpuJV8I/Pac2GlB2o5CNh2WgQQJ1EAhUqurZMImGXOdLlmXjzjHKNIvNoPDvepS6XD5NhfkZOWRSFkmUEBqg3UaakKq+I2FqWDgD8IrGJu46bEW/6WtRly+6qn4uqLmASxW+ThFCA7QbCVR6qp/2XPcjkYz0O7/z5MAsHea+sbh4QYTMUz+TAT8W5NNFUKje3tBsTrG0O63cV+o389b7VaLmiwxSP/gKmslgl0MLZkrgTX3+Gg3lBbx6p2ze7AkN0e6DQLvT/A5JzHtHZquGpq3YAr3PFDYGrfZ7t3k/+ByZaDCgQeNZSL1F0FjaneZ/U83Cey8tsRPNtOE+S1TBjrxzT0LavLHjEV69VaDR2KPmFeVECQ7WmEDUSgqp2YGPwukAnXLQUQhNsRo0Rt59IE3rkj2PQsUQX1CedNQszCEeY8TjOs9XESnkcm8RNKQk8b2m1bidQ0EfYjXWxpFO639/0fqxF6LpgPcDwUDzPSlLiKExgmENrun2il5XyA9R24/GDK4Z6bRR0opX6vGH70c8HrGFwyJozGpNap5fhWp72SUzQk3vzCIK9emevaU07B1B+t3F0RAp5Co2AmjoPCHPX1zT8nrFOxAZdGpEvINS87rDod8riGs6h4f8xTURe6bwVwE0WzA06al5viZIBkUpMlWIoxeK9bUPPaL/aRUGlwTRcI+vadCqSAGGBo/k79iiBI2PPXMfx0Q51Hu6dECD0UXHQg+nxDmo3uTNCS1olLeyuI8XWdbAcEPsgctPscOvA8KkdVQ5wmnSgkaxXtPrzb6YGLgKnjM2b/gYd75P9Jc7lhXH8qu1oFEb5JsX1+FG7a2Q2CMHZOxv2bssPEY0qbYp4LQWNBdUvioufPYx59kJmzg/aZMazLEnIP0qhnPBBzSWeCt0FAT5sSdVLnM84ybGg0KvmlbQ8Yuq4s2EfAqTfMOiEXGv2sF41E2b+EKyqPo8Kv3A/6xRDfmYREG+e7kg4kjv2sHzDjdt4ilH1HFZkH7k2+qJApVeSve8Y5Pe51CEXZARI6YZFbmE12y2UmP3jnJ6SRclsmWrEoNqDRanzuQiZPEumVOm3V6TElFZtqkIKxcl6FJWpmzdfNlDUmU7it3PFuOS7+U1XyObiv8Y8lHKoqCRjfkWXVut437PR3p/ns8Jc1dRxBdSL4BSZfPMC3r6FF314NS29seesE3Mz/T6qHt8knzkc1nKZXO62ZJ5TbYM4ZwIuR92m1h+CAgjOv3B5e17n0Fi75wen1CknA5ZK63JUm22MC26TFn17nZ4yq5nrpHMRL+pMpOOHD1h1kY7H7jnjZ+nNQKb61mqLTqmsZv3f9ldse/sz+gq2G3LtC90OZjWEB32dnp4pa1oFpU9lXnsbpZyY5fJFPbLVmzaOc+fc9Wl2AcuaHPYkbbKj3TFZKOcRelqTSiiPA5AD5Gk7T8tHQ53yo0tzPaJDtG1tMzY3LPPXZLbnwqHlhzz7lDExxAJrd7XpOV0xAyIu4ZdPeCxU6Ohq1ecqXoF1AtGMaTzvnQhtKzRrt0iaJiBtbRM6fMbQFRev+uJRnueusdtbjE+f7TMse7T5Z6GxRYeTHbd67uv0ltALKw2sMaMOaZlZuusTeDTZrdGA9do6+0MuPHv1GkJ27V7o8pwbGpednVQDzM/JtufdW9yP1wI6mmqQxgateFYaqQaSNS/gnmUqUWPlJA7sTujm6pKUM3FkK1aI4aGHsQ/kLb/v0E8SSzu2WXjJOpza+LPwF8P2fJu4SA+e3wjLbO4XP85ZgWFS247wEhrwjcnlBdlRZSPb7CHflIzs0/rPsbjt4qbSEZEP7+ivW/jtMHCSod+mKNigGx+0nuIofvitVCvFKFpbX3yUe+pakO2NEHiqBhzwBDEw1d05o96n/WI35OH5qPEr0RXpzQeq6LOFgvLHTBMYchGR74H5qS2XvmABh5x1pDusAPVSEBDH2aG0Fzz+wAjTyRXpXHQfJL8tTe+B/lqbAGf3GFm+gg8JBufHjW02tqaWGh8X/wI/ImnGqkj8OziBEA2xb48amay1S80n+V/86kvxqkucqAaicUJ7LoN6FH/8/Ht8yr7UTnxnlf41Tkf+xzLamxUI7lug1nSkg4imys+riRZUXg9fvmcCjStPerBcUNdmCt+yi5pYVb7wDSq+N/K336/da2g4UNpic/5Ij6Bkl7twyyEgh71s+qXx3p03k4Nmk5lurkO/cnXQih2jRjMFXKaVZnG60xX/xNlaPq94qMBxYdrLrJlCbJrxNjlc8ijVEOb5+562/+bfSO+EJr22IcV2ZKG8NPo4E+yy+eYlYXIo1SJeMBVix47NWZW2d+2r31/DLuVHZr7NYg8QRLmysIKKwuZRZfIoy6oQTPrMtb5h3PPSgaalpbut4Gc4Tjn4E/yiy432TzqrFpE3Ob0P9w1HnNp5/0ugoYEL87nmdWGGyvqXfxJbqsus1QXeVSGYtXGIUmwFovZoFkUQWNUPWMOqzZW1Grp5w/Z4z35pbrsKmaUR+VcKlN6gG7+FSYHPZrAQmisbq3dq9QS8LJTRXz+pLaKmVngjcqgGTcUNSrKHsLubdGBhvYZzqtG1Z7r5KEwzp98L/Cm175jIlY0G3p0Hgq25+hAv6ijMMjW4Hu8Vyx4Gw1Hwopr39nLAjARq5pNywvSd5p7+ZtoqkIIDbcSoW28x5j5UmzanTzCk7DiZQHcFROIiHMuKd89PBMfHo47HE4fVYbGFvD2LvSPvvt9QLW1UHHqUJgdxlK/YoK5mAQTcYZ2a8EVmmFlaHx+zkOjYcbvlS8mYa+zIfp99vi6QfM6kO+NHa/nlVv9OhvuEiRsNrn/+cKhabl8mFVuf5cgMVdn4UQq40pVgqDhEsT2BDlU1Rmo3Ez65OPqLO7CNWI2P60XNEuBfG+tg9GoX7jGXdNHzGZv9TpBMxvE11aX8kbj85q+TU5mc/ZoQqBZFkHzIoBvPVrvbjSqF1/SV4ISkcoNZNrmrQAa+6aEIC6VuIiMppCSJ59XgnIXyeKQOCcjvzmAh7QdaHjJ/UCHy6IFnU9zyRFkNOY8rP+LZLnrh3GPNyf3UoX+U8ZF2jzm+2ica0hTcaoUxzQ5+tcPc5dWA7NBCXh+AC7V7lKpMj/8epd4EO5kZE9BXFrNXnUOu3V5wGzym/Sfkzta0Gdr8LGtz44p7W9sKjlspNwBXHVumQ0QKXLgEAr4Wf1x2VlR1DLuFSz7+DTUlzJ1GpByG/Lkw2gIEWOzQQk4ZuLc/AACv36PojmiBrof06evT7WlRyzh3vYdSrmx0fggYc5sdm8FAo5rWrn5v+qzIoXNqlPJpc3C5om+O90qOXyIrmDt+8vW3TpGg80GxzYgkwJMTEqhe+9e1bcb4zT7Q5ccIPYM8829l/oHFK9Wcu50cAPOnhDT+ILGNJvtuzATk5g4/2wAA7MtL+L378c9wty2peFHw88DCPbK62l3Sv8Oc/Cu7RpGQ5kNFHDsUii4yf85gOhmrT7HblvqhEKafZCDd2zRMhrKbCATUy6Vf+3LgaaxxEgrKXcCHKxlNKbZfLUTMrHpUiDwK7zwhQBTdquklCqVE3cCHLzzKy2jsQQcuhRQKRz4QbqJ3PgyoLlRCZAJm0QDgz2gTtidNuogA0JimEkhl9qxB9HNNkI3QchU4j9Xz1C6jRPurX8H6gTdCWVP/qGhzGYXRTfZGUCmTiQ/MiduEqIhpQhCNLsCMBpiNhu/plwKBMWIigvvVCU7MlX1AJkiI6LBYbDhToCD9YzGYGLsUkTB01PTYOmm4FJ5ciNTfgpTMCrSpEGiwbptuJOe0dhdCtENzsGTHBuMjJlvI6IJzp0wNKZLwaDYpJtkx6b8VGUpHethotmNkUHupA0N61KEbggVJy82MYCMIU6Ygg2iCcydMBMjlzIVnGBTDLFJVi6uqreQKTaRIbpN3EkfGtal9lhUDDOGyJ2k1PDmm5UluBi8F0fBmIL3BOpOtEuZdLMPR8UIm7qm5EOm6Qy2GRoZk2gCcyfTpRDdoOgGUjGFzd2TycYzJzlkQLqNKBhGNCbRBAMNwibFoBtExUimYGcKYBM6l1zQnAPOZCADMicsTiYFA6JJCQ4Z4lIwujEiP1PCITZZNUeTx2QqamlksklvxYj1YEQTnDtR2CAqJjKFO1MEm+tJI1RVv1TiSI9CxhAng4IDRcaiG1OmjPAGYlOQVVedHMhU36w0YmALGUucAiYaOxUbEo6wQVxckBW+fCwJip2XK6FoE2SK93PIfJMQZFB0AyM/GzZQp0DslxW6ve5OVXUb0QyukUNtIshssJCBsd6mgJExIj8oUxibDTw2deus4ieRMx0KuyKDKDgByFgyBSScxiaVYBMJhWsa1g+YhtpKTDOwCpGL4xkKGSLbAVMwSzdApmzYoDy8MJIVvnNjXU0G0UykEOXadmSIOCUCGjs2KL6B+ZQhVKFw7brk4uUgmDGdCUsTyA5QpLcmyLhgA3IGLOLYqep+XXOpOnbrDOZf7Ey4PpMOs4M1Q8YVG5OMgVOFwtfXOOFs+sU0GehMhIDXGBki4Rw2FOFgpyqqXUMdr0L0i0wGOBNNM3ZkNiUQGQYbEt9sINgYhAMN53DjGlFOeSMEBglTVsSgGSzaBzeYkd6aIIMknMIG1ShA0vDDNkjG2KmQ4dRdXgMhb7h8BgGDTQY7EyTgbT+AtAlVIShkNicaGUQ3dmxMwkFOFcHgJNZyyhAwhi9Bk8nNoWjGAZlEQwOxMWM/mIf/Y7dFOESpCgk4jQnknKpGZDEGMIVYmSiagfUZMwaG3pRwZCy+Adj8bef2b3cYhGM4lWE4AJzDtQlSqyYUyGBgLJMhzkRoZsef3Z3ZTxzZFcYrER5NFtsjTzwajeIliQc7syke2WBn5AbSrDYNNG4W0eygbgEaI9Ro2BppQh7sIIgfRtiMZI3sfmCe/WKPJSNl+iGv+Zdyzzl3OffWraYBh8XHL9SlqrrqV9/5zql7AV94X7xrazLBgYSs4TBHQYWKJxUJh7Lqq2s3Hvz7jZvOP16+1mAol4TLgGRUNyOSiUoTzEL836t2BJuTp5ThsKQSwtFZJeD8fem7xBu0mO+W/nXzpjRfk0sgGbQZSCZlM6dOHjgZyQbmb6ThYFLRawO2ONVKOeA5126sPPnxzYD58ckKYAEu4DGkGAEGXUa8GkBlomQiA/7FiYoDJmMKlTScDz4k4VxWwoGsuqTgCOkIOk8b9qmXp08eIJdbN0gwCOYS5BK4DPjvZZLMhx8wmzloMqxQScP53UXlxiAcBUcYsnTkazf+9mLpn3uu53fvL70gLiQYyCQG5hxKhhpgSCZmMwdOhhUqk1TSjSuhVH2m4VxV0hF0bj14eP/u7rE8fPA140KCuarAiF5GFKZK7b86mQ60NEWZMSQVc+Mvr0NWCcsBOMJzBByUDtAReFa+3fimTD53v9n4duWmwkJchGAQzKcABuqSyCUpGfJfTKZDMGCv4VClQjfWwtFw0HQYHcRz68VPSxv3n96NqF2Ju0/vbyz9RLVIYeFcLmkwIpeUZCCZLrDKdHhkuOFI4ZAbczifYLUS0gHXgczSeASfW3+9ufL656WHP2y8/B7j5cYPD5d+fr3yNTCRVBgW4CIcBgVTXQ2ppMFI/7Ukc4hkTBWXwnmfHAeyyoGDrkPaEXQIj+BDgASicNxCKEAFsRAXoRcSTPUVBoZySbqMlEzFrw4XjJ1UplRBVqHlEByRV4wO4kH1IB8AdAMhqZAD14gKqgXlYriIPkamEpkM5ZIlmcMno5JKlyrqcRQcUg5K58qfgY7BQ3yQECGy4itkIqkYLIKLcBgUzEegGAVG9jJMMkeADBcO9H9gxzacM5+TdBgdwgN8ABAScuNPBEVQQSycCwrm8zMOGMgl0eUdGcl4hANZJSxHwzldiXml6FQTHlTPF1cBEBKiIBoU8J2rmgpgqa6WzvBJHgAACXhJREFUXIRgzl+vPG3ACJOBJu+IScYH56wF5zKYDkhH0SE8xAcAASKCRAFbX1AgFYlFcxGCERZz2QJz9oiCYVnF4FBaQSlX0gE6iIfUA3wAEBAKxacERVAhtSAW4CKslwQjqpJMJQ3mSOUSZyMtx6SVgCOq1XtSOpVKOxrPlWoAhIT+oDApJMBEQEGxEBapl0opmPegKiEYmUrKZI4cGZVVDA4YMvQ5kFeGDoqH1CP4ACBARJAoqikQyid/1FjOn9dcMJNEH6PMV4N590iC8cIh05HSAToaD8nn3GdACBCFQjBBKEBFYQEuWjBoMccEDIdzgsGR0mF0EA/xIULAyMQ5GR8RFcBicZGC0WBOHAMwDA5WK0bnoqQj8YB6BB8CRIh44OB5pIJqISySy0XGRVal4wCGGbLOK0c7Eg/xIUBnEBIPMXCdtHL6ssTi6EVn0tE13yg4Kq8osRQdEg+p5y8fE6DTX4qoZAHbpwmKoIJqIbkoLpRILJOOCxgnr1RiGToSj+ADgAQhgQiCcEB8jEwEFBALYnG4GMG8e7y4WNLRdNB3CA+qB/gQoF9KSBRyAKAIKqgWwoL+4nI5fmAcOphZyngAD8gH9AOEAJETvwcmoBUQi8JCcsE8Ot5cLDpSPMJ4UD2QXMgHBCQIASMTsH0RpIJUZBL9+iTaC8nl+HPRdIx4SD0oH9TPby8IQgIRBtDAEEMXAApSOQVUCIuRy1vAxcGDfBxAZwUigKQCtsSgA4Wp5e3BYicX8JECQkCYYiLJWMA2MEEoUipA5VCSKH5vuzubfbW93rm345Ob/d3ZrsnUQnn6kYQqpISAEcRvkAbEO+9IoVRoJoeileTymv6Fpoax0cdyuL4KIl1v7TuGg4P28Y2t+m8R1zyfNd/I485Vk3znFI2lFCFgNHkHYqC+oqLxjhN0DXBgjg6sjb4Peeq6Hnt4m4ab2VChhsZGxdejVb6YozMOOstjObq7etrMDfHPqSMAbGSo2Tl+bURfKw3E+AnyNJbnaGJIIVMBaP4r/sn4jwjcGZ9ECx1YAk1OXsC8PdxMo+1mpDZNQx0A8bZ3jbAV9suGFxCbOhmaYldJNDOZ0OFV2aRMUxLTABPeUC/tM8WA19OfTe8WXzYW7xRDP5KdKA/NQgO/rRJo4sPykeFletEk4BzdUcg0mqr5Emhmp3xnzsXpu6202W+On1C73GOKp5EFROOL8tCs6kdTKIkmKc9UR74aqZoR35+9Slloir0zkWhG2vxr1mukm2XamjPHP1d7jJoxAlgXRKEpTzVxcym3S6HpWZSuKO8qUjVz8uuxrvGJ9fGuHKTAVNJGUxxORqCprdH7pFvzi2vm6vI8Vdr08T3al+rMPfUZVhJNOmZFRzlops2N9cZLoBmlzTbliBLNmP2R2SBOpSkxrVw9vj2mHqhBU3wWgaZV1bVF+qDk+Jg6ZBwHYo4xzppzLjhmvcnQdHtufSc0deyht0ejmaStAX1Jt0MJbqU+U3zQM74QQlPc9qKZV09pwhTyUeUPcXYhzwP7kUHokk4Cr+nZHxq6kwF6WGORaBrJqxPLwU5o+qVofB/G0fSN+NBkHG1iPJKH4DkLCeOjzqON2TWLhLl3NOQMc1KW6xFoJppCVTcKjSwO2Z3QFNOdYTQqOxq97QWZiUwwCe8xL/H1lnDn94dmpkqeZSyUBgyNqhr5YGc0Ms/b1ndCU2ztCaGR2ZFx+4sqhqPLekqkKNl7L/OaK516z2joWgaHpBsPbPnQFGSnkUuWgWZL9nsD+XtDpdEUH4XQDHPDDdxiTGYyImtcwI5YzvEnm+Ybe0WTnFJPoLPPzQONRjXBw1YBi0KjSgh4aUdzwYdmuI13fgxNklqiprg/SxMd7M4T+BRnEtQctzOhjFhd4V7RkGdWzWhXn0qG0KgmOL0VeNDku1igT05YP+c8mE8lXTQdjQnW+TE0C8VwNeCOkuE9arupV2vBVoOxF8q4gU4LTVecR8/OaOiuc8y7+l000/IEbY8DH5pw+60LihZPttNBo+4uAZ0fQ7Np3jacvlQ+He6yOSPRaXUnz8xNrQUWGjvqd0SzyVK7p46nsEGjutNEqlw0Qbv7nxtNpRw0yZjp/BiaCfX9UCSYIcna3CfSrhb9uUHo+ZVuZSjHitP7Q2MlkXwrnHXQFH3vPaXRBIW88+dnEpM2mmBLEV/evWrkZcMTbdd59lhfPRWUxMy+0NQ28deyWvLAxSg0xUyyXDQCwnSLRadhwkYTrA+ozm8XXjNs9QeLquHpNuYsysiafY69oSFTSCxY3V9TbRQa+/WzNBp40vPZYePIGQeNaviL6cHdVij19jg11Nlk3p1WJZHOAbs53ROaJIk60ymjkXcbFpoBj91INKktFqEP2WrX01IFB03QYV1s+X2N2VxvZE2y9KlCv9UsazR1rTziO6AZ90+M1CRdNLnZvrDdRPY1TjQ2mdvlaHridWE0o575TbcbNpd2e471YtKcJ+e4K+21r4lF/O7HuIMmE9dfM7spF4263WlXNcHjthCaiHeoVmdChgpTMd3GgZE5Z2hsdV9oRqJ+fTFmo6mrN1PTzG6i0cw6solCE4wnXDTyzTthv3m/4m/eoaea9iXBxL7QPIv8laERjmYQkyg+5tpNJJqtgbmCx69TYTTcysuYr6kx7jzJrnbVntqjw4f2g6Yz+j+dfOaZyir0OnYTiSYrbHvxnl65SZHX4GqPiyYZc9HsPMtHV8Oudt1dGeEdyJ7QSPCj/TyoZvV1eiZAUw32rG4UGvnGWtMxmVpfT71SN98SeNCwmWDf3PDcs3xLm+929aSNtcbSHrLL8tDUWdEaDFGL1Jv0Weakb0UhawvYPzcck2+soYWkTS8a3fmZFYXZiBWFWNKRZmiSeUt3UX3x3aCxo04l9aq9c4HOnh7yoBlqsezGv9hSVK2JE12BH42etTfrUJu9vhO02G2gmSxnS1qZomdFbfdoZGI6r9Oyy0bPDC3RKa33FkqhSdV41mBGe6LQqM6PrV4WSqxehpZYuOxf+ab/d41GLllmQg2acYbwwu7mALObKDRB/JELZzDlTkrw9wnPmne7c4bYbOi21MJcR/hNq2gt8O8ajZwwaQ6ZKKm5YcGHRqt/tRQacZL5fNq8ZMS2k0EJNMFCm4tGnKE/5/9JidByrvVOkfZMLe8WTZoItIXe43pW9TKPB41SP9hNCTSYfRPtj0azj5rX43v9OZTNbXGCyfGF4G2J/wE5N+4GTBz28gAAAABJRU5ErkJggg==;" vertex="1" parent="pmMBrRk4SSzDKYRyh0Tt-17">
          <mxGeometry x="512" y="187.05999999999995" width="82" height="82.87" as="geometry" />
        </mxCell>
        <mxCell id="pmMBrRk4SSzDKYRyh0Tt-58" value="" style="shape=image;verticalLabelPosition=bottom;labelBackgroundColor=default;verticalAlign=top;aspect=fixed;imageAspect=0;image=data:image/png,iVBORw0KGgoAAAANSUhEUgAABdUAAAXqCAYAAAAWA4MeAAAAAXNSR0IB2cksfwAAAAlwSFlzAAALEwAACxMBAJqcGAAAyGFJREFUeJzs3T+oXee55/H3GBO5cCIwDOOAC6UIV7cTvo1gzEWlyLBBhSEaphGGgKZTkUJTLDil4BZWKQIGzVRiPMyoCVapYAZUxKAqFpch8mDGrjwocWEF4/PMWtnnJJJ9pPNv7/08a63PB779Pnuv9Sb8UN60BgAAlBNdezP7MwAAAAAAwChE1/5d33/K/hwAAAAAADAK0bX/03c5+3MAAAAAAEB50bVbfd/2/cfszwIAAAAAAKVF1y72Rd+Oq2AAAAAAAOAloms/6vtyd1gPwzoAAAAAALzE7hUwe6P6d32/yv5MAAAAAABQ0jNXwDw7rP8y+3MBAAAAAEA5u1fA/Ol7w/q3hnUAAAAAANhHdO3290b1vWH9F9mfDQAAAAAAStnnCpi9vun75+zPBwAAAAAAZbzgCpi9vjasAwAAAADAM6Jrd14wqu8N6/+U/RkBAAAAAKCE6Nq/f8moPvSVYR0AAAAAANqBV8A8O6y/nf1ZAQAAAAAg3QFXwBjWAQAAAABgT3Tt8iFGdcM6AAAAAABE137S9xfDOgAAAAAAHEJ07e4hR3XDOgAAAAAA8xZd+w9HGNX3hvV/yv7cAAAAAACwcUe8AubZYf0fsz87AAAAAABs3BGvgNnrC8M6AAAAAACzE127fIxR3bAOAAAAAMD8RNd+fIwrYJ4d1n+W/TcAAAAAAMDGRNfuHXNUH/qjYR0AAAAAgNmIrl05wahuWAcAAAAAYD5OeAXMXo/7zmT/LQAAAAAAsHYnvALGsA4AAAAAwHys4AoYwzoAAAAAAPMQXfvJCq6AMawDAAAAADAPK7oCxrAOAAAAAMD0rfAKGMM6AAAAAADTtuIrYAzrAAAAAABM24qvgNnrj30/zf7bAAAAAABgpaJrV9cwqg/9wbAOAAAAAMCkDMN3345hHQAAAAAADiG6dn9No/resP5G9t8IAAAAAAArscYrYPb6vWEdAAAAAIBJWPMVMM8O669n/60AAAAAAHBi0bUHax7Vh35nWAcAAAAAYPSia9c2MKob1gEAAAAA5iQW7d9kf4Z1iK69uYErYJ4d1l/L/psBAAAAAFijWLR/2/dfsz/HumzoChjDOgAAAADA1MWivdX3v/u2sz/LukTXrm9wVB/6rWEdAAAAAGBiYtHe7Pu0L/rOZ3+edYmu/XyDV8AY1gEAAAAApuZ7g/qTvq3sz7ROG74C5tlh/dXsvx0AAAAAgBP43qA+dDf7M61bwhUwe90xrAMAAAAAjNQ+g/rQ1ezPtW7RtbNJo7phHQAAAABgjGLR3thnUB86k/3ZNiG69tCwDgAAAADAgXYH9U/2GdQfZX+2TYmu/efEUX3ov2V/BwAAAAAAHCAW7fW+3+8zqA/dzP58m5J8Bcxev+l7Jfu7AAAAAABgH7For/X97gWD+tDF7M+4SclXwOz1gatgAAAAAACK2R3Uf/uSQf1p36nsz7lJ0bXrBUb1oQ8N6wAAAAAARcSivXrAoD50P/tzblqRK2AM6wAAAAAAVewO6h8eMKgPXc/+rBmia48KDOqGdQAAAACAbEcY1IfOZX/eDNG17QJjumEdAAAAACDTEQf1z/u2sj9zhmJXwBjWAQAAAAA27YiD+tDt7M+cqdgVMIZ1AAAAAIBNiUV75YiD+tCV7M+dKbp2o8CI/qJh/bXs7wcAAAAAYJJ2B/UPjjio7/S9lf3ZM0XXzhUY0F/UR4Z1AAAAAIAV273y5b8ccVAfepj92SsoegXMXr91FQwAAAAAwIrsDur/4xiD+tDN7M9fQeErYPa6Y1gHAAAAADihEw7qQxez/4YKil8BY1gHAAAAADipFQzqT/tOZf8dVRS/AsawDgAAAABwXCsY1IfuZ/8dlYzgCphnh/VXsr8vAAAAAIBRWNGgPnQ9+2+pJLp2vsBgfth+Y1gHAAAAADhALNorfR+uYFAfOpf991QSXduKcVwBY1gHAAAAADjI7qD+wYoG9f/bt5X9N1UT47kC5m/DevZ3BgAAAABQzooH9aHb2X9TRTGuK2D2+pfs7w0AAAAAoJQVD+pDl7P/popieQXMFwWGcsM6AAAAAMBxxKK9v+JB/S99p7P/rqqia7cKjOSGdQAAAACAo1rDoD70v7L/rsqiaxcKDOTHbTv7+wMAAAAASLGmQX1oO/tvqyzGewWMYR0AAAAAmKdh+F7ToD50Pvvvqy7GewXMXtezv0MAAAAAgI1Y86D+pG8r+2+sLrp2scAwftJ+nf09AgAAAACs1ZoH9aG72X/jGETXftT3ZYFh3LAOAAAAALCfWLTrax7Uh65m/51jEeO/AmavX2V/lwAAAAAAKxWLdm0Dg/rQmey/dSxiGlfADH1nWAcAAAAAJmODg/qj7L91TGI6V8DsDeu/zP5OAQAAAABOZIOD+tDN7L93bGI6V8AMfWtYBwAAAABGKxbtvb7vNjiqX8r+m8cmpnMFjGEdAAAAABivhEF9p+909t89NrG8AubPBcbwVQ/rv8j+bgEAAAAADiVhUB96kP13j1V07XaBIXwdw/rF7O8WAAAAAOClkgb1oe3sv32sYnpXwOz1jWEdAAAAACgrFu3dpEF96Hz23z9WMc0rYAzrAAAAAEBdu4P6t0mD+pO+rezvYMximlfAGNYBAAAAgHqSB/Whu9nfwdjFdK+AMawDAAAAAHUUGNSHrmZ/D2MX074CxrAOAAAAAOSLRbtYYFAfOpP9XUxBTPsKGMM6AAAAAJBnd1D/psCg/ij7u5iKmP4VMM8O6+9kf98AAAAAwEwUGtSHbmV/H1MRyytg/lRg9N5EXxvWAQAAAIC1i0V7p9CgPnQp+zuZkujanQKDt2EdAAAAABi/3UH96wJD+l5P+05nfy9TEl27VGDsNqwDAAAAAONWcFAfup/9vUxNzOsKGMM6AAAAALB6sWhvFxzUh7azv5spinldAfPssP5P2d89AAAAADByu4P6VwUG9P06n/39TFF07XKBkTujrwzrAAAAAMCxFR/Un/RtZX9HUxRd+0nfXwqM3IZ1AAAAAGAcig/qQ3ezv6Mpi67dLTBwG9YBAAAAgPpi0c71/b8Cw/nLupr9PU1ZzPcKmGeH9X/M/h0AAAAAgOJGMqgPncn+rqYs5n0FzF5fGNYBAAAAgBca0aD+WfZ3NQfRtXsFhu3sDOsAAAAAwA+NaFAfupX9fc1BdO1KgVG7QsOw/rPs3wMAAAAAKGJkg/rQpezvbA7CFTDP9kfDOgAAAAAwxkH9ad/p7O9tLsIVMIZ1AAAAAGBphIP60P3s721OomtXC4zZlRqG9Z9m/y4AAAAAwIaNdFAf2s7+7uYkuvZGgSG7Wp8a1gEAAABgRkY8qA+dz/7+5iZcAfOiYf3N7N8GAAAAAFizkQ/qT/q2sr/DuQlXwBjWAQAAAGCOYtHO9n1VYBw/bneyv8M5iq79tG+nwIhdMcM6AAAAAEzR7qD+ZYFh/CRdyf4e5yq6dr/AgF21YVh/I/s3AgAAAABWZCKD+tCZ7O9yrsIVMAf1iWEdAAAAACZgQoP6o+zvcs7CFTCGdQAAAACYugkN6kM3s7/PuYuuPSgwXFfPsA4AAAAAYzSxQX3oYvZ3OnfRtWsFRusxNAzrr2f/XgAAAADAIU1wUH/adyr7e527cAXMUfrYsA4AAAAAIxCLdmZig/rQvezvlaVwBYxhHQAAAACmYndQf1xgBF9117K/W5aia9cLjNVjyrAOAAAAABVNeFAfOpv9/bIUXfuHcAWMYR0AAAAAxmzig/pn2d8vzwtXwBx3WH8t+7cDAAAAgNmLRXtzwoP60K3s75jnhStgTjKs+xfrAAAAAJBld1D/tMDwvc4uZX/PPC+6drbAQD3W/It1AAAAAMgwk0F9p+909nfND0XXHhUYqMfaR4Z1AAAAANigmQzqQw+yv2v2F66AMawDAAAAwBjEor0xk0F9aDv7+2Z/4QoYwzoAAAAAVLc7qH9SYOzeVOezv3NeLFwBY1gHAAAAgKpmOKg/6dvK/t55sejadoFRegoZ1gEAAABglWLRXp/ZoD50N/t75+XCFTCrHtZfzf5NAQAAAGD0dgf1jwuM3JvuavZ3z8HCFTCr7EPDOgAAAACcwIwH9aEz2d8/B4uu3SgwRk8pwzoAAAAAHEcs2mszHtQfZX//HE507VyBIXpqGdYBAAAA4Ch2B/WPCozbWd3M/g04vHAFjGEdAAAAALIY1P/apezfgcMLV8AY1gEAAAAgg0H9rz3tO539W3B40bXzBQboqWZYBwAAAID9xKK9alD/a/ezfwuOJrq2Fa6AMawDAAAAwKbsDuofFhi0K3Q9+/fg6MIVMIZ1AAAAANgEg/oPOpf9m3B04QqYTQ3rr2T/1gAAAACQxqD+g570bWX/LhxdLK+A+aLA8Dz1PjCsAwAAADBLBvV9u5P9u3B80bWbBUbnOWRYBwAAAGBeYtFeMajv25Xs34bjC1fAGNYBAAAAYNV2B/UPCgzYFTuT/ftwfOEKGMM6AAAAAKySQf2lPcr+fTi56NqtAmPznDKsAwAAADBNBvUDu5n9G3Fy0bULBYbmuWVYBwAAAGBaDOqH6mL278TJxfIKmC8LDM1zy7AOAAAAwDQY1A/V075T2b8VqxGugEkb1rN/ewAAAAA4MYP6obqX/TuxOuEKmMzez/79AQAAAODYYtHeLzBYj6Fr2b8VqxOugMnOsA4AAADA+BjUj9S57N+L1QpXwGRnWAcAAABgPAzqR+rzvq3s34zVClfAVOhfsp8DAAAAADiQQf3I3c7+zVi9cAVMlW5kPwsAAAAA8EIG9WN1Oft3Yz3CFTBV2s5+FgAAAADgBwzqx2qn73T2b8d6RNcuFhiUtex69vMAAAAAAH9jUD92D7N/O9YnuvajcAVMpX6d/UwAAAAAwDCo3ygwTo819z1PXLgCplqGdQAAAADyxKJtFximx9yF7N+Q9QpXwFTsV9nPBQAAAAAzZFA/cU/7TmX/jqxXuAKmYt8Z1gEAAADYqFi06wVG6bF3L/t3ZDPCFTAVG4b1X2Y/GwAAAADMQCzatQKD9BS6lv1bshnhCpiqfWtYBwAAAGCtYtHeKzBGT6Wz2b8nmxGugKmcYR0AAACA9dgd1L8rMEZPoc+yf082K1wBU7lhWP9F9jMCAAAAwIQY1Ffe7ezflM0KV8BU7xvDOgAAAAArEYv2rkF95V3O/l3ZrFheAfPnAuOxXj6s/3P2swIAAADAiO0O6t8WGKGn1E7f6ezfls2Lrt0uMBzr5X3d9072swIAAADACMWiXTSor6UH2b8tOcIVMGPJsA4AAADA0ewO6t8UGKCn2Hb270uOcAXMmDKsAwAAAHA4BvW1dz77NyZPdO1OgcFYhnUAAAAAViEW7R2D+lp70reV/TuTJ7p2qcBYrKMN629nPzcAAAAAFLQ7qH9dYHiecv8z+3cmV7gCZox9ZVgHAAAA4DkG9Y11Nfu3Jl+4AmaMGdYBAAAAWDKob7Qz2b83+aJrlwuMxDKsAwAAAHBUsWhvG9Q31mfZvzc1RNd+HK6AGWuGdQAAAIC52h3UvyowNs+lW9m/OXWEK2DG3DCsn81+hgAAAADYIIN6Speyf3fqCFfAjL0vDesAAAAAM2FQT2mn73T2b08dsbwC5i8FxmEZ1gEAAAB4EYN6Wg+yf3vqia7dLTAMy7AOAAAAwH4M6qltZ//+1BOugJlKhnUAAACAqTGop3c++xmgnnAFzJQahvUz2c8UAAAAACtgUE/vSd9W9nNATeEKmCn1Rd/Psp8pAAAAAE7AoF6iu9nPAXWFK2Cm1h8N6wAAAAAjFYt21qBeoqvZzwJ1Rdd+Eq6AmVqGdQAAAICx2R3UvywwKGvhnmVeLrp2r8AQrNUP6z/NfrYAAAAAOASDeqkeZT8P1Bddu1JgBNbq+4NhHQAAAKA4g3q5bmY/E9QXroCZcoZ1AAAAgKoM6iW7lP1cMA7hCpgpZ1gHAAAAqMagXrKnfaeznw3GIbp2tcD4q/UO629kP2cAAAAAtL8O6mcM6iW7n/1sMB7Dv2QOV8BMvd8b1gEAAACS7Q7qjwsMyPph17OfD8YlXAEzhwzrAAAAAFkM6uU7l/2MMC7hCpi5NAzrr2c/bwAAAACzYlAv35O+reznhHGJ5RUwOwVGX62/3xnWAQAAADbEoD6K7mQ/J4xTdO1BgcFXhnUAAACAaTCoj6Yr2c8K4xRdu1Zg7JVhHQAAAGD8YtHeNKiPop2+t7KfF8YpXAEzx4Zh/bXsZw8AAABgUnYH9U8LDMY6uIfZzwvjFq6AmWO/NawDAAAArIhBfXTdyH5mGLfo2vUCI68230eGdQAAAIATMqiPsgvZzw3jFl37h3AFzFwzrAMAAAAcVyzaGwb10fWk71T2s8P4hStg5pxhHQAAAOCodgf1TwqMxDpad7OfHaYhXAEz9wzrAAAAAIdlUB9117KfH6Yhuna2wLArwzoAAABAbQb10Xc2+xliOqJrjwoMu8of1l/NfhYBAAAASopFe92gPuo+y36GmJbo2naBUVf5fRiGdQAAAIDn7Q7qHxcYhnX8bmc/R0xLuAJGf8+wDgAAALDHoD6ZLmc/S0xPuAJGf8+wDgAAAGBQn0w7faeznyemJ1wBo+czrAMAAADzZVCfVA+ynyemKVwBox9mWAcAAADmJxbtNYP6pNrOfqaYrnAFjH6YYR0AAACYj91B/aMCQ7BW14Xs54rpiq7dKDDiql7DsP5K9vMJAAAAsFYG9Un2pO9U9rPFdEXXzhUYcFWzD8KwDgAAAEyVQX2y3c1+tpi+cAWMXpxhHQAAAJieWLRXDeqT7Wr288X0hStg9PIM6wAAAMB07A7qHxYYf7WezmQ/Y0xfuAJGB2dYBwAAAMbPoD75Pst+xpiPcAWMDs6wDgAAAIyXQX0W3cp+zpiPcAWMDpdhHQAAABgfg/psupT9rDEf0bXzBQZbjSPDOgAAADAeBvXZtNN3Ovt5Yz6ia1t9/1pgsNU4MqwDAAAA9RnUZ9WD7OeN+QlXwOhoGdYBAACAugzqs2s7+5ljfsIVMDp6hnUAAACgHoP6LDuf/dwxP+EKGB0vwzoAAABQRyzaKwb12fWkbyv72WOewhUwOl4fZD+7AAAAAHuD+gcFRl5ttjvZzx7zFa6A0fF7P/v5BQAAAGbMoD7rrmQ/f8xXLK+A+bLAQKtxZlgHAAAANs+gPvvOZD+DzFt07WaBcVbjzbAOAAAAbE4Y1Ofeo+xnEMIVMDp5hnUAAABg/cKgrkW7mf0cQiyvgPmiwDCrcWdYBwAAANYnDOpadjH7WYRBuAJGq8mwDgAAAKxHGNS1aE/7TmU/izAIV8BodRnWAQAAgNWKRXu/wKCr/O5nP4uwJ1wBo9VmWAcAAABWIwzq+nvXs59HeFZ07VaBMVbTybAOAAAAnEwY1PV857KfSXhWdO1CgSFW0+pG9nMNAAAAjFQs2o0CI67q9HnfVvZzCc8KV8BoPW1nP9sAAADAyMSibRcYcVWr29nPJewnXAGj9bSd/WwDAAAAIxEGde3f5exnE/YTXbtYYIDVNNvOfr4BAACA4sKgrv3b6Tud/XzCfqJrP+r7U4EBVtPM/0EzAAAAsL9YtOsFxlvV7GH28wkvE127XWB81XS7lv2MAwAAAMXEol0rMNyqbjeyn1F4mXAFjNafYR0AAABYCoO6Du5C9nMKLxOugNFmMqwDAADA3IVBXQf3tO9U9rMKB4mu3Skwumr6vZf9rAMAAABJYtHeKzDYqn73sp9VOIzo2qUCg6um33dhWAcAAID5ieWg/l2BwVb1c90BoxCugNHmMqwDAADAnIRBXUfrXPYzC4cVroDR5jKsAwAAwByEQV1H6/O+reznFg4runa5wNiq+TQM6+9mP/cAAADAmoRBXUfvdvZzC0cRXftJ318KjK2aT9+GYR0AAACmJxbt3TCo6+hdyX524aiia3cLDK2aV4Z1AAAAmJJYDurfFhhoNa52+t7Kfn7hqMIVMMrJsA4AAABTEAZ1Hb+H2c8vHEd07cfhChjlZFgHAACAMQuDuk7WzexnGI4rXAGjvAzrAAAAMEZhUNfJu5j9HMNxhStglNswrDtDAQAAYCzCoK6T97TvVPazDMcVroBRft+EYR0AAADqi0W7GAZ1nbx72c8ynFR07V6BYVXzzrAOAAAAlcVyUP+mwCCr8Xct+3mGk4quXSkwqkqGdQAAAKgoDOpabeeyn2k4qXAFjOo0DOvvZL8TAAAAwK4wqGu1fd63lf1cwyqEK2BUp6/DsA4AAAD5wqCu1Xc7+7mGVYmuXS0wpkp7GdYBAAAgUxjUtZ6uZD/bsCrRtTfDFTCqlWEdAAAAMsSivRMGda2+nb63sp9vWKVwBYzqZVgHAACATYrloP51gQFW0+th9vMNqxaugFHNhmH97ez3AwAAACYvFu3tMKhrfd3IfsZh1WJ5BcxOgRFV+n5fhWEdAAAA1ieWg/pXBYZXTbcL2c85rEN07X6BAVXaL8M6AAAArEMY1LX+nvSdyn7WYR3CFTCqnWEdAAAAVikW7WwY1LX+7mY/67Au4QoY1c+wDgAAAKsQy0H9ywKDq6bfteznHdYpXAGj+g3D+tnsdwUAAABGKwzq2myGHCYtXAGjcfRlGNYBAADg6GLRzoRBXZvrs+xnHtYtXAGj8WRYBwAAgKOI5aD+uMDQqvl0K/u5h02Irj0oMJhKh8mwDgAAAIcRBnXldCn72YdNiK5dKzCWSodtGNbPZL83AAAAUFYs2pthUNfm2+k7nf38wyaEK2A0vh6HYR0AAAB+KJaD+qcFBlbNrwfZzz9sUrgCRuPrcRjWAQAA4O9i0d4Ig7ry2s5+B2CTwhUwGmePw7AOAAAAfxvUPykwrGq+nc9+D2CTwhUwGm+Pw7AOAADAnIVBXfk96dvKfhdg08IVMBpvj/vezH6HAAAAYONi0V4Pg7ryu5v9LkCG6Nr1AuOodNw+DcM6AAAAcxLLQf3jAoOqdDX7fYAM0bWfhytgNO4M6wAAAMxDGNRVqzPZ7wRkCVfAaPwZ1gEAAJi2MKirVo+y3wnIFK6A0TQyrAMAADBNYVBXvW5mvxeQKVwBo+k0DOtvZL9TAAAAsDJhUFfNLmW/G5AtXAGj6fRJGNYBAACYgjCoq2ZP+05nvx+QLVwBo2n1+zCsAwAAMGZhUFfd7me/H1BBdO1sgSFUWmWGdQAAAMYpDOqq3fXsdwSqiK49LDCESqtsGNZfz363AAAA4NBi0V4Lg7pqdy77PYEqwhUwmma/C8M6AAAAYxDLQf2jAqOp9KI+79vKfleginAFjKabYR0AAIDawqCucXQ7+12BasIVMJpuhnUAAABqCoO6xtOV7PcFqglXwGjaDcP6a9nvGQAAAPxNGNQ1nnb63sp+Z6CacAWMpt9vw7AOAABABWFQ17h6mP3OQFXhChhNP8M6AAAAucKgrvF1I/u9garCFTCaR4Z1AAAAcoRBXePsQva7A1WFK2A0n4Zh/dXsdw4AAIAZiUV7NQzqGl9P+05lvz9QWXTtUYHBU9pEd8KwDgAAwCbEclD/sMBAKh21e9nvD1QXXdsuMHZKm8qwDgAAwHqFQV3j7lr2OwTVhStgNL+GYf2V7HcPAACACQqDusbfuez3CMYgXAGj+fWbMKwDAACwSmFQ1/j7vG8r+12CMQhXwGieGdYBAABYjTCoaxrdzn6XYCzCFTCab4Z1AAAATiYM6ppOl7PfJxiTcAWM5ttvst8/AAAARioM6ppOO32ns98pGJPo2o0C46aU1b9kv4MAAACMTCzaK2FQ13R6mP1OwdhE184VGDalzAzrAAAAHE4sB/UPCgyh0qq6kf1ewRiFK2Ak//kBAADAy4VBXdPsQva7BWMUroCRhraz30UAAACKCoO6ptnTvlPZ7xeMUXTtfIFBU6rQdvb7CAAAQDFhUNd0u5f9fsFYRde2+v61wKApVeh69jsJAABAEWFQ17S7lv2OwZiFK2CkZ/t19jsJAABAsjCoa/qdzX7PYMzCFTDS9zOsAwAAzFkY1DXtPst+x2DsYnkFzJcFhkypUoZ1AACAOYpFe7/A6Cmts9vZ7xlMQXTtZoERU6rWr7LfTQAAADYoDOqaR5ez3zWYgnAFjLRf34VhHQAAYB7CoK55tNN3Ovt9gykIV8BIL8qwDgAAMHVhUNd8epD9vsGURNduFRgwpYoNw/ovs99RAAAA1iAW7UaBoVPaVNvZ7xxMSXTtQoHxUqrat2FYBwAAmJZhYCwwckqb7EL2ewdTEq6AkQ7KsA4AADAVYVDX/HrSdyr73YOpCVfASAc1DOu/yH5XAQAAOIEwqGue3c1+92CKomsXC4yWUvW+CcM6AADAOIVBXfPtWvb7B1MUXftRuAJGOkzDsH4x+50FAADgCGLRrhcYNqWszma/gzBV4QoY6bAZ1gEAAMYiFu1agVFTyuqz7HcQpixcASMdpWFYfyf7vQUAAOAlwqAu3cp+D2HKwhUw0lH7OgzrAAAANYVBXRq6lP0uwtSFK2Cko2ZYBwAAqCYM6tLQ077T2e8jTF24AkY6ToZ1AACAKsKgLu11P/t9hDmI5RUwfy4wUkpjy7AOAACQLRbtvb7vCoyZUoW2s99JmIvo2u0CA6U0xoZh/e3sdxgAAGCWwqAufb/z2e8lzEW4AkY6SV+FYR0AAGCzwqAufb8nfVvZ7ybMRbgCRjpphnUAAIBNiUV7Nwzq0ve7k/1uwtxE1+4UGCalMWdYBwAAWLdYDurfFhgwpWpdyX4/YW6ia5cKjJLS2DOsAwAArEsY1KWXdSb7HYW5CVfASKtqGNbPZr/TAAAAkxIGdellPcp+R2GuwhUw0qr6MgzrAAAAqxGLdjEM6tLLupn9nsJcRdcuFxgjpalkWAcAADipWA7q3xQYLaXKXcx+V2Guoms/DlfASKvMsA4AAHBcYVCXDtPTvlPZ7yvMWbgCRlp1hnUAAICjCoO6dNjuZ7+vMHfhChhpHRnWAQAADisW7Z0wqEuH7Xr2OwtzF8srYP5SYISUppZhHQAA4CCxHNS/LjBUSmPpXPZ7C/x1WL9bYICUptgwrJ/JfscBAABKCoO6dNSe9G1lv7uAK2CkNfc4DOsAAADPC4O6dJzuZL+7wFK4AkZad4/DsA4AALAUi/Z2GNSl43Ql+/0F/i66dq/A8ChNucdhWAcAAOYuloP6VwXGSWls7fS9lf0OA38XXbtSYHSUpt7jMKwDAABzFQZ16SQ9zH6HgeeFK2CkTfU4DOsAAMDchEFdOmk3s99j4IfCFTDSpnochnUAAGAuwqAuraKL2e8y8EPhChhpkz0OwzoAADB1sWhnw6AunbSnfaey32fgh8IVMNKme9z3Zva7DwAAsBaxHNS/LDBISmPvfvb7DLxYuAJG2nSfhmEdAACYmjCoS6vsevY7DbxYdO1qgZFRmluGdQAAYDrCoC6tunPZ7zXwYsOwF66AkTIyrAMAAOMXBnVp1X3et5X9bgMvF66AkbIyrAMAAOMVBnVpHd3OfreBg4UrYKTMDOsAAMD4hEFdWldXst9v4GCxvAJmp8C4KM01wzoAADAesWhnwqAuraOdvrey33HgcKJr9wsMi9KcM6wDAAD1xXJQf1xgfJSm2MPsdxw4vHAFjFShP/S9kX0eAAAA7CsM6tK6u5n9ngOHF66Akar0+zCsAwAA1YRBXdpEF7PfdeBoomsPCgyKkgzrAABAJWFQlzbR075T2e87cDTRtWsFxkRJywzrAABAvjCoS5vqXvb7DhxduAJGqtYwrL+efTYAAAAzFYv2ZhjUpU11LfudB44nXAEjVet3YVgHAAA2LZaD+qcFhkZpLp3Nfu+B44muXS8wIkp6PsM6AACwOWFQlzbdZ9nvPXB80bWfhytgpIoZ1gEAgPWLRXsjDOrSprud/e4DJxOugJGqNgzrr2WfEQAAwETFclD/pMDAKM2ty9nvP3Ay4QoYqXK/DcM6AACwamFQl7La6TudfQYAJxNdO1tgOJT04gzrAADA6oRBXcrsQfYZAKxGdO1hgeFQ0oszrAMAACcXi/Z6GNSlzLazzwFgNcIVMNIYGob1V7PPCwAAYKRiOah/XGBUlObc+eyzAFiNcAWMNJbuhGEdAAA4qjCoSxV60reVfR4AqxNde1RgMJR0cIZ1AADg8GLRXguDulShO9nnAbBa0bXtAmOhpMM1DOuvZJ8bAABAcbEc1D8qMCZKWrQr2WcCsFrhChhpbP0mDOsAAMCLhEFdqtaZ7HMBWL1wBYw0tj4IwzoAAPB9YVCXqvUo+1wA1iO6dqPASCjpaBnWAQCAv4tFezUM6lK1bmafDcB6RNfOFRgIJR09wzoAAPC3Qf3DAgOipOe7mH0+AOsTroCRxtoH2ecHAACQLBbtvxcYDyX9sNeyzwdgfcIVMNKYez/7DAEAABLEor0S/oW6VLX72WcEsF7RtfMFhkFJx8+wDgAAcxLLQf2DAsOhpP27nn1OAOsVXdsKV8BIY8+wDgAAcxAGdWkMncs+K4D1C1fASFPoRvZZAgAArFEY1KUx9HnfVvZ5AaxfuAJGmkrb2ecJAACwBmFQl8bS7ezzAtiMWF4B80WBQVDSydvOPlMAAIAVC4O6NJauZJ8XwOZE124WGAMlrabt7DMFAABYkVi09wsMhZIObqfvrewzA9iccAWMNLX8n40DAMDYhUFdGlMPs88MYLPCFTDSFLuWfbYAAADHFAZ1aWzdyD43gM2Lrt0qMAJKWm2GdQAAGJthnCswEEo6Wheyzw5g86JrFwoMgJJWn2EdAADGIhZtu8A4KOloPe07lX1+AJsXroCRptx72WcMAABwgDCoS2PtXvb5AeQJV8BIU+27MKwDAEBdYVCXxpz/iTjMWHTtYoHxT9J6MqwDAEBFYVCXxt7Z7HMEyBNd+1HfnwqMf5LWk2EdAAAqiUW7XmAQlHT8Pss+R4B80bXbBYY/SevLsA4AABXEol0rMAhKOlm3s88SIF+4AkaaQ8Ow/m72eQMAALMVBnVpKl3OPk+AfOEKGGkufRuGdQAA2LwwqEtTaafvdPaZAtQQXbtTYPCTtP4M6wAAsEmxaO8VGAIlraaH2WcKUEd07VKBsU/SZjKsAwDAJsRyUP+uwBAoaTXdyD5XgDpieQXMnwuMfZI20zCsX8w+ewAAYLLCoC5NsQvZZwtQS7gCRppb34RhHQAAVi8M6tIUe9p3Kvt8AWqJrl0uMPJJ2myGdQAAWKUwqEtT7V72+QLUE137cbgCRppjhnUAAFiFWLR3w6AuTbVr2WcMUFO4Akaaa8Ow/k72GQQAAKMVy0H92wLDn6T1dDb7nAFqClfASHPu6zCsAwDA0YVBXZp6n2WfM0BdsbwC5i8Fxj1JORnWAQDgKMKgLs2hW9lnDVBbdO1ugWFPUl6GdQAAOIwwqEtz6VL2eQPUFq6AkbQc1t/OPo8AAKCsWLSLYVCX5tBO3+nsMweoLVwBI2nZV2FYBwCAH4rloP5NgbFP0vp7kH3mAOMQXbtXYNCTlJ9hHQAAnhUGdWlubWefO8A4RNeuFBjzJNXIsA4AAIMwqEtz7Hz22QOMQ7gCRtLzDcP6P2afTQAAkCYM6tIce9K3lX3+AOMRroCR9HxfhGEdAIA5ikV7Jwzq0hy7k33+AOMSXbtaYMSTVCvDOgAA8xLLQf3rAuOepM13JfsMAsYluvZmuAJG0g8zrAMAMA9hUJfm3pnscwgYn3AFjKT9G4b1n2WfUQAAsDZhUJfm3qPscwgYp3AFjKQX98cwrAMAMEVhUJe0aDezzyJgnMIVMJJenmEdAIBpiUV7OwzqkhbtYvZ5BIxXuAJG0sszrAMAMA2xHNS/KjDmScrtad+p7DMJGK9wBYykgxuG9Z9mn1cAAHBsYVCX9PfuZZ9JwLjF8gqYnQKjnaTa/SEM6wAAjFEY1CU93/XscwkYv+ja/QKDnaT6GdYBABiXMKhL+mHnss8mYPzCFTCSDp9hHQCAcYhFOxsGdUnP93nfVvb5BIxfuAJG0tEahvU3ss8uAAB4oVgO6l8WGPAk1ep29vkETEd07UGBoU7SePp9GNYBAKgoDOqSXtyV7DMKmI7o2rUCI52kcWVYBwCgljCoS3pxO31vZZ9TwHSEK2AkHa9hWH89+wwDAACDuqSDeph9TgHTE66AkXS8fheGdQAAMoVBXdLB3cw+q4DpCVfASDp+hnUAAHLEop0Jg7qkg7uYfV4B0xOugJF0sj4OwzoAAJsUy0H9cYGxTlLtnvadyj6zgGkKV8BIOlmGdQAANiMM6pIO3/3sMwuYruja9QKjnKRxZ1gHAGC9wqAu6Whdzz63gOmKrv08XAEj6eQZ1gEAWI9YtDfDoC7paJ3LPruAaQtXwEhaTcOw/lr2mQYAwITEclD/tMBAJ2k8Penbyj6/gGkLV8BIWl0fhWEdAIBVCIO6pON1J/v8AqYvuna2wBAnaToZ1gEAOJkwqEs6fleyzzBgHqJrDwsMcZKmk2EdAIDjiUV7Iwzqko7XTt9b2ecYMA/hChhJq8+wDgDA0cRyUP+kwDAnaZw9zD7HgPkIV8BIWk+GdQAADicM6pJO3s3sswyYl3AFjKT1ZFgHAODlwqAuaTVdzD7PgHkJV8BIWl+GdQAA9hcGdUmr6WnfqewzDZiXcAWMpPVmWAcA4HmxaK+HQV3SarqffaYB8xRde1RgeJM03YZh/dXssw4AgAJiOah/XGCIkzSNrmefa8A8Rde2C4xukqbdh2FYBwCYtzCoS1p957LPNmCewhUwkjaTYR0AYK7CoC5p9X3et5V9vgHzFa6AkbSZDOsAAHMTi/ZaGNQlrb7b2ecbMG/RtRsFxjZJ88iwDgAwF7Ec1D8qML5Jml5Xss84YN6ia+cKDG2S5pNhHQBg6sKgLml97fS9lX3OAYQrYCRtNsM6AMBUhUFd0np7mH3OAQzCFTCSNt8wrL+Sff4BALBCsWivhkFd0nq7kX3WAQzCFTCScvogDOsAANMQy0H9wwKDm6RpdyH7vAPYE66AkZSTYR0AYOzCoC5pMz3pO5V95gHsCVfASMrLsA4AMFaxaK+EQV3SZrqbfeYBPCu6dr7AsCZpvhnWAQDGJpaD+gcFhjZJ8+hq9rkH8Kzo2lbfvxYY1iTNtw+yz0IAAA4pDOqSNt+Z7LMP4PvCFTCS8ns/+ywEAOAAYVCXtPk+yz77APYTroCRVCPDOgBAZWFQl7T5bmWffQD7ieUVMF8WGNQkybAOAFBRLNr7BcY1SfPrUvb5B/Ai0bWbBcY0SRoyrAMAVBIGdUk5Pe07nX0GArxIuAJGUq1uZJ+LAAC0vw7qNwoMa5Lm2f3sMxDgZcIVMJLqtZ19NgIAzFos2naBUU3SfLuefQ4CHCRcASOpXtvZZyMAwCyFQV1Sfueyz0KAg4QrYCTVbDv7fAQAmJUwqEvK70nfVvZ5CHCQcAWMpLptZ5+RAACzEIt2vcCYJkl3ss9DgMOKrt0qMJ5J0n65Tg8AYJ1i0a4VGNIkaehK9pkIcFjRtQsFhjNJelG/zj4nAQAmKQzqkuq00/dW9rkIcFjhChhJ9TOsAwCsUhjUJdXqYfa5CHBU4QoYSfX7VfZZCQAwCWFQl1Svm9lnI8BRRdcuFhjMJOllfReGdQCAkwmDuqSaXcw+HwGOKrr2o3AFjKT6GdYBAI4rDOqSava071T2GQlwHOEKGEnjaBjWf5l9ZgIAjEos2nsFhjNJ2q972WckwHGFK2Akjadvw7AOAHA4sRzUvyswnEnSfl3LPicBjitcASNpXBnWAQAOEgZ1SfU7l31WApxEuAJG0rgahvVfZJ+dAAAlhUFdUv0+79vKPi8BTiJcASNpfH0ThnUAgOeFQV3SOLqdfV4CnFQsr4D5c4GRTJKOkmEdAGBPGNQljafL2WcmwCqEK2AkjbNhWP/n7DMUACBVGNQljaedvtPZ5ybAKoQrYCSNt6/DsA4AzFUs2rthUJc0nh5mn5sAqxKugJE07gzrAMD8xHJQ/7bASCZJh+1G9tkJsErRtdsFhjFJOm7DsP5P2WcpAMBGhEFd0ji7kH1+AqxSuAJG0vj7KgzrAMDUhUFd0jh70ncq+wwFWKVwBYykaTQM629nn6kAAGsRi3YxDOqSxtnd7DMUYB2ia3cKDGKSdNIM6wDA9MRyUP+mwDAmScfpWvY5CrAO0bVLBcYwSVpFhnUAYDrCoC5p/J3NPksB1iFcASNpWhnWAYDxC4O6pPH3WfZZCrBO4QoYSdPKsA4AjFcs2jthUJc0/m5nn6cA6xRdu1xgBJOkVWZYBwDGJ5aD+tcFxjBJOmmXs89UgHWKrv04XAEjaXoZ1gGA8QiDuqTptNN3OvtcBVi3cAWMpGlmWAcA6guDuqRp9SD7XAXYhHAFjKTpZlgHAOqKRXs7DOqSptV29tkKsAnhChhJ086wDgDUE8tB/asCA5gkrbIL2ecrwKaEK2AkTTvDOgBQRxjUJU2zJ32nss9YgE0JV8BImn6GdQAgXxjUJU23u9lnLMAmxfIKmL8UGL0kaZ0Z1gGAPLFoZ8OgLmm6Xc0+ZwE2Lbp2t8DgJUnrzrAOAGxeLAf1LwuMXpK0rs5kn7UAmxaugJE0nwzrAMDmhEFd0vT7LPusBcgQroCRNK8M6wDA+sWinQmDuqTpdyv7vAXIEl27V2DokqRNZVgHANYnloP64wJjlyStu0vZZy5AlujalQIjlyRtMsM6ALB6YVCXNJ+e9p3OPncBsoQrYCTNs2FYP5t9BgMAExEGdUnz6n72uQuQLVwBI2mefRmGdQDgpMKgLml+bWefvQDZomtXC4xbkpSRYR0AOL5YtDfDoC5pfp3PPn8BskXX//dAV8BImm+GdQDg6GI5qH9aYNySpE32pG8r+wwGqCBcASNp3g3D+pnssxgAGIkwqEuab3eyz2CAKsIVMJL0OAzrAMBBwqAuad5dyT6HAaqIrv20b6fAqCVJmT0OwzoA8CJhUJekM9lnMUAl0bX7BQYtScrucRjWAYDvC4O6JD3KPosBqglXwEjSXo/DsA4A7IlFeyMM6pJ0M/s8BqgmXAEjSc/2uO/N7LMZAEgWy0H9kwJjliRldzH7TAaoKLr2oMCQJUlV+jQM6wAwX2FQl6S9nvadyj6XASqKrl0rMGJJUqUM6wAwR2FQl6Rnu599LgNUFa6AkaT9MqwDwJyEQV2Svt/17LMZoLJwBYwk7dcwrL+RfUYDAGsWi/Z6GNQl6fudyz6fASqLrl0vMF5JUsU+CcM6AExXLAf1jwuMV5JUqc/7trLPaIDKomv/EK6AkaQXZVgHgCkKg7okvajb2Wc0wBiEK2Ak6WUZ1gFgSsKgLkkv60r2OQ0wBuEKGEk6KMM6AExBGNQl6WXt9L2VfVYDjEF07WyBwUqSqjcM669nn9kAwDGFQV2SDuph9lkNMCbRtYcFBitJqt7HYVgHgPEJg7okHaYb2ec1wJiEK2Ak6bAZ1gFgTMKgLkmH7UL2mQ0wJuEKGEk6SoZ1ABiDWLTXwqAuSYfpSd+p7HMbYGyia48KDFWSNJYM6wBQWSwH9Y8KDFWSNIbuZp/bAGMUXdsuMFJJ0pgahvXXss9vAOB7wqAuSUftWvbZ/f/Zu/N4u+r63v8rASEolsqVNi6CBEEIkwQ4QJgDYQjDweBERGUUDE6gBQ3DadNabZRacmtrkStKW72N1VqqomitolZLr6XiUI3Wn6EHNAyikSlhSD6/tXOIMiRwhr33Z+21n6/H4/l/q7C/a727+j2S1IuFK2AAxuNzYViXJKk+hUEdYDxmZP9+S1KvFq6AARgPw7okSXUoDOoA43FL9u+3JPVyMVQsrsE4BdCLDOuSJGUWBnWA8boy+zdcknq5GCpm1mCYAuhVhnVJkjIKgzrARMzL/h2XpF4vXAEDMBGtYX3T7N9ySZL6pjCoA0zE2spW2b/lktTrhStgACbq42FYlySp88VgsWnl4zUYpQB61Y3Zv+WS1IRiqJhVg0EKoNcZ1iVJ6mRhUAdoh0XZv+eS1IRiqJhU+VENBimAXmdYlySpE4VBHaBdZmX/pktSUwpXwAC0i2FdkqR2FgZ1gHZZWZmU/bsuSU0pXAED0E6tYX1y9m+7JEk9XxjUAdrp2uzfdUlqUuEKGIB2uzoM65Ikjb8wqAO024Ls33ZJalrhChiAdjOsS5I0nsKgDtAJ07N/3yWpaYUrYAA6wbAuSdJYCoM6QCcsy/59l6QmFiNXwKyowQAF0DRXZ//GS5LUE8VgMTkM6gCdsCT7N16SmloMFUtqMD4BNNEV2b/xkiTVuhgZ1K+uwfAE0ETzsn/nJamphStgADrJsC5J0oYKgzpAJ62ubJX9Wy9JTS1cAQPQaYZ1SZIeWxjUATrthuzfeklqejFUXFmD0QmgyRZn/9ZLklSLwqAO0A0Ls3/vJanpxVAxuwaDE0DTLcr+vZckKbUwqAN0y8zs33xJanrhChiAblmU/ZsvSVJKYVAH6JaVlUnZv/uS1A+FK2AAumVR9m++JEldLQzqAN20NPt3X5L6pRgq5tZgaALoF644lCT1TzFYXFGDkQmgX5yR/bsvSf1SDBWbhStgALrpguzffkmSOl4Y1AG6aW1lWvZvvyT1U+EKGIBuM6xLkppbDBaLazAwAfSTZdm//ZLUb4UrYAAyGNYlSc0rBotFNRiXAPrNkuzff0nqt2LkCph7ajAwAfSbc7LPAEmS2lYY1AGyzM0+AySpH4uh4poajEsA/WZNGNYlSU0oBouFNRiVAPrR6srm2eeAJPVj4QoYgCyGdUlSbxeDxQU1GJUA+tUN2eeAJPVr4QoYgEyGdUlSbxYGdYBsC7PPAknq58IVMACZWsP6KdlngSRJoy4Gi7NqMCYB9LuZ2eeBJPVz4QoYgGwPh2FdktQLxcigvqYGYxJAP1tZmZR9JkhSPxeugAGoA8O6JKnexWDxsjCoA9TB0uwzQZK0blhfWoNBCaDftYb147PPBEmSnlSMDOoP12BIAmCwOCP7XJAkrRvV59VgTAJgqFgVhnVJUp0KgzpAnaytTMs+GyRJroABqBnDuiSpHsVgMTcM6gB1cnP22SBJ+k3hChiAOmkN64dlnw2SpD4uRgb1VTUYkAD4jSXZ54Mk6TeFK2AA6ubeMKxLkjIKgzpAXc3NPiMkSb8pXAEDUEeGdUlSd4vB4pAwqAPU0erK5tnnhCTp8YUrYADqqDWs75t9RkiS+qAYGdTvrcFwBMCT3ZB9TkiSnlwMFfNrMB4B8GR3h2FdktTJwqAOUHcLs88KSdKTi6Hi2eEKGIC6MqxLkjpTGNQBesHM7PNCkrThwhUwAHVmWJcktbcwqAP0glsrk7LPDEnShgtXwADUXWtY3yf7vJAkNaAwqAP0imuyzwxJ0saLkStgHqzBaATAxhnWJUkTKwaLfcKgDtArzsg+NyRJT10MFdfWYDAC4Km1hvUZ2WeGJKkHi5FB/e4ajEQAPL21lWnZZ4ck6akLV8AA9IoVYViXJI2lMKgD9Jqbs88OSdLTF66AAeglhnVJ0ugKgzpAL1qcfX5IkkZXuAIGoJcY1iVJT10Y1AF61ezsM0SSNLrCFTAAvcawLknacGFQB+hVqyubZ58jkqTRFa6AAehFhnVJ0uOLwWJGGNQBetX12eeIJGlsxVBxfQ0GIgDGxrAuSRopRgb1FTUYhQAYnwuyzxJJ0tiKoeKMGoxDAIxda1ifnn2OSJISC4M6QBP4WkaSeqxwBQxAL1sehnVJ6s/CoA7QBLdknyeSpPEVroAB6GXLw7AuSf1VDBbTw6AO0ATXZJ8pkqTxFa6AAeh1y8OwLkn9UYwM6strMAQBMHHzs88VSdL4ClfAADTB8jCsS1KzC4M6QJOsrWyVfbZIksZfuAIGoAmWh2FdkppZGNQBmubG7LNFkjSxYqhYUIMxCICJ+0nlednniiSpjcVgMTUM6gBNsyj7fJEkTawYqp7TXQED0BTfD8O6JDWjGBnUf1CD8QeA9pqdfcZIkiZeuAIGoEkM65LU64VBHaCpVlY2zz5nJEkTL1wBA9A0hnVJ6tXCoA7QZNdmnzOSpPbUGl4qa2swAgHQPq1hfevsM0aSNIZisNg6DOoATbYg+6yRJLWvGCpuqMEABEB7/UcY1iWpN4qRQf2mGgw+AHTO9OzzRpLUvsIVMABNZViXpLoXBnWAfnBL9nkjSWpv4QoYgCZrDetbZp81kqQNFAZ1gH5xZfaZI0lqfzFU3FiD4QeAzvhKGNYlqV7FYLFlGNQB+sW87HNHktT+Yqi4oAajDwCdY1iXpLoUI4P612ow8gDQeasrW2WfPZKk9heugAHoB4Z1ScouDOoA/eaG7LNHktS5whUwAP2gNaxPyT5zJKkvC4M6QD9alH3+SJI6VwwVC2sw9gDQedeFYV2SulsY1AH61azsM0iS1LliqJhRg6EHgO4wrEtStwqDOkC/WlmZlH0OSZI6WwwVN9dg6AGgO1rD+qbZZ48kNbowqAP0s2uzzyFJUucLV8AA9JulYViXpM4UBnWAfrcg+yySJHW+cAUMQD/6eBjWJam9hUEdgMFievZ5JEnqTjFULKvBwANAdxnWJaldhUEdgMHiluzzSJLUvWKoWFSDcQeA7jOsS9JEC4M6ACOuzD6TJEndK1wBA9DPDOuSNN5isJgSBnUARszLPpckSd0tXAED0M9aw/rk7LNIknqqGBnUP1eDEQeAfKsrW2WfTZKk7hZDxeIajDoA5Lk6DOuSNLrCoA7A492QfTZJkrpfDBWzajDoAJDLsC5JT1cY1AF4skXZ55MkqfvFUDEpXAEDgGFdkjZeGNQB2LBZ2WeUJCmncAUMACMM65L0xMKgDsCGraxMyj6nJEk5hStgAPiNq7PPJUmqTTFYbBoGdQA27Nrsc0qSlFeMXAHzsxoMOQDUwxXZZ5MkpRcjg/rHazDaAFBPC7LPKklSbjFULKnBiANAfRjWJfVvYVAH4OlNzz6vJEm5hStgAHgyw7qk/isM6gA8vWXZ55UkKb8YuQJmRQ0GHADqxbAuqX+KwWJyGNQBeHpLss8sSVI9ClfAALBhi7PPKEnqeDEyqF9dg6EGgPqbl31uSZLqUbgCBoCNM6xLam5hUAdg9FZXtso+uyRJ9ShcAQPAU1uUfVZJUtsLgzoAY3ND9tklSapXMVRcWYPRBoD6WpR9VklSWwuDOgBjszD77JIk1asYKmbXYLABoN4WZZ9XktSWYrC4ogbjDAC9ZWb2+aUaVsaLK3tn/48hKadwBQwAo7Mo+8ySpAkVBnUAxu7WyqTsM0w1rIzPVKLyk8oHK/MrW2f/jyWpe4UrYAAYnUXZZ5YkjaswqAMwPtdkn2GqaWV8+dFR/Ym+Ufn9yr7Z/yNK6mwxVMytwVADQG9YlH1uSdKYisFicQ1GGQB60/zsc0w1rYz/3Mio/lh3VD5aeV1l9+z/kSW1txgqNgtXwAAweouyzy5JGlUxWCyqwSADQG9aW9kq+yxTTSvjv0Yxqj/RnY+O7K+obJn9v4KkiReugAFgbBZmn12S9JSFQR2Aibk5+yxTjStjxThG9Sf6x8oZld/J/l9H0vgKV8AAMHYXZJ9fkrTBwqAOwMQtzj7PVOPKWN2GUX29tZVvVf6kMruyWfb/epJGV4xcAXNPDQYaAHqLYV1SvQqDOgDtMTv7TFONa9+gviH3Vz5d+T1/8FSqfzFUXFODcQaA3mNYl1SPYrBYWIMRBoDet7Kyefa5pppWxvM6PKo/0b2Vz1XeXtk/+399SY8vXAEDwPgZ1iXlFoPFBTUYYQBohmuzzzXVuDJ26fKo/kQ/q1xVOamyRfZ/HFK/F66AAWBiDOuScgqDOgDttSD7bFONK2NW8qj+WA9UPlV5beW52f/RSP1aDBVLazDKANC7zsk+yyT1WWFQB6D9pmefb6pxI39MNHtM35jvVi6vHFX4g6dS14qhYl4NBhkAeteaMKxL6lZhUAeg/ZZln2+qeWWcWIPxfDRaf/D0M5ULKtOz/2OTmly4AgaAiTOsS+p8YVAHoDOWZJ9xqnllzK/BYD4erbvYP1I5szIt+z9GqWmFK2AAmLjWsH5K9pkmqaHFYHFWDUYXAJppXvY5p5pXxnk1GMjb4UeVv3r0/0jwnOz/WKVeL1wBA0B7PByGdUntLkYG9TU1GF0AaJ7Vla2yzzrVvDIW1mAQb7dHKjdU3lrZPvs/YqkXC1fAANA+rWH9+OyzTVJDCoM6AJ11Q/ZZpx6ojMU1GME77XuVd1VmVSZn/0cu9UrhChgA2mdVGNYlTbQwqAPQeYuyzzv1QGVcWYPRu5vurHyoMq+yRfZ//FKdi6Fifg1GGACaw7AuafzFYPGyMKgD0Hmzss889UBlfKwGQ3em1l3srf/DQusu9m2y/+uQ6lQMFc8OV8AA0F6tYf2w7DNOUo8VI4P6wzUYWgBotpWVSdnnnnqgMq6vwbBdF2sr36ksqQxW/E0C9X3hChgA2u/eMKxLGm1hUAege67NPvfUI5VxYw3G7Lp6uPLVymWV/Qv3sasPC1fAANAZrWF93+xzTlLNi8FibhjUAeieBdlnn3qkMm6uwXjdK35eWVo5qzIt+786qRvFUPFblQdrML4A0Dx3h2Fd0saKkUF9VQ0GFgD6x/Ts8089UhnLajBW96rvV95bmVPZLPu/SqlTxVBxbQ2GFwCaybAu6cnFYHFIGNQB6K5l2eefeqgybq/BON0E91X+qbKgsn32f61SOwtXwADQWa1hfdfs805STYqRQf3eGowrAPSXJdlnoHqoMlbXYJBuosd+xf6M7P+apYkUroABoPN+FoZ1SWFQByDPvOxzUD1SGVNqMD73g9ZX7J+pvLmyS/Z/7dJ4iqHi+hoMLgA024rKjOwzT1JSMVjsEwZ1AHKsrmyVfRaqRypjag0G5350S+Wqyksr/n1VTxRDxRk1GFsAaD7DutSPxcigfncNRhUA+tMN2WeheqgyZtRgYO53j1S+UVlUObCyafY/FtKGClfAANA9hnWpn4rBYkYY1AHItTD7PFQPVcasGozKPN5dlb+tvLLy3Ox/RKTHFq6AAaB7WsP69OyzT1KHi5FBfUUNxhQA+tvM7DNRPVQZc2swIrNxayo3Vn6/MlCZlP2PjPq7GCoW1GBkAaB/LA/DutTcwqAOQD2srBjdNPrKmFeD4ZjRu6Py4cr8wl3sSiiGiueFK2AA6K7lYViXmlcMFtPDoA5APSzNPhfVY42Ms9lDMePTuov968XIV+z7VzbJ/sdJ/VG4AgaA7lsehnWpOcXIoL68BiMKALSckX02qscqY0ENxmHa45eVj1fOrkzN/kdLzS1cAQNAjuVhWJd6vzCoA1A/07PPR/VYZSyswRhMZ3y3cnnlqMpm2f+oqTnFyBUwa2swrgDQf5aHYV3q3cKgDkD9LMs+H9WDlbG4BuMvnbeq8oXKRZW9Cn/wVBMshoobajCsANCflodhXeq9wqAOQD0tyT4j1YOVcWUNBl+6r/UHTz9SOb1wVYzGUbgCBoBcyyueYaReKQzqANTX3OxzUj1YGUtrMPCS73uVKyrHVZ6Z/Y+l6l+4AgaAfD8Iw7pU/8KgDkB9ra5snn1Wqgcr4/oaDLrUywOVz1beVNkp+x9R1bcYKm6swaACQH8zrEt1LgzqANTb9dlnpXq0Mm6swYhLvf135c+Lka/Yt8j+R1b1KYaKC2owpgCAYV2qYzFYTA2DOgD1dkH2eakerYz/qsFoS+/wFbt+XbgCBoD6MKxLdSpGBvUf1GAsAYCnMjP7zFSPVsbtNRhq6V0/rvxFZbCyZfY/zup+4QoYAOrDsC7VoTCoA9Abbq1Myj431aOVsboGwyzN8FDlK5WLK/tU/C71QTFULKzBiAIA67WG9a2zz0epbwuDOgC945rsc1M9XP4QS3O1/r8g/qZyamWb7H/U1ZliqNglXAEDQL3cFIZ1qfuFQR2A3jI/++xUj1bGlBoMr/SHtZVvVd5dmVPZLPsff7WvcAUMAPVjWJe6WRjUAegtaytbZZ+f6tHKmFqDsZX+dF/lusr5lV2z/1XQxApXwABQT4Z1qRuFQR2A3nNj9vmpHq6MGTUYV6Hlp5UPV15ZuCqm54qhYkYNhhMA2BDDutTJwqAOQG9alH2GqocrY1YNxlR4IlfF9GAxVNxcg+EEADakNaxvmX1WSo0rBoutw6AOQG+anX2OqocrY24NBlR4Or+oLK2cVvnd7H9ttOHCFTAA1NvXwrAuta8YGdRvqsEoAgBjtbKyefZZqh6ujPk1GExhLFpfsd9UeUflwMrk7H+NNFK4AgaA+jOsS+0oDOoA9LZrs89S9XhlnFODkRQm4q7K31ZOrTw3+1+pfi9cAQNA/RnWpYkUBnUAet+C7PNUPV4ZC2swikK7rKn8e2VR5YDCV+xdL1wBA0BvMKxL4ykM6gA0w/TsM1U9XhmLazCEQqe0vmL/SOXVhbvYu1K4AgaA3vGVypTss1PqmcKgDkAzLMs+U9WAylhSg+ETumH9XezvrBxS2ST7X7+mFkPFshoMJQAwGteFYV16+sKgDkBzLMk+V9WAyri6BmMnZPhF5ROVcytTs/9VbFIxVCyqwUgCAKNlWJeeqjCoA9As87LPVjWgMpbWYNyEOvhu5fLKURUv1hMoXAEDQO9pDeubZp+hUu2KwWLLMKgD0ByrK1tln69qQGVcX4MxE+pmVTHy78YFlV2z/zXtxcIVMAD0nqVhWJd+U4wM6l+rwQACAO1yQ/b5qoZUxo01GDCh7m6pfKBycmXL7H9te6EYKhbXYBwBgLEyrEutwqAOQDMtyj5j1ZDKWFaDwRJ6ySOVb1T+oDKrMjn7X+M6FkPFzBoMIwAwHoZ19XdhUAeguWZln7NqSGXcXoOREnrZzyt/Vzmj8AdPH1e4AgaA3tUa1v0fztV/hUEdgOZaWZmUfdaqIY3cHZ09SkKTtP7g6Z9W5hZ9/gdPwxUwAPS2q8Kwrn4qBospYVAHoLmuzT5r1ZBag1/+AAlN1vo/Wn2+8tbK7tn/yne7GCpm1WAQAYCJMKyrP4qRQf1zNRg8AKBTFmSft2pIrasq8kdH6Cet65Y+Ujmt6IOrYmKomFT5UQ0GEQCYiKuyz1Spo4VBHYD+MD37zFVDKmNGDUZG6Gffq/xZ0eCrYsIVMAA0w+XZZ6rUkcKgDkB/uCX7zFWDKmNWDUZFYMT6q2J+r7JnpRF/OyNcAQNAcxjW1azCoA5A/7gy+9xVgypjdg2GRGDD7ihGroo5vejhq2LCFTAANMsV2Wer1JZisNg0DOoA9I952WevGtTIlRPZwyEwOq2rYq6oHFd5ZvbPx1gKV8AA0CyGdfV2MTKof7wGAwcAdMPaylbZ568aVBnzazAUAmP3YOVLlYsrA5XJ2T8nT1W4AgaA5lmcfb5K4yoM6gD0nxuzz181rDIW1GAcBCbu55WPVc6uTMv+aXliMXIFzIoaDCAA0E6Lss9YaUyFQR2A/rQo+wxWwypjYQ3GQKC91lRurPx+UaOv2GOoWFKD8QMA2m1R9hkrjaoYLCaHQR2A/jQr+xxWwypjcQ0GQKCz7qr8beWVledk/dyEK2AAaK5FWeerNKpiZFC/ugajBgB028rKpOyzWA2rjCtrMPgB3fNI5WvFyF3se3Xz5yZcAQNAsy3q5rkqjbowqAPQ367NPovVwMpYWoORD8hzR+WjlTMqUzv9kxNDxZU1GD0AoFMWdfoslcZcGNQB6G8Lss9iNbAyrq/BqAfUx/cqSyonVLZs909ODBWzazB4AEAnLWr3+SmNuxgsrqjBmAEAmaZnn8dqYGXcUIMRD6inh4uRq2Jaf/D0oMomE/3JCVfAANAfFrbjUV2aUGFQB4Bbss9jNbQybqzBcAf0hl9WPlk5r7LTeH92whUwAPSHC9r52C6NqRgsFtdgyACAbFdmn8lqaGUsq8FQB/Sm71f+tHJkZbPR/uzEUDG3BkMHAHTDhZ18lJc2WAwWi2owYgBAHczLPpfV0Mq4vQbDHND77qv8U+V1le2f6mcnhorNwhUwAPQPw7q6VxjUAWC91ZWtss9mNbQyVtdgjAOa57FfsT/jiT894QoYAPrLORmP+uqzYrBYWIMBAwDq4obss1kNrYwpNRjegOb7VeUTlbMr27Z+fsIVMAD0lzVhWFcni8HighqMFwBQJ/5yvDpTGVNrMLYB/efbz5j20OVfPHvO3Q9d+ozskQMAuqU1rJ+S/QqgBhYGdQDYkJnZZ7QaWhkzajCuAX3st7b/Vbz0oE/EB085O25767bZYwcAdNrDYVhXOwuDOgBsyK2VSdnntBpaGbOyBzWAx3rRHt+Ot89dHF8557B45LJNsocPAOgEw7raUxjUAWBjrsk+p9XgypibPaABbMxvT/9lnHzgJ+P9Lzsv/vv8nbIHEABop9awfnz264B6uBgszqrBYAEAdXVG9lmtBmdUB3rI83f+nzhr9tXxd6+aH3detE32GAIAE7UqDOsaTzEyqK+pwWABAHW0tjIt+7xWgytjfvZIBjAek8q1sdceN8eFx14enz/rmFh1yZTsYQQAxsOwrrEVBnUAeDo3Z5/XanhlLMgexgDaYcp2q+KogX+Od7/4bfGfr9871lw2OXskAYDRag3rh2W/GqgHCoM6AIzG4uwzWw2vjIXZQxhAJ0x74a1xzhFXxbWnvTjuu/hZ2WMJADyde8OwrqcqDOoAMFqzs89tNbwyFmcPXwCdtvl2q+Po/b4QV5x8QfzwzTtnjyYAsDGtYf2Q7FcE1bAwqAPAaK2sbJ59dqvhlfGB7LELoNum77w8Xj/nL+OzZx4XD1yyRfaAAgCP1RrW52a/JqhGhUEdAMbi2uyzW31QGUuzxy2ATFts90Acf8B18RcvfUPc8pbts4cUAGhp3bFuWNe6Qf20ytoaDBQA0CsWZJ/f6oPKuD570AKok3Knn8bph18THzn1VXHnRdtkjyoA9C/Der8XBnUAGI/p2We4+qAybswesADqalK5Nvba4+a46Nj3xBfOOjpWXTIle2ABoL8Y1vu1MKgDwHjckn2Gq08qY1n2aAXQK6Zst2rdHzx9z7yL4uY37BVrhyZljy0ANJ9hvd8KgzoAjNeV2ee4+qQybs8eqQB61e/ueHu86tCPxF+/8rRYceHU7NEFgOYyrPdLYVAHgImYl32Wq08qY2X2KAXQFLvv/r14yzF/Fp87c27cf/EzswcYAJrFsN70wqAOABOxurJV9nmuPqmM1dkjFEATbTbtwThi3y/Fn5y0MG56/T6uigGgHQzrTS0M6gAwUTdkn+fqk8qYkj06AfQLV8UA0CaG9aYVBnUAaIdF2We6+qQypmaPTAD9aFK5Nmbu+a14+9zF8aXXHhEPXrpZ9kADQG9pDevHZ79OqA2FQR0A2mVW9rmuPqmMGdnDEgARz3r+fXHCAZ+JP3/pm+KHb945e6gBoDcY1nu9MKgDQLusrEzKPtvVJ5UxK3tIAuDJtt/5ljjniKviE695aax8+1bZow0A9dUa1g/Lfq3QOKpe/F9WWVODEQIAmmBp9tmuPqqMudnDEQBPbZNtH4mD9v56/OGJvx//vmD/WHPZ5OwBB4B6uTcM671VjAzqD9dggACApjgj+3xXH1XG/OyxCICxee4L7opXHvp/45r5p/uDpwCsZ1jvlcKgDgCdMD37jFcfVcaC7HEIgInZY/fvxoXHXh7/fPZR/uApQH8zrNe96oV/bhjUAaDdlmWf8eqzyrggewwCoH1af/D0xFmfjve99I2x/C3Ts8cdALqvNazvm/2aoQ0UI4P6qhoMDwDQNEuyz3n1WWUszB6AAOicnWb8d7zpqD+Pz555XDxwyRbZQw8A3XF3GNbrVRjUAaCT5maf9eqzylicPfgA0B1bbPdAzN3/c/G/X/Lm+O/zd8oefADoLMN6Xape9A8JgzoAdMrqyubZ5736rDI+kD3yAJBj/Vfs/3T6SXHfxc/KHn8AaD/DenYxMqjfW4PBAQCa6obs8159WBlLs0cdAPJtvt3qOHq/L8SfnfwWX7EDNEtrWN81+7WjLwuDOgB0w8LsM199WBnXZw85ANRP6yv2Nx/9v+P6M491FztA7/tZGNa7WxjUAaBbZmaf++rDyrgxe7gBoN5ad7Eft/9n430vfWPc8pbts4chAMbHsN6tqpf7fcKgDgDdcGtlUvbZrz6sjGXZYw0AvWXX3b4fv3fsn8a/nH1kPHjpZtkjEQCjZ1jvdDEyqN9dg5EBAPrBNdlnv/q0Mm7PHmcA6F2bTXswjtj3S/EnJy2Mm16/T6y5bHL2YATAU2sN6ztkv4Y0sjCoA0C3nZF9/qtPK2N19iADQHP8rx1+HqccsjSuPuWsuPWt07KHIwA27CdhWG9vYVAHgG5bW5mW/QygPq0GAwwAzbXzrj+M849eEp8544S4/+JnZo9IAPyGYb1dVS/0M8KgDgDddnP2M4D6tDKmZI8tAPSP1lUxcwa+GO+Zd1F85417Zo9JAIwM68/Lfi3p6WJkUF9Rg2EBAPrNkuznAPVpZUzNHlgA6F/b7nRbnDX76vjYq18Rd79t6+xhCaBffT8M6+MrDOoAkGlu9rOA+rQyZmQPKgDQMnnbNbHfXv8vhk74o/jXcw+ORy7bJHtkAugnhvWxFgZ1AMi0urJ59vOA+rQyZmWPKACwIc/Z4RfxioM/Fh+ef0bcfuHvZo9NAP2gNaxvnf2K0hNVL/HTw6AOAJluyH4eUB9Xxtzs0QQAns6kcm3ss+dNcenxf+wrdoDO+o8wrD91MTKoL6/BmAAA/Wxh9jOB+rgy5mcPJQAwVr5iB+io1rC+ZfarSi0LgzoA1MXM7OcC9XFlLMgeRgBgIlpfse+1x81x0bHviS+cdXSsumRK9hgF0ARfCcP64wuDOgDUxa2VSdnPBurjyliYPYYAQDtN2W5VHL3fF+I98y6Km9+wV6wdmpQ9TAH0KsP6+qoX96lhUAeAurgm+9lAfV4Zi7PHDwDopN/Z8Y541aEfiWvmnx4rLpyaPVAB9JrWsD4l+7UltRgZ1H9QgwEBABhxRvbzgfq8Mq7MHjsAoJv22P27ceGxl8c/n31UPHjpZtljFUAvuD76dVgPgzoA1M3ayrTsZwT1eWVckz1uAECWZz3/vjhx1qfjfS99Y/z3+Ttlj1YAdfa56LdhvXph3zoM6gBQNzdnPyNIRRlLswcNAKiL7Xe+Jc498gPxydNOjnsXbpk9YAHUTf8M6zEyqN9Ug+EAAHi8JdnPCVJRxvXZAwYA1NEzpj0Us/f98ro/ePpfb9ote8gCqIvmD+thUAeAOpub/awgFWXcmD1aAEAvmL7z8nj9nL+Mz5xxQtx38bOyRy2ATM0d1qsX9S3DoA4AdbW6snn284JUlLEse6QAgF6z+Xar4+j9vhBXnHyBu9iBftW8YT1GBvWv1WAwAAA27Ibs5wVpXWXcnj1MAECv23HGj+O8Oe+Pa097sbvYgX7SnGE9DOoA0AsWZj8zSOsqY3X2EAEATbLptIfj0H2+Gn88eGl887yBeOSyTbJHL4BO6v1hvXpBnxIGdQDoBTOznxuk6sV/SvbwAABN99vTfxkvPegTcdUrzolb3zote/wC6ITroleH9RgZ1D9Xg5EAAHhqt1YmZT87SNWL/tTsoQEA+s0Ou/wkXnvE/4m/e9X8uPOibbKHMIB2aQ3rm2a/4oyp6sV888oXajASAABP75rsZwdpXWXslD0sAEC/22P378b5Ry+Jfzr9JPexA71uafTKsB4jd6gb1AGgd5yR/fwgrauMmdlDAgDwG6372A/a++sxdMIfxQ3nHB6rLpmSPZABjFX9h/UYGdS/XoNxAAAYnbWVadnPENK6ypiVPR4AABu33QuH47w574/PnnlcPHjpZtlDGcBotYb1ydmvOxssDOoA0Ituzn6GkH5dGXOzxwIAYHS23P7eOPnAT8aHTjkz7rroudmDGcDTuSrqNqyHQR0AetXi7OcI6deVMT97IAAAxm7ytmti7z3/My489vJ1X7G7ix2oqfoM62FQB4BeNjv7WUL6dWUsyB4FAICJW38X+2XHvyO+9Noj3MUO1MnVkT2sx8ig/rUaDAIAwNitrmye+jAhPbYyLsoeAQCA9puy3aqYM/DF+LOT3xK3vGX77EENIG9Yr17Cp4RBHQB62fUpDxHSxipjcfZLPwDQebvv/r24+Lh3xb+9blasuWxy9rgG9KfuD+sxMqh/rgZjAAAwfhd09QFCerrKuDL7JR8A6K5tXnBnnDn7Q/GPp82LBy7ZIntkA/pL94b1MKgDQFPM6MrDgzTaylia/WIPAOTZZNtHYv+9/j0WHvcn8c9nH+UudqAbOj+sh0EdAJrilo4+NEjjqYzrs1/mAYD6aN3FfuTAv8Q7T7pk3VUxD1+6afb4BjTTVR17x6levjetXFeDEQAAmLgrO/bQII23Mm7IfnkHAOrrt6f/Ml528Mfjg6ecHSsunJo9wgHNcnnb32+qF+/JlaU1GAAAgPaY1/YHBmmilfHv2S/rAEDv2GP378aFx17uqhigXRa37d0mRgb1q2rw8g8AtMfaylZte1iQ2lUZP8x+OQcAelPrqpg5A1+MPzlp4bqrYmowzgG9aWFb3m2ql+6/rMHLPwDQPl9vy0OC1O7KuD37hRwAaIbWVTHzDvzH+IuXviGWvXmX7JEO6C0XTui9pnrpvqIGL/4AQHstas8CKrW5MlZnv4ADAM30oj2+HRcf96742rmHxCOXbZI92AH1t2hc7zTVC/fiGrz0AwDtN6u9S6jUhsqYkv2yDQD0h+fs8IuYf8jfxd+88jVx10XPzR7ugPp6x5jeaaqX7UU1eOEHANpvZWVSh2ZRafyVMTX7BRsA6E8zdvtBnH/0kvjsmcf5g6fAE71vVO8zYVAHgCa7tsPTqDS+ypiR/UINALDl9vfGyw/++/i/p74y7l24ZfaYB9TD4qd8lwmDOgA03YIuTaTS2Cpjv+yXaACAJzp2/+vjXSddHP967sHZox6Qa9EG32PCoA4A/WB6V4dSabSVcXj2SzMAwFOZst2qOHLgX+LyeRfG99+0a/bAB3TfRY97hwmDOgD0g2VJc6n09JXVP6E1eFkGABitF+zy/8WCI/8q/vG0ea6Kgf7x6nXvL2FQB4B+sSR5NpU2Xhmvzn4xBgCYiFkz/y0uPu5d6/7gaQ2GP6BzXl786oji3auOKb5Tgxd9AKCz5mXvptJGK+PN2S/CAADjddg+X4nfP+EP41/OPjLuWfjs7MEP6KyXrHuHGR4olty2fxG/PLyIB+cW2S/8AEBnbJE8m0obr4zLsl+GAQBGY4vtHohD9v5aXHjs5fGp0wfj/oufmT3wAd2xpnLS495jhgeKCyvR8rNZRdw7p4i1JxbZL/8AQHvckLOUSqOsjHdmvyADADzR7+x4R8wZ+GK85Zg/iw+dcmZ887yB7FEPyPP6Db7LDA8UQ+uH9ZbW1+u/OLyIh44rsocAAGBiLu7yRCqNrTI+kP3SDAD0t613uDuOP+C6GDrhj9Z9gb7iwqnZAx5QH+c95fvM8ECx6LHD+norZhVxz5FFrDmhyB4FAICxm9mlaVQaX2UszX6RBgD6x6bTHo599rwp3nDUX8RHTz01fnLBDtmDHVBfZ43qnWZ4oHj3hob19X5+SBGrjimyxwEAYHRurUzq8CQqTawyrst+uQYAmqt1D/oR+34p/uCERfHFs+e4Bx0YjbWV08b0XjM8UFzxVMP6+uthVs4u4uHji+yxAADYuGs6s4JKbayMr2S/bAMAzfHcF9wVg7M+Fe9+8dvi3143K3uYA3rT6L5Qf2LDA8X7nm5YX++Og4q4/6giezQAAJ7s9DbPn1L7K2NZ9ss3ANB7Wte47LH7d+NVh34k3jPvovj8WcfEXRc9N3uIA3rbmhjvoN5qeKCYXLlqtMO6r9cBoHbWVqa1cfqUOlMZt2S/lAMA9fdb2/8q5u7/ufjjwUvjK+ccFqsumZI9vgHNMrFBfX3jGdbXu/PgIh44usgeEwCgn32rDXOn1PnKuCP7JR0AqJ+pO66Ilx388bji5AviP87bN3tsA5pv4oP6+h4d1peOZ1hv+emjX68/4ut1AOi2JW17IJA6WRmrsl/aAYB8s2b+W1xw9BXxd6+aHz+5YIfscQ3oH+35Qv2JDQ8Um05kWF/vrkOKWH1skT0wAEC/mNv2hwKp3ZWxZfYLPADQfTvO+HHMP+Tv4r0nvzW+fu5B2YMa0N/aP6ivr13DesvPZhXxqyN8vQ4AHbS6snnHHgykdlXG1OyXegCgs8qdfhovPvDadXehX3/msbHy7VtlD2gA672l4+88jw7r17VjWH/s3ev3H13E2hOL7PEBAJrk+o4/GEjtqIwXZr/oAwDts8V2D8Qhe38tLjr2PfEPr3lJrLhwavZgBrAxC7v23vPosP7Jdg7rLbftX8QvDivioeOK7BECAJrg/K49HEgTqYxZ2S//AMD4Td95ebzy0P8bf/7SN8U3zxuIhy59RvZIBjAai7r+7vPosP7X7R7W17v9wCLum+PrdQCYgJldf0CQxlMZR2ePAQDA6Gy5/b0xe98vx9vmvttX6EAvW5z2/jM8UEzq5LDecut+I1+vPzi3yB4mAKCXDKc9IEhjrYyXZQ8EAMCGvWiPb8fr5/xlXH3KWfHdN+6RPYIBtMMV2a9AXRnWH/v1+r2+XgeA0bgm+xlBGnVlnJM9GAAAETvv+sM49dCPxp+d/Jb46jmHxgOXbJE9fAG02/uyX39+3fBAMbmytBvD+mO/Xnf3OgBs1Pzs5wNp1JVxQfaIAAD9ZscZP45TDlkal8+7ML782tlxz8JnZw9dAJ1Wn0F9fY/esX5dt4b1X3+9fpC71wFgA56T/WwgjbqyerytwbgAAE21zQvujBNnfTr+ePDS+OLZc2Ll27fKHrYAuu3d2a89G214oJhS+Uq3h/WW2/Yr4m53rwNAy83ZzwTSmCpjcfbYAABN8YxpD8XAi74ZbzzqffGRU18VPz5/x+whCyDbO7NfeZ624YFiy6xhfb0Vs4q458giHjmhyB41ACBD3l8xl8ZTGR/MHiAAoFdN33l5vOLgj8V7T35r/Ou5B2cPVwB1k/9HSUfbo8P61zKH9fXuOqSIVccU2eMGAHTT4dnPAtKYKmNp9iABAL3guS+4K44/4Lr4gxMWxXVnHB93v23r7LEKoM56Z1BfX52G9ZafHlDEr44o4pHji+yhAwA6aXVl8+znAGlMlfH57JECAOro0H2+Gm895r2x9FWnxE8u2CF7nALoJVdnv+aMu7oN67/+ev3gIh7w9ToAzXR99vkvjbkybsweLQAg2/N2+lm85KB/iD+d93vxjdcdGKsv2Tx7kALoVb07qK+vrsP6475ed/c6AM1xQfbZL425MpZlDxkA0E2bTns49tnzpnV/TPSjp54ay98yPXuAAmiKqyqTs19x2tKjw/pN2SP6xtxa+fkhRaw+tsgeQgBgomZkn/vSmCvjp9njBgB00jYvuDMGZ30q3nnSJfGl1x4R91/8zOzRCaCJlkZTBvX1DQ8UW1f+I3tAfzo/m1XEPUcWscbX6wD0nluyz3tpXJWxOnvsAIB2eca0h2LgRd9c9xX6R059Vfz4/B2zRyaAfnBdZdPsV5uO9Oiw/v3s4XxUX6/vV8TdhxXx4NwieyABgNH6YPZZL42rGgwgADBeU3dcES8/+O/jvSe/Nb5+7kGx6pIp2cMSQL9pDepTsl9rOtrwQPG8XhnW11sxq4h7W1+vn1hkjyUA8FTmZZ/z0pgrY6vsMQQARmvL7e+N2ft+Od4+d3Fce9qLY8WFU7OHJIB+99Vo+qC+vl4c1td/vf7zQ929DkAtra1slX3GS2OujKnZAwkAbMgm2z4Se+1xc5x75Afi6lPOiu++cY9Yc9nk7PEIgN/4WmXL7FearvbosP6T7KF8vNy9DkDNfD37bJfGVRkvzB5NAKBlh11+Eq84+GNx+bwL46vnHBoPXLJF9lgEwMb136C+vuGBYmrlB9kD+UTddUgRDxxdZI8pAPS3RdnnujSuypiVPaIA0H9+d8fb48RZn44/PPH347NnHhd3v23r7HEIgNG7Kfp1UF9fU4b1ltv2L+KXhxfx0HFF9rACQP+ZlX2mS+OqjOOyhxUAmu3Z298Tcwa+GAuP+5P4h9e8JIbful32GATA+LUG9a2zX2NqUZOG9fVuP7CIe+f446YAdMXKyqTs81waV2XMzx5bAGiWHWf8OF5z2N/E+192Xnzr9TPdgw7QHAb1J9bEYb3FHzcFoAuWZp/j0rgr47XZ4wsAvWvKdqvi4L3/NS4+7l3xT6efFHdetE324ANAZxjUN1ZTh/X1/HFTADrkjOwzXBp3ZVyYPcgA0Duev/P/rPtjov/7JW+O/7dgv+yBB4DuMKg/XU0f1n/99fohRaw6psgeYQBohunZ57c07spYnD3QAFBPz3z+/XH4PjfE2+cujn88bV6suHBq9qgDQPcZ1Efb8ECxQ+Un2eN3N/z0gCJ+dYSv1wEYt+9ln9vShCpjSfZoA0A97LzrD+P0w6+Jv3r5gnV3oT9y2SbZQw4AuQzqY62fhvVff71+qLvXARizJdlntjShyrg6e8QBoPu2mr4yjt7vC3HZ8e+Iz555XNz9tq2zhxsA6sWgPt4eHdZ/lj14d9uKWUXcO6eItScW2UMNAPU3N/u8liZUGUuzhx0AOmuTbR+JmXt+K1535JXx4flnxPfftGusHZqUPdYAUF/fCYP6xBoeKHbtx2F9/dfrvzisiIeOK7IHGwBqKvucliZcGV/MHnsAaK9yp5/GSw76h3jPvIvihnMOjwcu2SJ7nAGgd/ygMjX7NaURPTqs3509cme6/aAi7jvK1+sAPM6Xs89oacKVcWP2+APA+G25/b0xe98vr/tjop887WR/TBSAiVgeBvX2NjxQ7Nvvw3rLba2v1w/39ToA6yzMPp+lCVfGsuxBCIDRaV3jstceN8e5R34grj7lrPjuG/eINZdNzh5gAGiG5ZXp2a8njWx4oNjHsO7rdQB+bWb22SxNuDLuyB6JANiw5+/8P/Gygz8el8+7ML5yzmGucQGgU1aEQb2zGdafzNfrAH3p1sqk7HNZmnBlrM4ejQCIeM4Ov4hj9vt8XHb8O+JTpw/GnRdtkz2wANAfWoP6jOzXkr7IsL5xtx9YxH1zfL0O0AeuyT6PpQlXxpTsEQmgH03ZblUcOPMbcf7RS+Kjp54aPzr/hdmDCgD96Y4wqHc3w/pTu3W/Iu4+rIgH5xbZow8AnXFG9lksTbgynps9LAH0g912+684/fBr4v0vOy/+47x9swcUAGi5vbJL9itJX2ZYH50Vs4q458gi1pxQZA9AALTH2sq07HNYmnBlzMgemgCaZoddfhKvOPhj8afzfm/dPej3Xfys7NEEAJ7oljCo52ZYH5ufH1rEqmOK7DEIgIn5Vvb5K7WlMmZmj08Avex3d7w9Tpz16fijE4fic2fOjbvftnX2SAIAT6c1qG+f/SqiYt2wvm/l3uzBupf8zNfrAL1sSfbZK7WlMg7NHqQAesn+L/z3OH/mkvjrg067fdmLd/l/NRhGAGAsDOp1a3igOMywPnatu9dbX6+vPrbIHogAGL252eeu1JbKmJs9UAHU1e88/4548W7Xxrv3e1t89YhDY9UJU578TPD24oEaDCQAMBrLwqBezx4d1ldlD9W9qnX3+r1zilh7YpE9FgGwcasrm2efuVJbKmN+9mgFUAeTyrWx+47fi9e+6P/Ehw46M5YdvcvongvOLbIHEgAYjdag/rvZrx96ioYHiuMN6xPT+nr97sOKeHBukT0cAfBk12WftVLbKuN12UMWQIbtpg/HS3b7h3jXfhfH5w8/JlYev9X4ngvmF9kjCQA8neWVqdmvHhpFjw7rD2eP002w4kB3rwPUzAXZ56zUtspYmD1sAXTac59/V8yd8bm4bN93xD8delLcedw27X02eFuRPZYAwMYsr0zPfu3QGBoeKF6ePUg3zV0HF3H/0a6HAUg2M/uMldpWGYuzxy6Advqt7X4VR+zypXjbPu+Ovz/k5bH82OmdfzZ4XZE9mADAhiwPg3pvNjxQvCx7iG6i2/Yv4peHF/GQ62EAuu3WyqTs81VqW2VcmT2AAYxX6x70XV6wLM7Y88PxgQPPje8ctWesHZzU/ecDV8AAUD/Lw6De2w0PFC/NHqGbrPXHTdddD+PrdYBuuCb7XJXaWhlLs0cxgNF69nb3xJxdvrjuGpfrDjs+7j5u6+zngt9YWGSPJwCw3vIwqDejYV+sd1zrj5v+4jBfrwN02PzsM1Vqa2Vcnz2SAWzIhr5CXzM4Ofs5YOMWFNkDCgC0LA+DerMaHijmZQ/P/eKOg4q4/6gi1mY/WAI0y9rKVtnnqdTWyrghezgDaNlu+nCcvNsn4537XRKfP/yYWHn8Vtnn/ti4AgaAfD+r7JD9iqEONDxQzM0enPvJT/cvYuXsIh45vsh/yATofTdnn6NS2yvjxuwhDeg/v/P8O+KEXT8Tf7Dvovj0YSfGncdtk33Gt4crYADIc3dl1+zXC3Uww3qOnx9SxKpjivwHTYDe9c7sM1Rqe2X8MHtcA5qtdQ/6sTOuj0v2eWd88tCT49Zjp2Wf553jChgActxb2Tf71UJd6NFhfVX20NyPfnpAEb86wtfrAOMwO/v8lNpeGbdnD25Ac/TcPejt5goYALqvNagflv1aoS42PFAcYljPddfBRTxwdJH/8AlQfysrm2efnVLbK2N19ggH9K7WV+hzdvliXLbvO+K6w46Pu4/bOvu8zucKGAC6Z1UY1PuzYV+s18Jt+xfxy8OLeOi4Iv8hFKCers0+M6W2V8aW2YMc0FtaX6Gfvuc1ceWs18W3j3pR9tlcT68vsgcWAPrDw5Xjs18plJhhvV5uP7CIe+cUsfbEIv+BFKA+zs8+L6W2V8bU7IEOqK9nTbsvZu/y5bh4n3fFpw4bbM4fE+20VxbZIwsAzdca1E/Jfp1QDTKs18+t+xXxi8N8vQ7wqBnZZ6XU9sqYkT3aAfWx4w4/jlfv8bfxl7NeH/85Z+945MRNss/e3uUKGAA6Z03lZdmvEqpRjw7rD2ePyTzZHQcVcf9Rvl4H+tYt2Wek1JHK2Dt7xANytL5CP2znr8RFe78nPnnoyb5CbzdXwADQGa1B/azs1wjVsOGB4mWG9fpq3b2+cnYRDx9f5D+oAnTPldnno9SRypibPewBnbfZtg/GwE7fjPP2en9cfeBZ8Z2j9ow1g5Ozz9Zme1WRPboA0EwGdW08w3pvWPf1+tFFrM1+YAXovHnZZ6PUkcqYnz32Ae21ybaPxJ47fifOetHV8f5Z58U35wzEgyduln2O9p+TClfAANBOvlDX6DKs947W1+u/PNzd60Bjra1slX0uSh2pjFdnD4DAxGy7/W3x8t3/PpYccH587YhD4oETtsg+N1nPFTAAtIdBXWPLsN57bj+wiHvnFLHG3etAc9yYfR5KHauMBdmDIDB6z9j2odj/hf8e589cEh875BVx67HTss9InoorYACYOIO6xtejw/qa7LGYsbl1vyJ+fmgRq44p8h9mASZmUfZZKHWsMhZmj4TAxv3O8++IF+92bbx7v7fFV484NFadMCX7TGQsXAEDwMQY1DWxhgeKswzrveunBzz6x01dDwP0ptnZ56DUscr40+zREPiN1h8Tff1efxkfPuiM+OHRO2eff7SDK2AAGB+DutqTYb0Z1v1x06OKWOt6GKA3rKxsnn0GSh2rjCuzR0ToR5PKtTHjBT+I1+z5N/HnB7wpbjzyAH9MtKlcAQPA2BnU1d4M682x/o+b+nodqLlrs88+qaOVsTR7XIR+8Pzp/xMv3f0TsXi/t8eXZh8R9xz/7OzzjW5xBQwAY2NQV2cyrDePr9eBGluQfe5JHa2M67LHRmia52z3izhmxufjsn3fEZ8+7MS487htss8ysrkCBoDRM6ircxnWm8nX60ANTc8+86SOVsaN2QMk9LIp01bFgS/8Rpw/c0l89OBT40fHvDD73KKOXAEDwOhckP16oD5oeKC4MHsEpnPWf72e/gAM9LMfZp91UscrY1n2KAm9YnK5Jnbf8Xtx5p4fir+atSBumrNPPHziptlnFb3AFTAAPD2DurrX8ECxMHv8pbN8vQ4kWpJ9zkkdr4zbs4dKqKttt78tTt7tk+vuQf/y7Nlx3wnPyj6X6GWugAFg4wzq6n7DA8Xi7OGX7rj9oCLuc/c60D3zss84qeOVsTJ7uIQ62HLavTF7ly/H2/dZHJ889ORYMXdq9hlE07gCBoANM6grr+GB4vLswZfuuW2/In5xeBEP+Xod6JzVla2yzzep49VgzIQMe+/0n3HOi66KDx54dnznqD2zzxz6QesKmEuL7OEGgHoxqCu/4YHiquyxl+5r3b1+3xxfrwNtd0P2uSZ1vDKmZA+b0A1Tt18RL97t2njXfhfHl2YfEQ+csEX2GUO/ekORPd4AUB8Ls18HpHUNDxSTDev9a93X64cV8eDcIv9hGWgCDzhqfmVMzR47od2mTFsVB+389Xjr3u+Njx3yirjl2O2zzxP4DVfAADBiUfargPS4Hh3Wl2YPvORacaCv14EJm5l9pkkdr4w9sgdQmKgX7vCjOG3Pv46/mPWG+OacgeyzA56aK2AAMKirrg0PFJtWrssedsl3635F3H1oEQ8eW+Q/QAO9ZGVlUvZ5JnW8MmZlD6IwFs/e7p44cpd/iUv3/eP49GEnxt3HbZ19XsDYuQIGoJ8tyn4FkJ6y4YFiSuVz2aMu9bFiVhH3zilija/Xgaf30exzTOpKZczNHklhYyaVa2O3F/xXnPWiq+OqA8+J7x61R6wZnJx9PsDEuQIGoF8tyn78l0bVsGGdDWh9vf7zQ4tY7et1YOPOyD7DpK5Uxsuzh1NY77e3+2UcO+P6WDTwB3H94cfGyuO3yj4LoHMuKbKHHQC66x3Zj/7SmBo2rPMUfjariHuOLGLNCUX+gzVQJ9Ozzy+pK5WxIHtIpT+1vkLf5QXL4ow9PxwfOPDcdV+hrx2clP3bD93jChiAfnJF9mO/NK6GDes8jXVfrx9SxKpjivwHbCDbsuxzS+paZVyYPa7SH5457f44fJcb4rJ93xGfOewEd6GDK2AA+oVBXb3d8Miw/rXs8Zb6++kBRfzqiCIe8fU69Ksl2WeW1LXKWJQ9ttI8z9j2odh7p/+M1+11ZXzwwLPj20e9KB45cZPs33aol5MqlxbZQw8AnWVQVzMaHii2HDasMwZ3HVLEA75eh34zN/u8krpWGYuzB1h62/prXF6z59/Enx/wpvi3I2fF6hM3z/4dh97wxiJ77AGgc67OftSX2tqwYZ1x+PXX68cX+Q/fQCetrmyefVZJXauMD2aPsvSWcvufxrzd/jHetd/F8YXDj457jn929u829C5XwAA01dWVydmP+lLbGzasMwF3HlzEA0cX+Q/hQCfckH1GSV2tjI9lj7TU17Om3Rezd/lyvG2fd8c/HPqSWDF3avZvNDRL6wqYS4rs4QeA9jKoq9kNG9aZoNv2L2Ll7CIe9vU6NMnC7PNJ6mplXJ893FIPm2z7SOy1481x7os+EFcfeFZ896g9Ys3g5OzfZGi+NxXZ4w8A7WNQV380bFinTVpfr99/VJH/UA5M1F7ZZ5PU1cq4MXvMJcc2z78zBnf9VLxzv0viX2YfGfef8Mzs31/oT68usgcgANrjE9mP9lJXGx4Z1m/KHmVphtbX6788vIiHjyvyH9CBsbq1Min7XJK6WhnLssddOu8Z2z4UAzt9M944833xkYNfFT8+Zsfs31tgPVfAADTBJyubZj/aS11veKDYetiwTpvdcVAR9x1VxNoTi/yHdWA0rsk+j6SuV8Zt2YMv7Td1+xVx8m6fjPfu/9b4+hEHxaoTpmT/vgJP5U1F9hgEwPj9dRjU1c8NG9bpkNv2K+IXhxfxkK/Xoe7OyD6LpK5XxursAZiJ2XTbh2OfnW5a9xX6Rw8+NZYfOz37txQYq9OK7EEIgPFpDer+v52lYcM6Hbbu6/U5vl6Hmto++xySuloZU7IHYcbufz3/53HCrp9Zdxf6l2fPdhc6NMG8whUwAL3HoC49tuGRYf0H2eMrzbbu6/XDinhwbpH/EA+03Jx9/khdr4zfzh6IeWpTpq2KA1/4jTh/5pJ1X6H/6JgXZv9WAp3ypiJ7HAJg9Azq0oYaHiimDhvW6ZIVBxZxr6/XIduS7LNH6nplPC97NObxXrTjt+PMPT8UfzVrQfz/7N17/K51Xef7L0hyGNgWj2QUKZFNJaZbRm5hKSCIgAjehYgoIaQIHodEQwZEc03NY6Jskk6OOdFkOjtL03ZlWDaTjtYwhWajD6n2RpprLVicFoe1YLFgHb77c/uDRGCt9Tvc9/25Ds/X4/H83wP3dX2v9+Pi+n35Jc/Lvi4C8+QTMABdYVCXdlZjWGfO1nh7HTKdkn3fkebegfU52SPykD35+2+rLz/sj+q/G11R/9vxL673nvYvsq+DQKbJJ2DeU7KHIgB2zqAuLaZmYVj3jXXmbvL2+uTb69u8vQ5zkX2/kVI6sK7KHpaH4olPe6Ae9QPXfuszLr9z9Gv8MVHg8V1UssciAHbsN7OP71KnavzxUhJN3l5ff2ypD7y05B/yob8+m32vkVI6sL48e2zuqx94xj/Ws5/9f9f/cOQ765defHT2NQ7oCp+AAWirj4fds4/vUudqDOu0wLpVpW48odRtp5X8Az/0y8XZ9xkppQPrmdnjcx8c8owb6lk//Lv1555/af3z419SN5y6X/Y1Degqn4ABaKPJoL5H9tFd6myNYZ2W8PY6TN3h2fcYKaUD6wXZg3TXHPj0m+rpz/p0/ffPv7z+6XEn17tPfVL29Qvom4tL9ngEwLd9phrUpZXXGNZpGW+vw4qtCf7QjIbZgfWy7JG6zfY9aGM9/of+ol76vJ+rnzzmlXXdKU/Jvl4BQ/D6kj0gAbBgMqjvlX1kl3pTY1inhb719vqLSn3glJL/IADd8lvZ9xUprQPrT2cP123ynP/zf9U3PfdD9eoXnF+/duKzs69NwFCdUXwCBiDfF6pBXZp+jWGdFlv3glI3vqTU7S8v+Q8F0H6vy76nSGkdWD+UPWRn+e7vu6u+9JmfratH7/MZF6B9fAIGINNkUN83+6gu9bZmYVj/YvaACjvi7XXYpe3hoOz7iZTWgfW3ssfteb+F/p9ecEH9+ok/nH3tAdg5n4AByHJdNahLs69ZGNavyx5PYVcmb6/f6+11eLS/zb6PSKkdWH83e+yehWcecn39sWf/l/qBoy6uX3rx0XXTaXtnX2sAluYVJXtUAhiir4T9s4/o0mBqFob1b2SPprAY3l6H7/CB7HuIlNqB9b9mD+Artf/3r68vO+xP6k+P3ls/d9yJdcOp+2VfVwCm4x0le1wCGJLrq0Fdmn/NqDy1MazTMetWlbrhhFK3nlbyHxogxynZ9w8ptQPrtdmj+FI84Wlb67869Cv1Lc/9YP3IC8+r/3jyD2RfQwBmxydgAOZlMqg/JftoLg22xrBOh91xTKn3n1zyHx5gfjaHPbPvHVJqB9b/L3so35nDDvlGPfc5v12vOurt9YsvPsZnXIBhOaNkj0wAQ2BQl9pQszCsfzN7IIXluumoUu8+vtQtLyv5DxIwW5/NvmdI6R1Y78gezh/2tKevra/84U/WXzjyJ+vnjz+u3nvav8i+RgDk8wkYgFkyqEttqhmVZzSGdXrg1heWet+JJf9hAmbj7dn3Cym9pAF9r4Pury/4gb+q7/hXv1h/95iz6pqXHpR9PQBoJ5+AAZgVg7rUxpqFYf3m7FEUpmHtkaXedVypW04t+Q8WMD2HZ98rpNQOrHvNa0T/P77vnm/9MdGfff5l9S9f/ML64Mu/K/v3D9ANryjZoxNAH91YDepSe2tG5bDGsE7P3HZ0qZtOKvkPGLAya8Ju2fcJKbUD6/fOakR/ytPX1Vc861P1A0ddXK97yRHZv3eAbvvJkj0+AfTJjeHg7KO4pF3UjMozw7rsIRSmbfLt9Q0vLnXbaSX/QQOW7rey7w9SegfWZ0xrRD/qB66tP3H4L9WPH/Pq+r9f+v3Zv2+AfnlDyR6gAPrixmpQl7pTY1in5+44ttTNLy35DxyweK/NvjdI6R1Yn7ecAf15h365nv9/XV1/bdVb61+f8Pzs3zJA//kEDMA0/FN4evYRXNISaxaG9fXZ4yfM0s2rSr3nxaVu9fY67bY9PCn7viCld2A9flffQX/JD/15fc8RP/OtPyb6jZMOy/7tAgyXT8AArIRBXepyzag8rzGsMxC3H1PqppNL/gMIPNa12fcDqRUdGL+GR4zo3/19d33rO+gfXPWW+vUTfzj7dwrAI11QsgcpgK4yqEt9qDGsMzCTb69/6+31U0v+wwgseF/2vUBqQ0ccet2rTnrmn902+WOiX37J87J/lwDszJkle5QC6CKDutSnGsM6A3Xb0aXed1LJfyhh6I7Pvg9IbSl+D6eH/7cFv0sAdsUnYACWwqAu9bHGsM6ArT2y1LuPL3WLt9eZv7vDntn3AKltxe/i3eGuFvxGAdgRn4ABWCyDutTnGsM6fOvt9U3eXmd+/iD72i+1tfh97BP+dfhmC36rADzaq0r2SAXQBQZ1aQg1hnX4Fm+vMydvzr7uS20vfidPDZ9uwe8VgEe7pGSPVQBtZlCXhlQzKkeEjdmjJrSFb68zQwdnX/OlrlQXvrd+cwt+twA8zCdgAHbkxnBw9hla0pxrRuVFjWEdvsPk7fU7jyv1gVNK/gMMffD32dd6qWvF72b3cG64sQW/YQB8Agbg8dxYDerScGsM67BD615Q6sYTSt12Wsl/mKGrrsq+zktdLX4/e4Z3hHta8FsGGLZLSvZ4BdAm66pBXVKzMKzfnz1gQluteX6pdxxb6v0nl/wHGrrmlOxrvNT14nd0QPhI2N6C3zTAMPkEDMDDJoP6M7PPyJJaUjMqpzaGddilm44q9Z4Xl7rV2+ssQva1XepT8Zs6Knw1+3cNMEg+AQMwYVCX9NgawzosyeTt9c0vLfkPObTVn2Zf16W+Fb+r3cLZYU0LfuMAw3JpyR6zADIZ1CXtuGZhWN+SPVZCl6xbVeq9Lyl1+8tL/sMObXJZ9jVd6mvx+9onXBk2t+C3DjAMF5bsQQsgi0Fd0q5rRuXVjWEdlmztkaXeeVypD76s5D/00AaHZ1/Ppb4Xv7ODwseq760DzJ5PwADDtL4a1CUttsawDity6wtLvfdEb68P2Lrs67g0pOrC99avbcFvH6DffAIGGJY7w/Oyz7qSOlYzKmc2hnVYkTXPL3X9sb69PkC/lX0Nl4ZWXfje+jnV99YBZueNJXvgApgXg7qk5dcY1mFqbjqq1HteXOrWU0v+AxGz9rrs67c01OrC99YvCxtacC0A6JezSvbIBTAPG6tBXdJKawzrMHXf+jyMP27aZ/8y+9otDb34HR4QfiNsa8E1AaA/fAIG6LfJoH5M9llWUk9qDOswE5M/bnqXP27aN1/NvmZL+nbxm3xu+HwLrg0A/fCmkj14AczK/dWgLmnaNYZ1mKnJ2+v3nVTq9uwHJVbqyuzrtaTHFr/NU8P1LbhGAHTba0r26AUwC5NB/ZTsM6ukntYsDOvbssdH6LObjiz17uN9e73Djs++Vkt6/OL3uUd4e1jfgmsFQHf5BAzQL1uqQV3SrGtG5fzGsA5zcfsxpW46qeQ/OLEUe2VfpyXtvPid7h9+PmxuwTUDoHt8Agboj8mgfmb2+VTSQGoM6zBXNx1V6j0v9vZ6B3w2+/osafHFb/aQ8KkWXDsAusUnYIB+2FYN6pLmXWNYhxS3He3t9Ra7OPvaLGnpxW/3uPDVFlxDALrjspI9hgGs1Ouyz6GSBlozKhc2hnVIsfahb69v8fZ6mxyefV2WtLzi97t7eG1Y04JrCUD7vbVkj2EAy7U9nJd9/pQ08JqFYT19YIQh8/Z6K0yGuN2yr8mSVlb8jvcJ7wv3teC6AtBeZ5fsUQxgOQzqktpTMyqXZI+KwCO+vX5ayX/QGp7fyr4WS5pe8Zs+KHwsbG/B9QWgnXwCBuiWyR8lNahLaleNYR1aY02445hSN7+05D9sDcdrsq/DkqZf/LaPCte24BoD0D4+AQN0x2RQf0X22VKSHrfGsA6tc/OqUjecUOo2b6/P2vdkX4Mlzab4fe8Wzgg3tOBaA9Ae55TskQxgMQzqktpfMyqXZY+IwGOtef7C2+v3n1zyH8D656vZ115Jsy9+63uGS8OGFlx3APL9SPEJGKDtDOqSulMzKquzB0Rgx2727fVp+7ns666k+RW/+QPCfwrbWnD9AcjlEzBAexnUJXWvxrAOnXD7MaVuOqnkP5B123HZ11xJ8y9++88Nn2/BNQggz4+V7NEMYEdemX1elKRl1YzKldmDIbA4Nx1V6l3Hlfrgy0r+w1m3bA57Zl9vJeVVfW8dGLLJJ2DeXbKHM4BHmryhfmb2GVGSVlQzKh/IHguBpbnlBaVufEmp215e8h/U2u+z2ddZSfnVhe+tvyvc04LrEsB8va1kD2gADzOoS+pPjWEdOmnyx03XH1vq5peW/Ie19np79jVWUnuqC99b/2jY3oLrE8B8nFOyRzSACYO6pP7VGNah025e5Y+b7sDh2ddXSe0rrg1HhWtbcI0CmD2fgAHybasGdUl9rRmVq7OHQWDlJn/c9P6TS/4DXL41Ybfsa6ukdja5PoSzH7pWZF+vAGbropI9qAHDNRnUz88++0nSzGpGZffGsA69Mfnjpt96e/3Ukv8gl+M/Z19XJbW/uFbsE34q3NeC6xbAbLy2ZI9qwHAZ1CX1v8awDr00eXt900kl/4Fuvl6TfU2V1J3imvHk8MGwpQXXL4DpmnwC5oqSPawBw+INdUnDqjGsQ2+tPbLUu44r9cGXlfyHu9ma/BHCJ2VfTyV1r7h2/GD4gxZcxwCm66KSPbABw2FQlzTMGsM69N4tLyj13peUuv3lJf8hb/quy76OSup2cR05OvxNC65nANNxbske2YDheEv2WU6S0moM6zAIa55f6p0v6t3b66uzr6GS+lFcT84L/9SC6xrAyvxo8QkYYB4uyT6/SVJ6zcKw/ons0Q+Yj1tfWOp9J/bi7fVV2ddPSf0prilPDJeHDS24vgEs30Ule2wD+u2y7HObJLWmZlT2CB/PHvuA+en4t9fXZ183JfWzuvDHTH+1+mOmQFedV7IHN6C/Vmef1SSpdTULw/pnsoc+YP4mb6937Nvrf5B9zZTU7+rCHzP9dAuudwBL4xMwwGxcmX0+k6TW1ozKXo1hHQZr7UPfXn/glJL/QLhzF2ZfLyUNo7rwx0y/1oLrHsDiXVSyxzegX96ffSaTpNbXLAzrX8ge94Bc//zt9eyHwsd3cPa1UtJwimvO7uGCcEsLrn8Au+YTMMD0fDj7LCZJnakZlX0bwzoQbjqy1LuPL3XraSX/AXHBP2VfIyUNs7j+7BdWh/tacC0E2LHJJ2DeU7KHOKD7Phx2zz6DSVKnagzrwKPccUypm04u2Q+Kv5R9fZQ07OI6dFD4WNiePpwB7MhPlOwxDui2j1eDuiQtr2ZhWL8ue8gD2mXtkaXedVypD+Z8e/307GujJE2K69FR4dr04Qzg8fgEDLB8n8w+Z0lS52tGZf/GsA7swLpVpW48odRt8/s8zPdkXxcl6ZHFdem1YW36gAbwSD4BAyzPJ8Ie2ecrSepFzcKw/o3s8Q5orzXPL3X9saVufmmZ5QPi57Ovh5L0eMX1aZ/w3up760Cb+AQMsDQGdUmads2oPCVcnz3cAe33z2+vv7xM++HwfdnXQknaWXXhe+ufTB/SACZ8AgZYvGuqQV2SZlNjWAeWYPL2+h3HTvXt9eOzr4OStJjienVc+Gr6oAYMm0/AAIszGdT3yj4/SVKvaxaG9S9nj3VAt9y8qtR7Xlzq1lPLch8M7w0OepI6U1yzdg+vD7ekD2vAcF1cssc6oN0M6pI0r5qFb6wb1oFlue3oUjedVJb6UPgH2dc+SVpOcf3aL1wVtqSPa8Dw/HjJHuyA9jKoS9K8awzrwApN3l7f+JJSty/u2+tvzr7uSdJKiuvYweHT6QMbMCw+AQM8PoO6JGXVGNaBKZh8e339i0q9/+Sys4fCg7OveZI0jeJ6dnT4m/ShDRgOn4ABvpNBXZKyawzrwBTddFSpG0/41tvrj/xMwt9nX+skaZrFdW23cF5Ykz62Af3nEzDAt322GtQlqR01hnVgyiZvr99xbLlt62nlr+Nh8Krs65wkzaK4vu0dLg8b0kc3oL9OLz4BA0x4Q12S2lazMKx/JXuIA/rnvjeU34nD34nZ1zlJmlV1XJ4crk4f3oD+8gkYGDqDuiS1tWZhWL8ue4AD+mXb5eW+hw6CTXh/eHb29U6SZlEdl8PD59PHN6B/Xl+yBz0gj0FdktpeszCsfyN7hAP6Yd0JOzwYfjG8OnxX9nVPkqZdHZdXhm+mj3BAf5xRfAIGhsmgLkldqRmVpzaGdWAK7j5rl4fEdeHfh6dnX/skadrVcbm0+t46MC0+AQNDY1CXpK7VGNaBKdj8tkUfGLeHPw2vDHtkXwMlaVrVcTkgfDhsSx/kgG7zCRgYEoO6JHW1ZmFY/2b2KAd009oXlLr9imUdIO8IV4VnZV8HJWla1XF5bvW9dWAlJp+AyR/6gNkzqEtS12tG5RmNYR1YhtteNpUD5bXhgrBv9vVQkqZRHZdXVd9bB5brJ0v22AfMlkFdkvpSY1gHlmHDuVM9XG4KHwsvCbtlXxclaaXVcXl7uCt9oAO65fySPfgBs2NQl6S+1SwM6zdnj3RAd2x558wOmzeG1dUfN5XU8eq4fE94f9icPtQB3eATMNBXX6wGdUnqZ82oHNYY1oFFuPnYuRw8N4ePhFH29VGSVlIdl4PDp9PHOqAbfAIG+mYyqPvcpST1uWZUnhnWZQ92QLvdOf+3qP46nBf2zL5OStJyq+NydPib9MEOaLcLSvYACEzPl6tBXZKGUeONdWAXNr0x7VB6d/hQWJV9rZSk5VbH5bVhTfpwB7TTmSV7BASmYzKo75997pAkzbFmYVhfnz3cAe207fL0A+rEP4Z3h6dlXzMlaanVcdkn/FS4L33AA9rHJ2Cg666vBnVJGmbNqBzRGNaBR7nlxPQD6qNtDdeEs8Le2ddOSVpKdVwOCh8N29NHPKA9fAIGumwyqD8l+4whSUqsMawDj3LPOemH1J1pwhUOsZK6Vh2Xo8K16UMe0A6vKtlnKmB5DOqSpIWahWF9Y/aQB7TDAxelH1QX48Hwe+H47GuoJC2luvC99bXpgx6Q79KSfZ4ClubGalCXJD2yZlRe1BjWYfDWviD9oLocfxfeHPbLvpZK0mKqC99bX119bx2G7cKSfYYCFu/GcHD2GUKS1MIawzoM3u2npR9WV2JL+IPwo2GP7GuqJO2quvC99f9SfW8dhsknYKArbqwGdUnSzmoM6zBoG85NP7BOyy3hF8Kzsq+rkrSr6sL31j+fPvAB8+cTMNB2N1aDuiRpMTWj8tJwf/a4B8zflnemH1pn4X+GN4UnZV9fJWln1XF5ZbghfeQD5udNJfucBOzYjdWgLklaSs2onNoY1mFQbj42/dA6a7eHK8Mh2ddYSdpZdVz+TdiYPvYBs3dWyT4fAY/vxmpQlyQtp8awDoNy5xnpB9d52R7+JLw8PCH7WitJj1cdlwPCr4Qt6aMfMFs+AQNtc2M1qEuSVlJjWIfB2PTG9MNrhiZcEZ6Sfb2VpMerjsth4Zr00Q+YHZ+AgTa5sRrUJUnTqFkY1rdkD37A7Kw5stRtl6cfYDNtCZ+uC2+v75F93ZWkR1fH5ZTqe+vQT68p2ecgYMGN1aAuSZpmzai8ujGsQ2/denL6AbZNbgk/Hw7NvvZK0iOr47JnuCTckz4CAtN1Wck+/8DQ3VgN6pKkWdQY1qG37jk7/RDbVl8I54W9s6/BkvRwdeF7678etqUPgcB0+AQMZLo5PCP7/i5J6nHNwrC+LXsABKbrgYvSD7Jtd3f4YDgi+zosSQ9Xx+W54UvpYyCwcj4BA1nWh8Oy7+mSpAHUjMqFjWEdemPtqvSDbNd8ObwlPCn7eixJdVx2C68JTfooCKzMpSX7jANDMxnUvTQjSZpfjWEdeuOOcfphtqs2hY+EY7OvyZJUx2Xv8JPhzvRhEFgen4CBedpYDeqSpIyahWE9fRAEVube89MPtH3wD+Fd4YDsa7OkYVfH5XvCL4YH0gdCYGl8AgbmZTKovyj7ni1JGnDNqJzfeGMdOm2rf9V4mraE3w8vDbtlX6MlDbc6LgeHj4ft6UMhsHiXleyzDPTd/dWgLklqQ41hHTpr3Qnph9o++2Z4d3ha9nVa0nCr4zIKn0sfCoHFeXPJPr9An00G9VOz782SJP1zjWEdOumuM9MPtkOwNfxRGIcnZF+vJQ2zOi4nhq+lD4bAzvkEDMzK5N8oNahLktpXY1iHzrn/LemH26FZE1ZXb69LSqqOywXhtvThENgxn4CBWXhl9j1YkqQd1hjWoTPWHFnq9ivSD7dDNXl7/Q/DqdXb65LmXB2X/erCHzPdkj4eAo/11pJ9ToE+mbyhfmb2vVeSpF3WGNahE249Of2Ay4Im/FT19rqkOVfH5ZnhmvQBEfhOZ5fsswn0xbZqUJckdalmYVjfkj0aAjt2jwe2tvH2uqSU6ricEm5IHxKBb/MJGFipyaB+fvY9VpKkJdeMypmNYR1a64GL0g+67NjDb68fkH0tlzSM6rjsGa4I96WPiYBPwMDKGNQlSd2uWRjW08dD4DutXZV+0GVxHgyfCCeG3bKv6ZL6Xx2Xg8LvpQ+KMHT+jUJYCYO6JKn7NaPy6sY31qFV7hinH3RZurXhZ8Kh2dd1Sf2vjsvx4evpwyIMmU/AwFJ5Q12S1K+aUbmwMaxDa9x7fvqBl5X5Qjgv7J19fZfU3+q47B7OC2vSx0UYIp+AgaUyqEuS+ldjWIfW2Hpp+oGX6bg7fDAckX2Nl9Tf6rjsHS4PG9JHRhiSc0r2OQO65OLs+6UkSTOrWRjW0wdFGLJ1J6QfeJmNr4d3hP2zr/WS+lkdlyeHq8O29LERhuLykn2+gC54e/Y9UpKkmdeMyiXZoyIM2d1npR96ma3N4XfCCdUfN5U0g+q4PDt8Ln1shCHwCRjYlX+dfV+UJGluNYZ1SLP5bekHX+bnm+GKcED2dV9S/6rjcmL4WvroCH3mEzCwMwZ1SdLwakblsuxxEYZm7apSt1+Rfvhl/raE3w+nhCdkX/8l9as6LheEW9PHR+ijHwmXlexzBLTN9mpQlyQNuWZUVmePjDAkt5+WfgAm35rwb8PTsu8BkvpTHZf9wr8Pm9NHSOgbn4CBR5oM6udl3/ckSUqvGZUrs4dGGIoN56YfgmmPyQPJn4YzqrfXJU2pOi6HhGvSR0joE5+AgYcZ1CVJemTNqLw/e2yEIXjw4vSDMO00eXv9fdXb65KmVB2XU8L16WMk9IFPwMCEQV2SpMerGZUPZA+O0Gc3HZN+EKb9toY/DKdVb69LWmF1XPYIbwvr00dJ6DqfgGHYDOqSJO2sxrAOM7P+9PTDMN3i7XVJU6mOy/7h18O29GESusonYBgug7okSYupMazDTNx7fvqBmG565Nvru2XfIyR1tzouzw2fSx8noYsmn4C5omSfCWDetoXzs+9fkiR1psawDlO39V3ph2K674Zwafje7PuEpO5Wx+XE8LX0kRK65m0l+xwA82ZQlyRpqTWGdZiadSekH4jpl83hY+Ho7HuFpG5Wx2X38PqwNn2ohK7wCRiG5eLse5UkSZ2tMazDVNx9VvqhmP76u/CWsF/2PUNS96rjsnd4Z7gzfbCEtvMJGIbjsuz7kyRJna8xrMOKbfavCzN7G8IHw3Oy7xuSulcdl+8Jv5Q+WkLbOdPRf6uz70mSJPWmxrAOy7Z2VanbvdXEfH0pnBP2zL5/SOpWdVwODr8TtqePl9BGPgFDv12ZfR+SJKl3NYZ1WJbbT0s/HDNcd4cPhSOz7yGSulUdl6PCtekDJrTN5BMw7y7Z93eYhQ9k33skSeptzah8OHughK7Z+Lr0AzJM/GO4PDwt+14iqRvVcdktnBPWpA+Z0CY+AUP/GNQlSZplzajs3hjWYUm2XpJ+SIZH2hr+JLwqPDH7viKp/dVx2SesDvelj5nQBq8t2fdymKars+8zkiQNomZhWP949lAJXbDuuPRDMuzMHeGXw+HZ9xZJ7a+Oy0HhY9X31hk6n4ChP64Ou2ffXyRJGkzNqOwRPpM9WELb3XVm+kEZFutvw0Vh/+x7jKR2V31vHWq9qGTft2GlDOqSJGXUjMpejWEddmrTG9MPy7BU99WFh6xR9n1GUnurvrfO0J1Xsu/XsBKfqAZ1SZLyahaG9S9kD5fQRmuOLHXb5ekHZliJvwnnh72z7zeS2ln1vXWG6vTiEzB01WRQ3yP7/iFJ0uBrRmXfxrAOj3HryekHZpiWu8JV4Yey7zmS2ln1vXWG6KKSfX+GpTKoS5LUppqFYf267BET2uSec9IPzTAL/y28KnxX9r1HUvuqvrfOkPgEDN1iUJckqY01o7J/+F/ZQya0xQMXpR+cYZbWhZ8J35d9/5HUrqrvrTMUk0/AvKdk349hMa6pBnVJktpbszCsfzl7zIRsa1+QfnCGedke/jz8WPXtdUmPqPreOkPwEyX7Pgy7MhnU98q+J0iSpF3UGNah3n5a+uEZMtwd/mN4fva9SFJ7qr63Tp/5BAztZlCXJKlLNYZ1Bm7DuekHaMj29fDOcED2PUlSO6q+t04f+QQM7fVnYc/sa78kSVpijWGdAdvyzvRDNLTFlvAH4Ueqb3lKg6/63jp9dHHJvtfCoxnUJUnqco1hnQG6+dj0QzS01S3h/eFZ2fcnSblV31unT368ZN9f4ZEM6pIk9aHGsM7A3HlG+kEauuC/hjPDd2XfpyTlVb/9vfX8YRSWyydgaA+DuiRJfaoxrDMg978l/TANXbIu/HT4vux7laS8qu+t03U+AUM+g7okSX2sMawzAGuOLHX7FekHauiirXXh2+svDbtl37Mkzb/qe+t02etK9n2UYftk9jVckiTNsGZhWP9i9vAJs3Lby9IP1NAHN4R3he/Nvm9Jmn/V99bpIp+AIc+nqj8GL0lS/2tGZd9wXfb4CbNwzznph2rok83ho+EF2fcuSfOvfvt769vTB1NYDJ+AYf7+OPtaLUmS5liz8Ma6YZ3eedDDFMzK34U3h72z72GS5lv1vXW64vUl+17JsFwT9sq+RkuSpDnXLAzr38geQWFabjom/WANQ/BA+N1wUvXtdWkwVd9bpwvOKNn3SIbDoC5J0pBrRuWpjWGdnlh/evrhGobmxvDe8LTs+5mk+VR9b522e0fJvjfSfwZ1SZL0z8P6N7MHUVipe89PP2DDUG0NnwlnhCdm39ckzb7qe+u0lU/AMFtfrAZ1SZL0cM2oPCPcnD2KwkpsfVf6IRt4b7kjXBWelX1vkzT76riMwp+nD6nwMJ+AYXYmg/q+2dddSZLUsppROawxrNNR605IP2QDj3VtuCA8KfseJ2m21XE5MXwtfVCFiZ8s2fc/+segLkmSdlyzMKyvzx5IYanuPiv9oA3s2Mbw6+Hw7PucpNlVx2X38PqwNn1UZdh8EpDpMqhLkqRd14zKEY1hnY7Z/Lb0wzawONeFN1YPp1Jvq+Oyd7gibEgfVxmmV5Tsex398T+qM4skSVpszcKwvjF7KIXFWLuq1O1XpB+4gaXx9rrU8+q4PDl8MGxJH1kZHp+AYeUmLwLsn30tlSRJHasZlec13linA257WfqBG1gZb69LPa6Oyw+GT6ePrAzLBSX73ka3faMa1CVJ0nJrDOt0wIZz0w/dwHQ8/Pb6Edn3P0nTr47LceH69LGVYTizZN/T6K7JoP7U7GumJEnqeI1hnZZ78OL0gzcwfV8LPxGelH0flDS96rjsEd4W1qePrvSfT8CwdN+sBnVJkjStGsM6LTX5nnoLDt/A7GwKHwnHZN8LJU2vOi77h6uq760zSz4Bw9JMBvVnZF8fJUlSz2oM67TQHeP0wzcwP/8QLgkHZN8TJU2nOi7PDNekj6/006tK9n2L7ri5GtQlSdKsahaG9XXZQyo87N7z0w/gwPxtCb8fTgm7Zd8bJa28Oo7f87jckD7C0j+XlOx7Fu23Ljwz+zooSZJ6XjMqz2wM67TE1kvTD+FArsm/qn1FeFr2/VHSyqvj8m/CPelDLP3hEzDs3PpwWPa1T5IkDaTGsE4LrDsh/RAOtMfW8MfhR8MTsu+TkpZfHZcnh1+tvrfONPgEDDt2Zzg8+5onSZIGVjMqhzW+sU6iu89KP4gD7dSE94SnZN8rJS2/Oi4/GD6dPsrSff7NRh7LoC5JkvJqRuWIxrBOkgcuSj+MA+32YPi98OLs+6Wk5VfH5ejwtfRhlu66sGTfj2gXg7okScqvWRjWN2YPrAzL2lWlbr8i/UAOdMf14e3hu7Pvm5KWXh2X3cN5YU36QEv3+AQM33ZLNahLkqS21IzKixrDOnN0+2npB3Kgm+4LV4dR9r1T0tKr47J3uDxsSB9q6RafgGFhUP+h7OuYJEnSd9QsDOv3Z4+tDMOGc9MP5UD3/V14S9gv+x4qaWnVhT9m+hvpQy3d8aaSfc8hl0FdkiS1t2ZUTm0M68zBlnemH8yB/tgQPhiek30flbS06rg8N1yTPtjSfv7A/ZAZ1CVJUvtrFob1LdmjK/1187HpB3Ogv74e3hH2z76fSlp8dVxOCdenD7e027tK9j2G+VtXDeqSJKkrNaPy6rAte3yln9afnn44B/rvgfC74aSwW/Z9VdKuq+OyR7gw3Jo+3tJOPgEzNJNB/ZnZ1yZJkqQl1YzK+dnjK/103wXpB3RgWG4M7w1Pz763Stp1dVz2Cz8fNqePuLTLa0r2/YT5WV8N6pIkqas1C8O6N9aZqm2Xpx/SgWHaHj4XXhOemH2PlbTz6rgcEj6VPuTSLpeW7HsJszcZ1J+XfQ2SJElaUY1hnSlad0L6IR1g4o5wVXhW9n1W0s6r43J0uDZ9zKUdfAKm7wzqkiSpPzWGdabk7rPSD+oAj/ZX4bywd/b9VtLjV8dlt3BOWJM+6pLLJ2D6zKAuSZL6V2NYZwo2vy39sA6wI3eFX67eXpdaWx2XfcLqcF/6uEuey0r2/YLp21gN6pIkqa81hnVWYM2RpW6/Iv3ADrAY3l6XWlwdl4PCx8L29IGX+fMJmL6ZDOrHZF9XJEmSZlpjWGeZbntZ+oEdYKkefnv90Oz7r6THVsdlVfW99eHxCZg+ubca1CVJ0lBqDOssw4Zz0w/tACvxF+E14YnZ92FJ36763vow+QRMH3hDXZIkDa/GsM4SPXhx+sEdYBpuD79Qvb0utaq68L3191bfWx+GN+/0Ok373V8N6pIkaag1hnUW6aZj0g/uALNwbbgwPCn7nixpobrwvfVPpo++zJZPwHTZZFA/JftaIUmSlFozKhc2hnV2Yf3p6Yd3gFnaFD4ajs++L0taqI7LceGr6eMvs+MTMF1kUJckSXq4ZmFYTx9uaa/7Lkg/wAPMyz+Gy8LTsu/P0tCr47J7eH24JX0AZvreuqRrM/kM6pIkSY+uGZVLsodb2mnNkaVuuzz9EA8wb1vDZ8Irqz9uKqVWx2W/cFXYkj4EMz1nL+vaTA6DuiRJ0o5qDOs8jltPTj/EA2S7I1wVDs++V0tDro7LM8M16WMw0+MTMF1gUJckSdpVzahclj3i0i73nJN+kAdok+vCG8O+2fdsaajVcTml+t56P/gETNttCWdm/+YlSZI6UTMqq7OHXNrjgYvSD/MAbbQx/Hr19rqUVh2XC8Nt6cMwy+cTMG1mUJckSVpqjWGdsHZV+mEeoAu8vS4lVRe+t/7zYXP6QMzy+ARMGxnUJUmSllszKldmj7rkumOcfqAH6BJvr0tJ1XE5JPyXsD19JGZpfAKmbQzqkiRJK60xrA/aveenH+oBusrb61JCdVyOCtemD8Usnr/f0yYGdUmSpGnVjMpV2eMuObZekn6wB+g6b69LCdVxeVW4IX0wZnHePbNrMEvzyuzfriRJUq8yrA/PzcemH+oB+sbb69Icq+OyZ3hXuCd9NGbnfAImmzfUJUmSZlUzKh/IHnqZnzvPSD/cA/SVt9elOVbH5YDw0ep76+3lEzDZzsv+nUqSJPW6ZlSuzh57mY9Nb0w/3AMMgbfXpTlVfW+9vX6k+ARMjm3h/OzfpiRJ0iBqRuU3swdfZm/b5emHfIAh8fa6NIfquOwWzg5r0odkvtPb5n7dHTqDuiRJ0jxrRmX3xhvrvXbLiemHfIAh8/a6NOPquOwTVof708dkFvgEzDwZ1CVJkrIyrPfXPWenH/QB8Pa6NPPquBwYrg7b0kflofMJmHkxqEuSJGVnWO+nBy5KP+wD8J0mb69fWL29Ls2kOi7PDl9KH5aHzhl01gzqkiRJbahZ+BTMJ7JHYKZn7ar0wz4AOzZ5e/1D1dvr0kyq4/LycH36uDxUr02/xvaZQV2SJKltNaPyyewxmOm4Y5x+4Adgcby9Ls2gOi57hDeFW9NH5iHyCZhZeUP2b0uSJEmPqhmVPRpvrPfCfRekH/gBWBpvr0szqI7LfuH9YXP60DwkF6VfU/vosuzfkyRJknaQYb0ftr4r/dAPwPI9/Pb63tnnAqkv1XE5JHwyfWweivPSr6N9szr7NyRJkqRF1PgUTGetOyH90A/AdNwVfjk8K/tcIPWlOi7Hha+mj859d3rxCZjpuTL7dyNJkqRF1iy8sX5N9kDM0t11ZvrBH4Dp+3p4Z9g/+4wgdb06LruHN4Rb0sfnPrso/brZBx/O/r1IkiRpiTWjspdhvXs2vTH98A/A7DwQfjecHJ6QfVaQulxd+N76ldX31mfDJ2BW6urs34gkSZKWmWG9W9YcWeq2y9MfAACYj7Xh34VDs88LUpervrc+G5NPwLwn/TrZVR8Pu2f/NiRJkrSCDOvdcevJ6Q8AAOT47+HHqz9uKi27uvC99a+lj9F9clH6tbGLPpH9W5AkSdKUMqx3wz1npz8EAJDr7vAfwyj77CB1sbrwvfXzwpr0QboPfAJmqa4Je2T/DiRJkjTFDOvt94C3gQD4tuvCBWHf7DOE1LXquOwdfjrclz5Md5lPwCzFZFDfK/uffUmSJM0gw3p7rV2V/iAAQDttDB8Kz8o+R0hdq47LgeHqsC19oO6qi9OvgV1gUJckSep7Dw3rX8wekflOd4zTHwYAaL+/DOdW316XllQdl2eHL6UP1F304+nXvbYzqEuSJA2lZlT2Nay3y73npz8QANAdd4VfCodmnymkLlXH5WXhhvShukt8AmZnDOqSJElDy7DeLlvflf5QAEA3/UV4dXhi9tlC6kp1XC4NG9IH6654e/p1ro2+UA3qkiRJw+yhYf1L2YPy0K07If2hAIDuuz28Pzw9+3whdaE6LgeEX6++t75rr0+/vrXNn4U9s/8ZliRJUmKNN9bT3XVm+oMBAP0yeYPSt9elRVTH5bnh2vThus3OKD4B820GdUmSJC1kWM91/1vSHw4A6Ke7w6+Fw7PPGlKbq+OyW3hNaNIH7La6OP161gafqgZ1SZIkPbKHhvUvZw/MQ7PmyFK3X5H+gABA/30lvDU8KfvMIbW1Oi77hPeF+9JH7LbxCZhPZv/zKUmSpJbWjMr+hvX5uu1l6Q8IAAzLpvDb4UXZ5w6prdVxOSh8LGxPH7Pb4hVlyJ+Ambyhvkf2P5eSJElqcYb1+dpwbvpDAgDD9Q/h0nBA9vlDamN1XI4Kn08ftNviHenXrAwfyf7nUJIkSR3JsD4/W96Z/qAAAFvDH4cfDU/IPodIbauOyxnhhvRRO9vwPgHzieoNdUmSJC2lh4b1r2SPzn227rj0BwUAeLQ14d+Gp2efRaS2Vcfl0rAhfdzO8or069M8GdQlSZK0vBpvrM/UnWekPywAwI5sD38WXlUNS9I/V8flyeFXw5b0kTvDMD4Bc43rniRJklZUMyoHhOuzB+g+2vTG9AcGAFiMW8LPhkOzzyVSW6rj8oPhc+kj97z1/xMwk0F9r+x/viRJktSDmlF5imF9+rZdlv7QAABL9flwTnhi9vlEakN1XE4MX0sfu+el35+A+WI1qEuSJGmaGdana90J6Q8NALASd4RfDM/KPqNI2dVx2T28KdyaPnrPwzvTrz+zMBnU983+Z0mSJEk9zLA+PXeflf7gAADT8lfhdWHv7LOKlFkdl/3C6nB/+vA9S+enX3OmzaAuSZKk2daMykHhn7JH6a7b/Lb0hwcAmLa7wq9Ub69r4NVxOTD8ZtiWPoDPQr8+AWNQlyRJ0nxqRuXgcGP2MN1Va44sdfsV6Q8QADBL3l7X4Kvj8uza1z9m+pPp15hp+FI1qEuSJGmeNaPyjPDN7IG6i257WfoDBADMi7fXNfjqwh8z/Zv0IXyaLki/tqyUN9QlSZKU00PD+s3ZI3XXbDg3/SECADJ4e12Dro7LeWFN+iA+DWemX09WwqAuSZKk3JpROcywvjRb3pn+IAEAmTaGD1Vvr2uA1XHZJ/xUuC99GF+pbn4CxqAuSZKkdtSMyjMN64tz87HpDxIA0CZ/Gc6t3l7XwKrjclD4aNiePo4vV/c+AfPlalCXJElSm2oW3lhfnz1at92dZ6Q/TABAG02+vf5L4dDsM400z+q4HBWuTR/Il+NV6deNpZgM6vtn//8tSZIkPaZmVI4wrO/cpjemP1AAQNv9RXh1eGL22UaaR3VcdgtvCLekD+VLdUn69WIxDOqSJElqd4b1HVtzZKnbLk9/qACArrg9vD88Pft8I82jOi77hZ8Lm9PH8sVq/ydgDOqSJEnqRs2oPM+w/li3npz+UAEAXbQ9fDa8IuyRfc6RZl0dl0PC76cP5t3/BMzfV4O6JEmSupRh/bHuOTv9wQIAuu6W8LPVt9c1gOq4HBe+mj6c78ql6deFx/PN8NTs/w8lSZKkJWdY/04PXJT+cAEAffL5cE7YO/vMI82qOi67hwtqm7+33r5PwEwG9YOz/7+TJEmSlp1hfcHaVekPFwDQV3eHXw2HZ597pFlVx2WfsDrclz6it/sTMDeHZ2T//yVJkiStOMN6qXeM0x8wAGAIJn+U8M1h3+zzjzSL6rgcFD4WtqeP6e37BMz6cFj2/0eSJEnS1HpoWL8ze9zOcu/56Q8ZADAkG8OHw/Ozz0DSLKrjclS4Nn1Mf9iF6b/5O8Pzsv9/kSRJkqZeMyrPbgb6xvrWS9IfNABgqP5XeFt4UvZZSJp2dVxeG9amj+q5n4CZvKFuUJckSVJ/a0bliLAxe+Sep3XHpY8JAMB7y6bwn8Oq7POQNM3qwvfWLwsbBvgJmMm/lWJQlyRJUv9rRuVFQxrW7zozfUQAAL6Tt9fVu+q4HBB+I2xLGdXfNPff8WRQPyb7f3dJkiRpbj00rN+fPXjPw6Y3pg8HAMDj8/a6elcdl+eGa+Y+qp8119+uQV2SJEnDrBmVl2UP3rO25shSt12ePhgAALvm7XX1qjoup4Tre/gJmHurQV2SJElDrhmVV4ct2eP3rNx6cvpAAAAszeTt9d8OL8o+J0krrY7LHuHtYX1PPgEzeUP9hdn/u0qSJEnpNaPyY9nj96zcc076MAAALN8/hEvDAdnnJWkl1XHZP/x8xz8BY1CXJEmSHlkzKuf18Y31By9OHwMAgJXbEj4VTg1PyD43Scutjssh4fc7+AkYg7okSZL0eDWj8oo+DetrV6UPAADA9K0JPxOenn12kpZbHZfjwlc78gmYyaDuc0ySJEnSjurTsH77aekP/QDA7GwPnwuvDk/MPkNJS62Oy+7htWHNVEf110z1d3Z/NahLkiRJu64vw/rG16U/7AMA83FH+IVwaPY5SlpqdVz2CavDpqkN65dN5Xc1GdRPzf7fR5IkSepMDw3rm7OH8ZXYekn6Az4AMH+fD2dXb6+rY9VxOSh8bCqj+pun8ls6Pft/E0mSJKlzNaNySvYwvlw3H5v+QA8A5Hr47fVnZZ+ppKVUx+Wo8PnET8BM/jDwmdn/O0iSJEmdrRmV07MH8uW484z0B3kAoD3+Krwu7J19tpIWWx2XM8INc/4EjEFdkiRJmkbNqLw6bMseypdi0xvTH94BgPa5K/xK9fa6OlIdlz3DT4X7ljyqv3XJv49t1aAuSZIkTa9mVC7s0rC+7fL0h3YAoN3+R3hD2Df7nCXtqmV9b/3sJf0eJoP6+dn/PSVJkqTe9dCwnj6Y78otJ6Y/pAMA3bEx/EZYlX3WknbVQ99b/+qUPwFjUJckSZJmWTMql2WP5rtyzznpD+cAQDd9PVwc9s8+c0k7qo7L7uG8cMsuR/W3LOqf+9dl/3eSJEmSel8zKu/LHs535sGL0x/IAYBu2xw+Hk4Mu2WfvaTHq47LfmF12LDMT8BM/ijpedn/PSRJkqTB1IzKldnj+eO56ej0h3AAoF9uDO8JT8s+f0mPVx2XJ4erlvgJmMmg/ors/+ySJEnS4GpG5f3ZI/qj3TFOf/AGAPppa/jDcFp4QvY5THp0dVwODh8P279jVH/rY/5ZngzqP5r9n1eSJEkabG0b1u+7IP2BGwDovzXhfeGA7LOY9OjquDwvfP6fR/Ufe8w/v+Ps/4ySJEnS4GtG5Tezx/SHbbs8/SEbABiOB8Mnw0nVt9fVsuq4nBvWfWtYv/xb/6xO/pl9bfZ/LkmSJEkP1YZhfd0J6Q/WAMBw3RAuq95eV4uq4/Kk8Ev1ovL/xT+bb83+zyNJkiTpETWjsnu4OnNUv/us9IdpAABvr6t11TeWf5n9n0GSJEnS45Q9rG9+W/pDNADAI30zXBGeln1OkyRJkiS1uIxhfc2RpW6/Iv3BGQDg8WwNfxx+NOyRfVaTJEmSJLWsjDfWbz8t/WEZAGAxbgk/G56efWaTJEmSJLWseQ7rG85Nf0AGAFiK7eHPwqvCE7PPbZIkSZKkFjTPN9a3vDP9wRgAYLnuCFeFZ2Wf3yRJkiRJLagZld+c5aB+87HpD8IAANNybbggPCn7DCdJkiRJSmrWb6yvPz394RcAYNo2hd8Ox2Wf5SRJkiRJSTWj8uFZjOr3np/+0AsAMEv/EP5NeFr2eU6SJEmSNMceemN96sP61kvTH3QBAOZha/hMOCPskX22kyRJkiTNqWZUPjqtQX3dCekPtwAAGZrwU9Xb65IkSZLU/5pR2SN8fBqj+t1npT/QAgBkmry9/ofh1LBb9jlPkiRJkjTDmlH57EpH9QcuSn+QBQBoixvqwrfXD8g+50mSJEmSZlAzKnuFP1nuoL52VfqDKwBAGz0YPhFOrN5elyRJkqR+9dCw/oXljOq3n5b+wAoA0HbfDO+uvr0uSZIkSf2pGZV9lzOsb3xd+kMqAEBXTL69/kdhHJ6Qff6TJEmSJK2wh4b1/76UUX3rJekPpwAAXbQmrK7eXpckSZKkbvfQsH7dYgb1m49NfxgFAOi6R769vkf2WVCSJEmStIyaUdl/McP6+tPTH0IBAPrklnBlODT7PChJkiRJWmLNqHx3+NLORvX7Lkh/8AQA6KsvhNeGvbPPhZIkSZKkRdaMyr8If/R4g/qaI0vddnn6wyYAQN/dHX4tPCv7bChJkiRJWmTNqHzq0aP6LSemP2ACAAzN/wjnh32zz4eSJEmSpJ3UjMpe4TOPHNXvOTv9oRIAYKjuCr8YDsk+J0qSJEmSdtBDw/qfPzyqP3BR+sMkAMDQbQ9/El4enpB9XpQkSZIkPapmVPYLf33T0ekPkAAAfKcmXBG+N/vMKEmSJEl6RM2o7HPXmeW/t+DBEQCAx/d74eXZ50ZJkiRJ0kPFQ9pTwjdb8MAIAMCO3RSuDIdmnx8lSZIkafDFw9lTq2EdAKArJv+m4Y+HfbPPkZIkSZI02OKh7OBqWAcA6JKN4UPhOdlnSUmSJEkaZPFA9oxwcwseEAEAWJovhR8Le2afKSVJkiRpUMWD2A+E/92CB0MAAJbu9vBz4ZDsc6UkSZIkDaZ4CPv+8PcteCgEAGD5/jicnn22lCRJkqRBFA9gB4YbWvAwCADAyqwPvxwOzz5jSpIkSVKviwevQ8JNLXgQBABgOv42/ETYP/usKUmSJEm9LB64Dgt3tOABEACA6fq98OLs86YkSZIk9a542HpeXfjXhrMf/AAAmL7rw0Vhv+xzpyRJkiT1pmpYBwDouw3h18Jzss+ekiRJktSLqmEdAGAo/md4U3hS9hlUkiRJkjpdPFgdETa24EEPAIDZ2xQ+Fl4Sdss+i0qSJElSJ4sHqheF+1vwkAcAwPzcGFaHQ7PPo5IkSZLUueJh6tRqWAcAGKovhteHfbPPpZIkSZLUmeIh6pRqWAcAGLLJZwEnf9zU2+uSJEmStJiqYR0AgPeW7eH/Ccdnn08lSZIkqfVVwzoAAN/2lfDa8F3Z51RJkiRJam11YVjPfoADAKBd/ia8K3xv9nlVkiRJklpXXfjjpVta8PAGAEC7bA4fCaPsM6skSZIktap4UHplCx7aAABor/8aTsk+t0qSJElSa4qHpDNb8LAGAEC7/W3YN/vsKkmSJEmtKB6Q3tCCBzUAANppbXhu9plVkiRJklpVPCid34IHNgAA2uWm8P3ZZ1VJkiRJamV1YVjf1oKHNwAA8t0Rfjj7jCpJkiRJra4a1gEAeG+5MxyefTaVJEmSpE5UfQoGAGDIDOqSJEmStNTiQertLXigAwBgvjaGI7LPopIkSZLUyeKB6uLqUzAAAEMxGdRflH0GlSRJkqROV30KBgBgKI7LPntKkiRJUi+q/ngpAECfTd5QPyn7zClJkiRJvaoa1gEA+mgyqL8w+6wpSZIkSb2s+hQMAECf3BuOyT5jSpIkSVKviwevC6s31gEAuu7+alCXJEmSpPlUF4b17AdBAACWZzKon5J9ppQkSZKkQRUPYu9owQMhAABL99Lss6QkSZIkDbJ4ILukBQ+FAAAszuZwUvYZUpIkSZIGXTyYXd6CB0QAAHZu8skXb6hLkiRJUhuKB7TVLXhQBADg8XlDXZIkSZLaVjWsAwC00eQN9VOzz4qSJEmSpMepGtYBANpkSzWoS5IkSVK7iwe3K1vwAAkAMHSTQf3V2WdDSZIkSdIiige4D7TgQRIAYKi2VYO6JEmSJHWralgHAMhyfvZZUJIkSZK0jKphHQBgniZvqBvUJUmSJKnLVcM6AMA8GNQlSZIkqS9VwzoAwKwZ1CVJkiSpT1XDOgDArPxE9llPkiRJkjSD4oHv6hY8dAIA9MX2cF72GU+SJEmSNMOqN9YBAKbBoC5JkiRJQ6l6Yx0AYCUM6pIkSZI0tKphHQBguV6ffZaTJEmSJM25eBjcvRrWAQCW6sLsc5wkSZIkKalqWAcAWIrLss9vkiRJkqTkqmEdAGAxVmef2yRJkiRJLakuDOsfbsHDKgBAG12ZfV6TJEmSJLWweGD8vRY8tAIAtMl/yD6jSZIkSZJaWjw07hE+04KHVwCANviV7POZJEmSJKnlxcPjXtWwDgDwM9nnMkmSJElSR6oLw/oXWvAwCwCQYXX2eUySJEmS1LHiYXLfcF0LHmoBAOZpdfY5TJIkSZLU0eKhcv/wlRY83AIAzMPq7POXJEmSJKnj1YVh/csteMgFAJil1dnnLkmSJElST6qGdQCg31Znn7ckSZIkST2rGtYBgH66MvucJUmSJEnqadWwDgD0yweyz1eSJEmSpJ5XDesAQD9cnX2ukiRJkiQNpGpYBwC6zaAuSZIkSZpv1bAOAHTT1WH37LOUJEmSJGmAVcM6ANAtn6gGdUmSJElSZnVhWL++BQ/JAAA7MxnU98g+O0mSJEmSNBnWn1IN6wBAexnUJUmSJEntqhrWAYB2uqYa1CVJkiRJbawa1gGAdpkM6ntln5EkSZIkSdph1bAOALSDQV2SJEmS1I2qYR0AyPXFalCXJEmSJHWpalgHAHJMBvV9s89CkiRJkiQtubowrN/YgodrAGAYDOqSJEmSpG4XD7YHV8M6ADB7X64GdUmSJElSH6qGdQBgtv42fE/2mUeSJEmSpKlVDesAwGz8ZTWoS5IkSZL6WF0Y1v93Cx6+AYB++FL1yRdJkiRJUp+LB9/Dws0teAgHALpt8oa6QV2SJEmS1P+qYR0AWBmDuiRJkiRpWNWFYX19Cx7KAYBu+bNqUJckSZIkDbF4ID6iGtYBgMX7YjWoS5IkSZKGXDWsAwCLY1CXJEmSJGlSXRjWN7bgYR0AaKcvV4O6JEmSJEnfLh6UX1QN6wDAY00G9f2zzyqSJEmSJLWueGA+phrWAYBvu74a1CVJkiRJ2nHVsA4ALJgM6k/JPptIkiRJktT66sKwfm8LHuYBgBz/FA7KPpNIkiT9/+3dO6hdZ3rH4c9ChQoVGRWxBIGxqlhNChtSCUMgwziqEuJgQiAEJYYhhEgMGVAxHz7JQBC4GIMhhUAOkzQDNoEUxrXxTOdLJ6nycSUHgtIooAGhvFk7+2gcy7qcy97rfddazwO//lzW/pb238v7AMBkhCfWJUlaartDL2T/WwQAAAAmJwzrkiQtrd0wqAMAAMDhhWFdkqSltBsGdQAAADi6MKxLkjT3dsOgDgAAAJszvNH+3TCsS5I0x3bDoA4AAACbN7zhfmXoXoE3/5IkaTPthkEdAAAAtmd4430hDOuSJM2h3TCoAwAAwPbFeli/X2AMkCRJh2s3DOoAAAAwnuGN+OtDDwqMApIk6WDthkEdAAAAxje8IX8jDOuSJE2pr8KgDgAAAHliPaxnDwSSJOnZrQb1F7P/7QAAAACLN7xBv1JgKJAkSU/OoA4AAACVDG/Uf1RgMJAkSd/OoA4AAAAVDW/YLxcYDiRJ0tfdCYM6AAAA1BWGdUmSqrQa1F/K/rcBAAAA8AxhWJckKTuDOgAAAExJGNYlScrqbhjUAQAAYHrCsC5J0titBvXz2f8GAAAAAA4pDOuSJI2VQR0AAADmYHiD/9cFhgZJkube72ff8wEAAIANGd7oXxx6UGBwkCRpbt0bejX7Xg8AAABsWKyH9ezhQZKkOWVQBwAAgDkLn7EuSdKmMqgDAADAEoRhXZKko2ZQBwAAgCUJw7okSYfNoA4AAABLFIZ1SZIOmkEdAAAAlix6u1RgoJAkaQqtBvXvZ9+7AQAAgGTR2w8LDBWSJFXOE+oAAADA16K3KwUGC0mSKnY/DOoAAADAo6K3nQLDhSRJlVoN6q9l36MBAACAosKwLknSwwzqAAAAwLNFb1cLDBmSJGVmUAcAAAD2L3p7q8CgIUlSRg/CoA4AAAAcVPR2rcCwIUnSmK0G9YvZ92AAAABggqK3Y2FYlyQtqzey778AAADAxEVv1wuMHJIkbbsfZt9zAQAAgBmI9RPrhnVJ0py7kn2/BQAAAGYkDOuSpPm2k32fBQAAAGYo1sP6ewXGD0mSNtXV7PsrAAAAMGPR2/EwrEuS5tFb2fdVAAAAYAHCsC5Jmn7Xsu+nAAAAwMJEb+8XGEUkSTpo72bfQwEAAIAFCk+sS5Km18+Gnsu+hwIAAAALFr39e4GRRJKkZ+UJdQAAACBf9HZi6IMCY4kkSU/qnfCEOgAAAFBFrIf1jwqMJpIkPdo72fdJAAAAgG+J3k6GYV2SVCuDOgAAAFBXrIf1TwqMKJIkGdQBAACA+qK3U0OfFhhTJEnL7R+z74cAAAAA+xbrYf1GgVFFkrS8rmXfBwEAAAAOLHo7E4Z1SdK4XRs6ln0PBAAAADiU6O23hm4VGFkkSfPvX7LvewAAAABHFr2dHrpZYGyRJM23nw8dz77nAQAAAGxEGNYlSdvrgzCoAwAAAHMThnVJ0ub7aOhE9j0OAAAAYCvCsC5J2lyrQf1k9r0NAAAAYKtiPaz746WSpKP0WRjUAQAAgKUIT6xLkg7f50Pfyb6XAQAAAIwqDOuSpINnUAcAAACWK3wUjCRp/xnUAQAAAKK3M0M3Cow1kqS6GdQBAAAAHgrDuiTpyRnUAQAAAB4V62H9iwLjjSSpTgZ1AAAAgCeJ3s6GYV2StO6XYVAHAAAAeLowrEuSevt06FT2PQkAAABgEmI9rN8uMOpIksbPoA4AAABwUNHbuTCsS9LSuhkGdQAAAIDDifWw/lWBkUeStP1Wg/rp7HsPAAAAwKRFby+GYV2S5p5BHQAAAGBTwrAuSXNuNwzqAAAAAJsV62H9ToHxR5K0uXaHXsi+xwAAAADMUvT2UhjWJWku7YZBHQAAAGC7wrAuSXPoy6HvZt9TAAAAABYhDOuSNOUM6gAAAABji/WwfrfAOCRJ2n8GdQAAAIAs0dv5MKxL0lS6FQZ1AAAAgFxhWJekKbQa1J/PvmcAAAAA0AzrklQ8gzoAAABANWFYl6SKGdQBAAAAqor1sH6vwIgkSert5tBvZt8bAAAAAHiK6O3VMKxLUnarQf109j0BAAAAgH0Iw7okZWZQBwAAAJiaMKxLUkYGdQAAAICpCsO6JI3ZbhjUAQAAAKYtertQYGiSpLm3O/RC9pkPAAAAwAZEb68N3S8wOknSHNsNgzoAAADAvIRhXZK20W4Y1AEAAADmKQzrkrTJbg+dzT7bAQAAANiiMKxL0ia6M3Qu+0wHAAAAYASxHtYfFBilJGmKrQb1l7PPcgAAAABGFL1dDMO6JB20u2FQBwAAAFimMKxL0kG6N/RK9tkNAAAAQKJYD+vZQ5UkTaFXs89sAAAAAAoIT6xL0tNa/XHnC9lnNQAAAACFhCfWJelxrf6D4+vZZzQAAAAABUVvlwsMWJJUpdWgfjH7bAYAAACgsDCsS9IqgzoAAAAA+xOGdUnLzqAOAAAAwMFEb1cKDFuSNHYGdQAAAAAOJ3rbKTBwSdKYGdQBAAAAOLzo7c0CI5ckjdGl7DMXAAAAgBkIT6xLmn+Xs89aAAAAAGYkevv7AqOXJG0jT6gDAAAAsHnR21sFxi9J2mSeUAcAAABge8KwLmk+Xck+UwEAAABYgDCsS5p+O9lnKQAAAAALEr1dKzCKSdJh2sk+QwEAAABYmOjtWBjWJU2vnezzEwAAAICFCsO6pGm1k31uAgAAALBwsR7Wf15gLJOkp3U1+7wEAAAAgF+L3t4vMJpJ0uN6O/uMBAAAAIBviN6OhyfWJdXrnezzEQAAAAAeK9bD+gcFRjRJWvWT7HMRAAAAAJ4qejsRhnVJ+e1kn4cAAAAAsC+xHtY/KjCqSVpmO9nnIAAAAAAcSPR2Mgzrksbvx9nnHwAAAAAcShjWJY3b32SfewAAAABwJLEe1j8uMLZJmnd/m33eAQAAAMBGhGFd0na7nH3OAQAAAMBGhWFd0na6kn2+AQAAAMBWhGFd0mbbyT7XAAAAAGCrwrAuaTNdzT7PAAAAAGAUYViXdLR+mn2OAQAAAMCoYj2sf1pgnJM0rQzqAAAAACxT9HYqDOuS9t/17HMLAAAAAFJFb78x9FmBsU5S7d7NPq8AAAAAoITwxLqkp/fe0LHsswoAAAAAygjDuqTHtxrUj2efUQAAAABQThjWJX2zD8OgDgAAAABPFoZ1SetWg/qJ7DMJAAAAAMqL9bB+s8CoJymnj8OgDgAAAAD7F72dDsO6tMRWg/rJ7DMIAAAAACYnDOvS0lp99JNBHQAAAAAOK9bD+q0CY5+k7fbZ0KnsMwcAAAAAJi96OzN0o8DoJ2k7rZ5QN6gDAAAAwKbEelj/osD4J2mzGdQBAAAAYBuit7NhWJfmlEEdAAAAALYp1sP67QJjoKSjZVAHAAAAgDFEb+fCsC5NuZthUAcAAACA8YRhXZpqq0H9dPYZAgAAAACLE+th/U6BkVDS/jKoAwAAAECm6O2lMKxLU+hWGNQBAAAAIF8Y1qXqfT70fPZZAQAAAADsCcO6VLXVoP6d7DMCAAAAAHhEGNalahnUAQAAAKCyMKxLVTKoAwAAAMAUhGFdyu6XYVAHAAAAgOkIw7qU1WpQP5l9BgAAAAAABxTrYf1ugZFRWkqfhEEdAAAAAKYrenslDOvSGK0G9VPZr3kAAAAA4IjCsC5tuxthUAcAAACA+Yj1sH6vwPgoza3VoH4m+zUOAAAAAGxY9HYhDOvSJvsiDOoAAAAAMF9hWJc21WpQP5v9mgYAAAAAtizWw/r9AqOkNNVuh0EdAAAAAJYjevvjAsOkNMX+c+hc9msYAAAAABhZ9PanBQZKaUrdGXop+7ULAAAAACSJ3l4LHwUj7SeDOgAAAADw62H9QYHRUqqaQR0AAAAA+Fr0djEM69LjuhsGdQAAAADgUWFYlx5tNaifz35tAgAAAABFhWFdephBHQAAAAB4tjCsS/fCoA4AAAAA7FcY1rXcVoP6q9mvQQAAAABgYqK3vyowcEpjZlAHAAAAAA4vPLGu5WRQBwAAAACOLgzrmn8GdQAAAABgc8KwrvlmUAcAAAAANi8M65pfBnUAAAAAYHvCsK75ZFAHAAAAALYvDOuafgZ1AAAAAGA8sR7Ws4dR6bAZ1AEAAACAcUVvb4Qn1jWt7g+9lv3aAQAAAAAWKtbDevZQKu0ngzoAAAAAkC96+7sCg6n0tFb/R4VBHQAAAACoIQzrqttqUL+Y/RoBAAAAAPiG6O1KgQFV+v8Z1AEAAACAuqK3nQJDqvQwgzoAAAAAUFv09maBMVW6lP1aAAAAAADYl+jtaoFRVcvtcvZrAAAAAADgQKK3nxYYV7W8DOoAAAAAwDSFYV3jZlAHAAAAAKYtDOsapyvZ1zoAAAAAwEaEYV3b7c3saxwAAAAAYKOit+sFxlfNr53saxsAAAAAYCvCsK7N5gl1AAAAAGC+ordjYVjXZtrJvp4BAAAAALYuDOs6ejvZ1zEAAAAAwGjCsK7Dt5N9/QIAAAAAjC4M6zp4O9nXLQAAAABAqujtXwuMtaqfP0oKAAAAABC9HR96r8Boq7pdzb5OAQAAAABKid7eLzDeql5vZ1+bAAAAAADlxPqJ9Q8KjLiq0/Xs6xIAAAAAoKzo7UQY1rVu9Udsj2VfkwAAAAAApcV6WP+owKgrgzoAAAAAQH3R28mhXxQYdzV+72VffwAAAAAAkxO9nRr6pMDIq/H6t6Hj2dceAAAAAMAk7Q3rNwqMvdp+PzOoAwAAAAAcUfR2euhmgdFX2+vd7OsMAAAAAGA2DOuzbvWE+nPZ1xgAAAAAwKwY1meZQR0AAAAAYFsM67Pqn7OvJwAAAACA2TOsz6LrQ8eyryUAAAAAgEUwrE86gzoAAAAAwNj2hvVbBUZi7b/3s68bAAAAAIDFCk+sT6n3ho5nXzMAAAAAAItmWJ9EBnUAAAAAgCoM66X7MPv6AAAAAADgEYb1kn04dCL72gAAAAAA4DEM66X62KAOAAAAAFDc3rB+q8CovOR+MXQy+1oAAAAAAGAf9ob13QLj8hL72KAOAAAAADAx0dsLhvXR+9SgDgAAAAAwUXvD+pcFxuYl9NnQqezfOQAAAAAARxCeWB+jTw3qAAAAAAAzYVjfajcN6gAAAAAAM2NY39qgfjr7dwsAAAAAwBYY1g3qAAAAAAAcwN6w/lWBUXrK7RrUAQAAAAAWInp70bB+6L4c+m727xAAAAAAgBEZ1g/VLYM6AAAAAMBCGdYP1Ooz1J/P/p0BAAAAAJAoejs3dKfAaF25WwZ1AAAAAAD+T/T2smH9iX1uUAcAAAAA4BsM64/txtCp7N8NAAAAAAAF7Q3rdwuM2RVaDepnsn8nAAAAAAAUFr29YlhvXxjUAQAAAADYl71h/V6BcTuj20Nns38HAAAAAABMSPR2YYHD+mpQP5f9swcAAAAAYIL2hvX7BcbuMfqPod/O/pkDAAAAADBh0dvrQw8KjN4GdQAAAAAA6ove3pjxsG5QBwAAAABgs6K3izMc1g3qAAAAAABsx96wnj2Eb3JQfzH7ZwoAAAAAwIzN5In1rwzqAAAAAACMYuJPrBvUAQAAAAAYV/R2qcBAftD+a+h3sn92AAAAAAAsUPT2FwWG8v12Z+il7J8ZAAAAAAALFr39+dD/FBjNnzWov5z9swIAAAAAgIfD+v0C4/njumtQBwAAAACglOjtTwoM6I/230Pns382AAAAAADwLdHbnxUY0h92b+j3sn8mAAAAAADwRNHbDwoM6r8a+l72zwIAAAAAAJ4peruSOKjfNagDAAAAADAp0dvVhEHdZ6gDAAAAADBN0dubI3+GukEdAAAAAIDpit5+PNKg/mr29woAAAAAAEcWvV3a8qD+/ezvEQAAAAAANiZ6u7ylUf0Ps783AAAAAADYuA0P678a+l729wQAAAAAAFuzoY+C8ZEvAAAAAAAsQ/TWjzio/0H29wAAAAAAAKOJ3t4+xKB+f+hC9tcOAAAAAACji96uH3BUfy37awYAAAAAgBTR23ND/7TPJ9T/KPvrBQAAAACAdNHbP3hCHQAAAAAA9il6u/qEQf0H2V8bAAAAAACU85g/Xvqj7K8JAAAAAADKit7e2RvU/zL7awEAAAAAgPKit/PZXwMAAPBt/wssmUQEtBOCOgAAAABJRU5ErkJggg==;" vertex="1" parent="pmMBrRk4SSzDKYRyh0Tt-17">
          <mxGeometry x="520.5" y="301" width="65" height="65.93" as="geometry" />
        </mxCell>
      </root>
    </mxGraphModel>
  </diagram>
</mxfile>
